<svg xmlns="http://www.w3.org/2000/svg" width="623" height="647.031" viewBox="0 0 623 647.031">
  <defs>
    <style>
      .cls-1, .cls-4 {
        fill: #484054;
      }

      .cls-1 {
        opacity: 0.4;
      }

      .cls-2, .cls-8 {
        fill: #0398df;
      }

      .cls-3, .cls-7 {
        fill: #fff;
      }

      .cls-4, .cls-5, .cls-6, .cls-7, .cls-8 {
        fill-rule: evenodd;
      }

      .cls-4 {
        opacity: 0.43;
      }

      .cls-5 {
        fill: #60f;
      }

      .cls-6 {
        fill: #ff6005;
      }
    </style>
  </defs>
  <rect id="Rectangle_10_copy_2" data-name="Rectangle 10 copy 2" class="cls-1" x="5" y="5" width="618" height="560"/>
  <rect class="cls-2" width="618" height="560"/>
  <rect id="Rectangle_10_copy_3" data-name="Rectangle 10 copy 3" class="cls-3" x="28" y="26" width="562" height="509" rx="30" ry="30"/>
  <path id="Polygon_1_copy_4" data-name="Polygon 1 copy 4" class="cls-4" d="M738.837,637.648l38.91,20.951-38.911,20.952,12.7,42.339-42.341-12.7-2.777,5.158L733,857.033l-44.5-42.154L644,857.033l26.452-141.981-3.155-5.861-42.331,12.7,12.7-42.334L598.741,658.6l38.919-20.956-12.7-42.329,42.328,12.7L688.244,569.1,709.2,608.015l42.338-12.7Z" transform="translate(-184 -210)"/>
  <path id="Polygon_1_copy_2" data-name="Polygon 1 copy 2" class="cls-5" d="M720,844.033l-44.5-42.154L631,844.033,675.5,605.158Z" transform="translate(-184 -210)"/>
  <path id="Polygon_1_copy" data-name="Polygon 1 copy" class="cls-6" d="M725.837,624.648l38.91,20.951-38.911,20.952,12.7,42.339-42.341-12.7L675.244,735.1l-20.952-38.911-42.331,12.7,12.7-42.334L585.741,645.6l38.919-20.956-12.7-42.329,42.328,12.7L675.244,556.1,696.2,595.015l42.338-12.7Z" transform="translate(-184 -210)"/>
  <path id="Polygon_1_copy_3" data-name="Polygon 1 copy 3" class="cls-7" d="M710,645l-10.654,24.352L675,680l-24.352-10.649L640,645l10.65-24.347L675,610l24.347,10.654Z" transform="translate(-184 -210)"/>
  <path id="Rectangle_3_copy_9" data-name="Rectangle 3 copy 9" class="cls-5" d="M313,555H543v16H313V555Zm89.687,36H543v16H402.687V591Zm-49.843,36H543v16H352.844V627Z" transform="translate(-184 -210)"/>
  <path id="Certificate" class="cls-8" d="M739.109,470.741v12.1h-36.6v-81h36.4v12.2h-18.5v20.1h14.1v12.4h-14.1v24.2h18.7Zm-55.545,12.1h-18v-67.7h-12.2v-13.3h42.3v13.3h-12.1v67.7Zm-45.951,0-2.7-17.1h-11.9l-2.8,17.1h-16.9l15.3-81h20.4l15.1,81h-16.5Zm-8.7-59.4-4.3,31.6h8.6Zm-40.507,57.45q-5.05,3.15-14.15,3.15-9.2,0-14.55-3.35a18.028,18.028,0,0,1-7.55-9.4,41.687,41.687,0,0,1-2.2-14.25v-29.2a42.366,42.366,0,0,1,2.2-14.45,17.8,17.8,0,0,1,7.55-9.35q5.347-3.3,14.55-3.3,9,0,14.05,2.95a16.3,16.3,0,0,1,7.15,8.25,32.953,32.953,0,0,1,2.1,12.2v7h-17.5v-8.1a41.151,41.151,0,0,0-.25-4.6,6.792,6.792,0,0,0-1.45-3.65q-1.2-1.447-4.1-1.45a5.309,5.309,0,0,0-4.15,1.5,7.088,7.088,0,0,0-1.7,3.75,30.707,30.707,0,0,0-.35,4.75v38.1a25.285,25.285,0,0,0,.45,4.95,6.843,6.843,0,0,0,1.8,3.6,5.35,5.35,0,0,0,3.95,1.35,4.922,4.922,0,0,0,4-1.45,7.2,7.2,0,0,0,1.5-3.75,36.3,36.3,0,0,0,.3-4.7v-8.5h17.5v7a34.931,34.931,0,0,1-2.05,12.35A16.936,16.936,0,0,1,588.406,480.891Zm-67.881-79.05h17.9v81h-17.9v-81Zm-24.743,32.5h14.9v12.5h-14.9v36h-17.9v-81h35v12.1h-17.1v20.4Zm-48.431-32.5h17.9v81h-17.9v-81Zm-19.045,81h-18v-67.7h-12.2v-13.3h42.3v13.3h-12.1v67.7Zm-52.96,0-8.9-36.3h-5.1v36.3h-17.9v-81h22.3a49.707,49.707,0,0,1,14.2,1.8,17.231,17.231,0,0,1,9.35,6.45q3.349,4.65,3.35,13.15a44.575,44.575,0,0,1-.8,8.9,16.59,16.59,0,0,1-2.95,6.75,16.232,16.232,0,0,1-6.15,4.75l11.1,39.2h-18.5Zm-1.2-66.1q-1.9-2.9-7-2.9h-5.8v22.4h5a10.887,10.887,0,0,0,5.9-1.35,7.162,7.162,0,0,0,2.95-3.9,19.616,19.616,0,0,0,.85-6.15Q376.046,419.643,374.146,416.741Zm-74.945-14.9h36.4v12.2H317.1v20.1h14.1v12.4H317.1v24.2h18.7v12.1H299.2v-81Zm-18.807,79.05q-5.051,3.15-14.15,3.15-9.2,0-14.55-3.35a18.033,18.033,0,0,1-7.55-9.4,41.687,41.687,0,0,1-2.2-14.25v-29.2a42.366,42.366,0,0,1,2.2-14.45,17.8,17.8,0,0,1,7.55-9.35q5.349-3.3,14.55-3.3,9,0,14.05,2.95a16.29,16.29,0,0,1,7.15,8.25,32.953,32.953,0,0,1,2.1,12.2v7h-17.5v-8.1a40.913,40.913,0,0,0-.25-4.6,6.792,6.792,0,0,0-1.45-3.65q-1.2-1.447-4.1-1.45a5.309,5.309,0,0,0-4.15,1.5,7.088,7.088,0,0,0-1.7,3.75,30.832,30.832,0,0,0-.35,4.75v38.1a25.285,25.285,0,0,0,.45,4.95,6.843,6.843,0,0,0,1.8,3.6,5.352,5.352,0,0,0,3.95,1.35,4.921,4.921,0,0,0,4-1.45,7.2,7.2,0,0,0,1.5-3.75,36.3,36.3,0,0,0,.3-4.7v-8.5h17.5v7a34.908,34.908,0,0,1-2.05,12.35A16.931,16.931,0,0,1,280.394,480.891Z" transform="translate(-184 -210)"/>
</svg>
