<svg width="401" height="179" viewBox="0 0 401 179" fill="none" xmlns="http://www.w3.org/2000/svg">
<g opacity="0.3" filter="url(#filter0_d)">
<path d="M135.781 108.855C135.326 118.751 132.656 127.508 127.773 135.125C122.891 142.677 116.022 148.536 107.168 152.703C98.3789 156.87 88.3203 158.953 76.9922 158.953C58.3073 158.953 43.5938 152.866 32.8516 140.691C22.1094 128.517 16.7383 111.329 16.7383 89.1289V82.0977C16.7383 68.1654 19.1471 55.9909 23.9648 45.5742C28.8477 35.0924 35.8464 27.0195 44.9609 21.3555C54.0755 15.6263 64.6224 12.7617 76.6016 12.7617C93.8542 12.7617 107.721 17.319 118.203 26.4336C128.685 35.4831 134.642 47.9831 136.074 63.9336H101.895C101.634 55.2747 99.4531 49.0573 95.3516 45.2812C91.25 41.5052 85 39.6172 76.6016 39.6172C68.0729 39.6172 61.8229 42.8073 57.8516 49.1875C53.8802 55.5677 51.7969 65.7565 51.6016 79.7539V89.8125C51.6016 104.982 53.4896 115.822 57.2656 122.332C61.1068 128.842 67.6823 132.098 76.9922 132.098C84.8698 132.098 90.8919 130.242 95.0586 126.531C99.2253 122.82 101.439 116.928 101.699 108.855H135.781ZM225.332 119.207C225.332 114.194 223.542 110.288 219.961 107.488C216.445 104.689 210.228 101.792 201.309 98.7969C192.389 95.8021 185.098 92.9049 179.434 90.1055C161.009 81.056 151.797 68.6211 151.797 52.8008C151.797 44.9232 154.076 37.9896 158.633 32C163.255 25.9453 169.766 21.2578 178.164 17.9375C186.562 14.5521 196.003 12.8594 206.484 12.8594C216.706 12.8594 225.853 14.6823 233.926 18.3281C242.064 21.974 248.379 27.1823 252.871 33.9531C257.363 40.6589 259.609 48.3411 259.609 57H225.43C225.43 51.2057 223.639 46.7135 220.059 43.5234C216.543 40.3333 211.758 38.7383 205.703 38.7383C199.583 38.7383 194.733 40.1055 191.152 42.8398C187.637 45.5091 185.879 48.9271 185.879 53.0938C185.879 56.7396 187.832 60.0599 191.738 63.0547C195.645 65.9844 202.513 69.0443 212.344 72.2344C222.174 75.3594 230.247 78.7448 236.562 82.3906C251.927 91.2448 259.609 103.452 259.609 119.012C259.609 131.447 254.922 141.212 245.547 148.309C236.172 155.405 223.314 158.953 206.973 158.953C195.449 158.953 185 156.902 175.625 152.801C166.315 148.634 159.284 142.97 154.531 135.809C149.844 128.582 147.5 120.281 147.5 110.906H181.875C181.875 118.523 183.828 124.155 187.734 127.801C191.706 131.382 198.118 133.172 206.973 133.172C212.637 133.172 217.096 131.967 220.352 129.559C223.672 127.085 225.332 123.634 225.332 119.207ZM350.527 119.207C350.527 114.194 348.737 110.288 345.156 107.488C341.641 104.689 335.423 101.792 326.504 98.7969C317.585 95.8021 310.293 92.9049 304.629 90.1055C286.204 81.056 276.992 68.6211 276.992 52.8008C276.992 44.9232 279.271 37.9896 283.828 32C288.451 25.9453 294.961 21.2578 303.359 17.9375C311.758 14.5521 321.198 12.8594 331.68 12.8594C341.901 12.8594 351.048 14.6823 359.121 18.3281C367.259 21.974 373.574 27.1823 378.066 33.9531C382.559 40.6589 384.805 48.3411 384.805 57H350.625C350.625 51.2057 348.835 46.7135 345.254 43.5234C341.738 40.3333 336.953 38.7383 330.898 38.7383C324.779 38.7383 319.928 40.1055 316.348 42.8398C312.832 45.5091 311.074 48.9271 311.074 53.0938C311.074 56.7396 313.027 60.0599 316.934 63.0547C320.84 65.9844 327.708 69.0443 337.539 72.2344C347.37 75.3594 355.443 78.7448 361.758 82.3906C377.122 91.2448 384.805 103.452 384.805 119.012C384.805 131.447 380.117 141.212 370.742 148.309C361.367 155.405 348.509 158.953 332.168 158.953C320.645 158.953 310.195 156.902 300.82 152.801C291.51 148.634 284.479 142.97 279.727 135.809C275.039 128.582 272.695 120.281 272.695 110.906H307.07C307.07 118.523 309.023 124.155 312.93 127.801C316.901 131.382 323.314 133.172 332.168 133.172C337.832 133.172 342.292 131.967 345.547 129.559C348.867 127.085 350.527 123.634 350.527 119.207Z" fill="#0398DF"/>
</g>
<defs>
<filter id="filter0_d" x="0.738281" y="0.761719" width="400.066" height="178.191" filterUnits="userSpaceOnUse" color-interpolation-filters="sRGB">
<feFlood flood-opacity="0" result="BackgroundImageFix"/>
<feColorMatrix in="SourceAlpha" type="matrix" values="0 0 0 0 0 0 0 0 0 0 0 0 0 0 0 0 0 0 127 0"/>
<feOffset dy="4"/>
<feGaussianBlur stdDeviation="8"/>
<feColorMatrix type="matrix" values="0 0 0 0 0 0 0 0 0 0 0 0 0 0 0 0 0 0 0.8 0"/>
<feBlend mode="normal" in2="BackgroundImageFix" result="effect1_dropShadow"/>
<feBlend mode="normal" in="SourceGraphic" in2="effect1_dropShadow" result="shape"/>
</filter>
</defs>
</svg>
