<svg xmlns="http://www.w3.org/2000/svg" width="392" height="590" viewBox="0 0 392 590">
  <defs>
    <style>
      .cls-1 {
        fill: #eed9cc;
      }

      .cls-1, .cls-2, .cls-3, .cls-4, .cls-5, .cls-6 {
        fill-rule: evenodd;
      }

      .cls-2 {
        fill: #cd9e84;
      }

      .cls-3 {
        fill: #ff6005;
      }

      .cls-4 {
        fill: #0398df;
      }

      .cls-5 {
        fill: #68c1ec;
      }
    </style>
  </defs>
  <path id="Shape_7_copy" data-name="Shape 7 copy" class="cls-1" d="M677,506l-9,102L600,727l-97,11-2-20-2,20-97-11L334,608l-9-102-20-15,2-73,18-12,6-114,52-49H501l156-8,14,57,6,114,18,12,2,73Z" transform="translate(-305 -191)"/>
  <path id="Shape_7_copy_2" data-name="Shape 7 copy 2" class="cls-2" d="M677,435l-13,22-5,31-7-32,28-30,3,16ZM462,645l37.453,1.111L535,645l-35.547,10Zm12-87,25.653,2L524,558l-24.347,18Zm10-21-1-56,4-17,2,75-13,6ZM337,457l-13-22-6,7,3-16,28,30-7,32Z" transform="translate(-305 -191)"/>
  <path id="Shape_2_copy_2" data-name="Shape 2 copy 2" class="cls-3" d="M643,425l13.937-33.5L656,310l-31-24,33-40,19,16-0.823,145.333ZM535,306l-90-7-70-15-31,26-0.937,81.5L357,425l-33.177-17.667L323,274l37-62,112-21,123,29,82,6-62,63ZM352.049,531.752l9.77,89.83,41.039,34.985,32.545-60.54L501,582l65.6,14.027,31.91,61.139,41.741-35.584,9.77-89.83,26.867-27.835L683,681.047l-78.158,92.362L501.038,781l-103.8-7.591-78.158-92.362,6.106-177.13Zm84.264,153.335h129.45l13.571-11.57-2.706-6.96-34.719-33.674H460.1l-35.721,33.674-2.34,6.362Z" transform="translate(-305 -191)"/>
  <path id="Shape_8_copy" data-name="Shape 8 copy" class="cls-4" d="M626,481l-7,8-77,6-13-5-7-44,6-12,96-1,9,8,2,7ZM459,495l-77-6-7-8-9-33,2-7,9-8,96,1,6,12-7,44Z" transform="translate(-305 -191)"/>
  <path id="Shape_8_copy_2" data-name="Shape 8 copy 2" class="cls-5" d="M523,442.06L629,474l3.91-24.009L627,433l-52-1-49,4Z" transform="translate(-305 -191)"/>
  <path class="cls-5" d="M366,442.06L477,477l1-39-55.539-7.069L374,433Z" transform="translate(-305 -191)"/>
  <path id="Shape_3_copy_2" data-name="Shape 3 copy 2" class="cls-6" d="M659,434.972s-16.341,16.554-21,21.945-5.041,27.275-15,33.914c-4.191,2.793-89.906,10.037-96,5.984s-8.461-26.853-11-31.919-16-5.984-16-5.984V459s-13.461.921-16,6-4.906,27.937-11,32-91.809-3.2-96-6c-9.959-6.656-10.341-28.6-15-34s-21-22-21-22l-3-11,25,15s5.155-8.7,10-10,99.175-1.285,104,1,4.222,9.73,6,11,17,1,17,1v-0.046s15.222,0.269,17-1,1.175-8.693,6-10.972,99.155-2.3,104-1,10,9.975,10,9.975L662,424ZM472,441c-4.81-3.655-88.575-4.539-93-3s-7.7,7.109-7,14c1.549,15.307,6.916,28.164,13,32,4.379,2.761,74.651,8.232,81,4S476.81,444.655,472,441Zm149-3.035c-4.425-1.536-88.191-.654-93,2.992s-0.349,42.66,6,46.881,76.621-1.236,81-3.99c6.084-3.826,11.451-16.651,13-31.919C628.7,445.056,625.425,439.5,621,437.965Z" transform="translate(-305 -191)"/>
</svg>
