<svg width="567" height="160" viewBox="0 0 567 160" fill="none" xmlns="http://www.w3.org/2000/svg">
<g opacity="0.3" filter="url(#filter0_d)">
<path d="M37.4062 55.6643C44.4375 46.8101 53.4219 42.3831 64.3594 42.3831C76.013 42.3831 84.8021 45.8336 90.7266 52.7346C96.651 59.6357 99.6784 69.8245 99.8086 83.301V150H66.8008V84.0823C66.8008 78.4833 65.6615 74.3818 63.3828 71.7776C61.1042 69.1083 57.2305 67.7737 51.7617 67.7737C44.9909 67.7737 40.2057 69.9221 37.4062 74.219V150H4.49609V0.000244141H37.4062V55.6643ZM156.449 18.0667V44.3362H173.832V67.1877H156.449V115.528C156.449 119.499 157.165 122.266 158.598 123.828C160.03 125.391 162.862 126.172 167.094 126.172C170.349 126.172 173.083 125.977 175.297 125.586V149.121C169.372 151.009 163.188 151.953 156.742 151.953C145.414 151.953 137.048 149.284 131.645 143.946C126.241 138.607 123.539 130.502 123.539 119.629V67.1877H110.062V44.3362H123.539V18.0667H156.449ZM217.973 44.3362L219.047 56.7385C226.534 47.1682 236.592 42.3831 249.223 42.3831C262.569 42.3831 271.586 47.689 276.273 58.301C283.435 47.689 293.786 42.3831 307.328 42.3831C328.747 42.3831 339.75 55.3388 340.336 81.2502V150H307.328V83.301C307.328 77.8974 306.417 73.9586 304.594 71.4846C302.771 69.0107 299.451 67.7737 294.633 67.7737C288.122 67.7737 283.272 70.6708 280.082 76.4651L280.18 77.8323V150H247.172V83.4963C247.172 77.9625 246.293 73.9586 244.535 71.4846C242.777 69.0107 239.424 67.7737 234.477 67.7737C228.161 67.7737 223.344 70.6708 220.023 76.4651V150H187.113V44.3362H217.973ZM393.852 150H360.844V0.000244141H393.852V150ZM465.434 80.469L474.125 7.81274H557.23V33.3987H500.883L497.66 61.6213C500.004 60.2542 503.064 59.0497 506.84 58.0081C510.681 56.9664 514.424 56.4456 518.07 56.4456C532.198 56.4456 543.038 60.6448 550.59 69.0432C558.207 77.3765 562.016 89.0953 562.016 104.199C562.016 113.314 559.965 121.582 555.863 129.004C551.827 136.361 546.13 142.025 538.773 145.996C531.417 149.968 522.725 151.953 512.699 151.953C503.78 151.953 495.414 150.13 487.602 146.485C479.789 142.774 473.669 137.728 469.242 131.348C464.815 124.903 462.634 117.643 462.699 109.571H495.707C496.033 114.779 497.693 118.913 500.688 121.973C503.682 125.033 507.621 126.563 512.504 126.563C523.572 126.563 529.105 118.36 529.105 101.953C529.105 86.7841 522.335 79.1995 508.793 79.1995C501.111 79.1995 495.382 81.6734 491.605 86.6213L465.434 80.469Z" fill="#DF0365"/>
</g>
<defs>
<filter id="filter0_d" x="0.496094" y="0.000244141" width="565.52" height="159.953" filterUnits="userSpaceOnUse" color-interpolation-filters="sRGB">
<feFlood flood-opacity="0" result="BackgroundImageFix"/>
<feColorMatrix in="SourceAlpha" type="matrix" values="0 0 0 0 0 0 0 0 0 0 0 0 0 0 0 0 0 0 127 0"/>
<feOffset dy="4"/>
<feGaussianBlur stdDeviation="2"/>
<feColorMatrix type="matrix" values="0 0 0 0 0 0 0 0 0 0 0 0 0 0 0 0 0 0 0.8 0"/>
<feBlend mode="normal" in2="BackgroundImageFix" result="effect1_dropShadow"/>
<feBlend mode="normal" in="SourceGraphic" in2="effect1_dropShadow" result="shape"/>
</filter>
</defs>
</svg>
