<svg width="18" height="19" viewBox="0 0 18 19" fill="none" xmlns="http://www.w3.org/2000/svg">
<path d="M17.7539 0.917969C17.918 1.69141 18 2.66406 18 3.83594C18 5.52344 17.6016 6.95313 16.8047 8.125C16.0078 9.29688 14.9062 10.3398 13.5 11.2539V14.9102C13.5 15.2148 13.4062 15.5195 13.2188 15.8242C13.0312 16.1055 12.8086 16.3047 12.5508 16.4219L9.10547 18.1445C8.98828 18.2148 8.85938 18.25 8.71875 18.25C8.48438 18.25 8.28516 18.168 8.12109 18.0039C7.95703 17.8398 7.875 17.6406 7.875 17.4062V13.75L7.10156 14.5586C6.86719 14.7695 6.59766 14.875 6.29297 14.875C5.98828 14.875 5.71875 14.7695 5.48438 14.5586L3.69141 12.7656C3.48047 12.5312 3.375 12.2617 3.375 11.957C3.375 11.6523 3.48047 11.3828 3.69141 11.1484L4.5 10.375H0.84375C0.609375 10.375 0.410156 10.293 0.246094 10.1289C0.0820313 9.96484 0 9.76562 0 9.53125C0 9.39062 0.0351562 9.26172 0.105469 9.14453L1.82812 5.66406C1.94531 5.42969 2.15625 5.21875 2.46094 5.03125C2.76562 4.84375 3.05859 4.75 3.33984 4.75H6.99609C7.88672 3.32031 8.91797 2.21875 10.0898 1.44531C11.2852 0.648437 12.7266 0.25 14.4141 0.25C15.6094 0.25 16.582 0.332031 17.332 0.496094C17.5664 0.542969 17.707 0.683594 17.7539 0.917969ZM12.4805 5.76953C12.7617 6.02734 13.1016 6.15625 13.5 6.15625C13.8984 6.15625 14.2266 6.02734 14.4844 5.76953C14.7656 5.48828 14.9062 5.14844 14.9062 4.75C14.9062 4.35156 14.7656 4.02344 14.4844 3.76562C14.2266 3.48438 13.8984 3.34375 13.5 3.34375C13.1016 3.34375 12.7617 3.48438 12.4805 3.76562C12.2227 4.02344 12.0938 4.35156 12.0938 4.75C12.0938 5.14844 12.2227 5.48828 12.4805 5.76953Z" fill="white"/>
</svg>
