<svg width="23" height="19" viewBox="0 0 23 19" fill="none" xmlns="http://www.w3.org/2000/svg">
<path d="M0 9.25C0 8.94531 0.105469 8.6875 0.316406 8.47656C0.550781 8.24219 0.820312 8.125 1.125 8.125H2.25V14.875H1.125C0.820312 14.875 0.550781 14.7695 0.316406 14.5586C0.105469 14.3242 0 14.0547 0 13.75V9.25ZM16.3125 3.625C17.0859 3.625 17.7422 3.90625 18.2812 4.46875C18.8438 5.00781 19.125 5.66406 19.125 6.4375V16C19.125 16.6094 18.9023 17.1367 18.457 17.582C18.0117 18.0273 17.4844 18.25 16.875 18.25H5.625C5.01562 18.25 4.48828 18.0273 4.04297 17.582C3.59766 17.1367 3.375 16.6094 3.375 16V6.4375C3.375 5.66406 3.64453 5.00781 4.18359 4.46875C4.74609 3.90625 5.41406 3.625 6.1875 3.625H10.125V1.375C10.125 1.07031 10.2305 0.8125 10.4414 0.601562C10.6758 0.367187 10.9453 0.25 11.25 0.25C11.5547 0.25 11.8125 0.367187 12.0234 0.601562C12.2578 0.8125 12.375 1.07031 12.375 1.375V3.625H16.3125ZM9 14.875V13.75H6.75V14.875H9ZM6.85547 10.2695C7.13672 10.5273 7.47656 10.6562 7.875 10.6562C8.27344 10.6562 8.60156 10.5273 8.85938 10.2695C9.14062 9.98828 9.28125 9.64844 9.28125 9.25C9.28125 8.85156 9.14062 8.52344 8.85938 8.26562C8.60156 7.98438 8.27344 7.84375 7.875 7.84375C7.47656 7.84375 7.13672 7.98438 6.85547 8.26562C6.59766 8.52344 6.46875 8.85156 6.46875 9.25C6.46875 9.64844 6.59766 9.98828 6.85547 10.2695ZM12.375 14.875V13.75H10.125V14.875H12.375ZM15.75 14.875V13.75H13.5V14.875H15.75ZM13.6055 10.2695C13.8867 10.5273 14.2266 10.6562 14.625 10.6562C15.0234 10.6562 15.3516 10.5273 15.6094 10.2695C15.8906 9.98828 16.0312 9.64844 16.0312 9.25C16.0312 8.85156 15.8906 8.52344 15.6094 8.26562C15.3516 7.98438 15.0234 7.84375 14.625 7.84375C14.2266 7.84375 13.8867 7.98438 13.6055 8.26562C13.3477 8.52344 13.2188 8.85156 13.2188 9.25C13.2188 9.64844 13.3477 9.98828 13.6055 10.2695ZM21.375 8.125C21.6797 8.125 21.9375 8.24219 22.1484 8.47656C22.3828 8.6875 22.5 8.94531 22.5 9.25V13.75C22.5 14.0547 22.3828 14.3242 22.1484 14.5586C21.9375 14.7695 21.6797 14.875 21.375 14.875H20.25V8.125H21.375Z" fill="white"/>
</svg>
