<svg width="23" height="14" viewBox="0 0 23 14" fill="none" xmlns="http://www.w3.org/2000/svg">
<path d="M21.8672 3.62891C22.2891 3.76953 22.5 4.03906 22.5 4.4375C22.5 4.83594 22.2891 5.10547 21.8672 5.24609L12.0586 8.23438C11.5195 8.42188 10.9805 8.42188 10.4414 8.23438L3.55078 6.125C3.10547 6.45312 2.85938 6.88672 2.8125 7.42578C3.1875 7.66016 3.375 7.97656 3.375 8.375C3.375 8.75 3.21094 9.05469 2.88281 9.28906L3.79688 13.332C3.82031 13.4961 3.77344 13.6484 3.65625 13.7891C3.5625 13.9297 3.42188 14 3.23438 14H1.26562C1.07812 14 0.925781 13.9297 0.808594 13.7891C0.714844 13.6484 0.679688 13.4961 0.703125 13.332L1.61719 9.28906C1.28906 9.05469 1.125 8.75 1.125 8.375C1.125 7.95312 1.3125 7.63672 1.6875 7.42578C1.71094 6.81641 1.92188 6.26562 2.32031 5.77344L0.632812 5.24609C0.210938 5.10547 0 4.83594 0 4.4375C0 4.03906 0.210938 3.76953 0.632812 3.62891L10.4414 0.640625C10.9805 0.453125 11.5195 0.453125 12.0586 0.640625L21.8672 3.62891ZM12.4102 9.32422L17.5078 7.77734L18 11.75C18 12.3828 17.3438 12.9219 16.0312 13.3672C14.7188 13.7891 13.125 14 11.25 14C9.375 14 7.78125 13.7891 6.46875 13.3672C5.15625 12.9219 4.5 12.3828 4.5 11.75L4.99219 7.77734L10.0898 9.32422C10.8633 9.55859 11.6367 9.55859 12.4102 9.32422Z" fill="white"/>
</svg>
