<svg width="19" height="17" viewBox="0 0 19 17" fill="none" xmlns="http://www.w3.org/2000/svg">
<path d="M6.08203 8.32031C7.16016 7.52344 8.14453 7.125 9.03516 7.125C9.92578 7.125 10.9102 7.52344 11.9883 8.32031C13.0664 9.09375 13.9688 10.043 14.6953 11.168C15.4219 12.2695 15.7852 13.2656 15.7852 14.1562C15.7852 14.7656 15.5625 15.2461 15.1172 15.5977C14.6719 15.9492 14.0508 16.125 13.2539 16.125C12.668 16.125 11.9297 15.9727 11.0391 15.668C10.1484 15.3867 9.48047 15.2461 9.03516 15.2461C8.61328 15.2461 7.94531 15.3867 7.03125 15.668C6.14062 15.9727 5.40234 16.125 4.81641 16.125C4.01953 16.125 3.39844 15.9492 2.95312 15.5977C2.50781 15.2461 2.28516 14.7656 2.28516 14.1562C2.28516 13.2656 2.64844 12.2695 3.375 11.168C4.10156 10.043 5.00391 9.09375 6.08203 8.32031ZM2.84766 5.26172C3.33984 5.58984 3.67969 6.05859 3.86719 6.66797C4.05469 7.27734 4.03125 7.85156 3.79688 8.39062C3.5625 8.90625 3.1875 9.22266 2.67188 9.33984C2.34375 9.41016 2.00391 9.38672 1.65234 9.26953C1.30078 9.12891 0.984375 8.91797 0.703125 8.63672C0.445312 8.33203 0.257812 7.98047 0.140625 7.58203C-0.046875 6.97266 -0.0234375 6.41016 0.210938 5.89453C0.445312 5.35547 0.820312 5.02734 1.33594 4.91016C1.85156 4.79297 2.35547 4.91016 2.84766 5.26172ZM8.01562 4.80469C7.78125 5.4375 7.38281 5.82422 6.82031 5.96484C6.28125 6.10547 5.74219 5.95313 5.20312 5.50781C4.6875 5.0625 4.32422 4.46484 4.11328 3.71484C3.90234 2.94141 3.91406 2.23828 4.14844 1.60547C4.38281 0.949219 4.78125 0.550781 5.34375 0.410156C5.69531 0.316406 6.04688 0.363281 6.39844 0.550781C6.77344 0.714844 7.10156 0.984375 7.38281 1.35938C7.6875 1.73438 7.91016 2.16797 8.05078 2.66016C8.26172 3.43359 8.25 4.14844 8.01562 4.80469ZM16.7344 4.91016C17.25 5.02734 17.625 5.35547 17.8594 5.89453C18.0938 6.41016 18.1172 6.97266 17.9297 7.58203C17.7422 8.19141 17.4023 8.67188 16.9102 9.02344C16.418 9.35156 15.9141 9.45703 15.3984 9.33984C14.8828 9.22266 14.5078 8.90625 14.2734 8.39062C14.0391 7.85156 14.0156 7.27734 14.2031 6.66797C14.3203 6.26953 14.5078 5.92969 14.7656 5.64844C15.0469 5.34375 15.3633 5.13281 15.7148 5.01562C16.0664 4.875 16.4062 4.83984 16.7344 4.91016ZM11.25 5.96484C10.6875 5.82422 10.2891 5.4375 10.0547 4.80469C9.82031 4.14844 9.80859 3.44531 10.0195 2.69531C10.2305 1.92188 10.5938 1.3125 11.1094 0.867188C11.6484 0.421875 12.1875 0.269531 12.7266 0.410156C13.2891 0.550781 13.6875 0.949219 13.9219 1.60547C14.1562 2.23828 14.168 2.94141 13.957 3.71484C13.8633 4.08984 13.7109 4.44141 13.5 4.76953C13.3125 5.07422 13.0898 5.33203 12.832 5.54297C12.5977 5.73047 12.3398 5.87109 12.0586 5.96484C11.7773 6.03516 11.5078 6.03516 11.25 5.96484Z" fill="white"/>
</svg>
