<svg width="450" height="177" viewBox="0 0 450 177" fill="none" xmlns="http://www.w3.org/2000/svg">
<g opacity="0.3" filter="url(#filter0_d)">
<path d="M80.3828 12.8125H114.562V110.371C114.562 119.421 112.447 127.493 108.215 134.59C104.048 141.686 98.1888 147.188 90.6367 151.094C83.1497 155 74.7839 156.953 65.5391 156.953C50.0443 156.953 38 153.047 29.4062 145.234C20.8125 137.422 16.5156 126.354 16.5156 112.031H50.8906C50.8906 118.542 51.9974 123.262 54.2109 126.191C56.4896 129.121 60.2656 130.586 65.5391 130.586C70.2917 130.586 73.9375 128.828 76.4766 125.312C79.0807 121.732 80.3828 116.751 80.3828 110.371V12.8125ZM194.25 155C193.078 152.852 192.036 149.694 191.125 145.527C185.07 153.145 176.607 156.953 165.734 156.953C155.773 156.953 147.31 153.958 140.344 147.969C133.378 141.914 129.895 134.329 129.895 125.215C129.895 113.757 134.126 105.098 142.59 99.2383C151.053 93.3789 163.358 90.4492 179.504 90.4492H189.66V84.8828C189.66 75.1823 185.461 70.332 177.062 70.332C169.25 70.332 165.344 74.1732 165.344 81.8555H132.434C132.434 71.6341 136.763 63.3333 145.422 56.9531C154.146 50.5729 165.246 47.3828 178.723 47.3828C192.199 47.3828 202.844 50.6706 210.656 57.2461C218.469 63.8216 222.473 72.8385 222.668 84.2969V131.074C222.798 140.775 224.296 148.197 227.16 153.34V155H194.25ZM173.645 133.516C177.746 133.516 181.132 132.637 183.801 130.879C186.535 129.121 188.488 127.135 189.66 124.922V108.027H180.09C168.632 108.027 162.902 113.171 162.902 123.457C162.902 126.452 163.911 128.893 165.93 130.781C167.948 132.604 170.52 133.516 173.645 133.516ZM281.555 115.84L298.254 49.3359H332.922L298.449 155H264.855L230.383 49.3359H265.148L281.555 115.84ZM400.695 155C399.523 152.852 398.482 149.694 397.57 145.527C391.516 153.145 383.052 156.953 372.18 156.953C362.219 156.953 353.755 153.958 346.789 147.969C339.823 141.914 336.34 134.329 336.34 125.215C336.34 113.757 340.572 105.098 349.035 99.2383C357.499 93.3789 369.803 90.4492 385.949 90.4492H396.105V84.8828C396.105 75.1823 391.906 70.332 383.508 70.332C375.695 70.332 371.789 74.1732 371.789 81.8555H338.879C338.879 71.6341 343.208 63.3333 351.867 56.9531C360.591 50.5729 371.691 47.3828 385.168 47.3828C398.645 47.3828 409.289 50.6706 417.102 57.2461C424.914 63.8216 428.918 72.8385 429.113 84.2969V131.074C429.243 140.775 430.741 148.197 433.605 153.34V155H400.695ZM380.09 133.516C384.191 133.516 387.577 132.637 390.246 130.879C392.98 129.121 394.934 127.135 396.105 124.922V108.027H386.535C375.077 108.027 369.348 113.171 369.348 123.457C369.348 126.452 370.357 128.893 372.375 130.781C374.393 132.604 376.965 133.516 380.09 133.516Z" fill="#FF6005"/>
</g>
<defs>
<filter id="filter0_d" x="0.515625" y="0.8125" width="449.09" height="176.141" filterUnits="userSpaceOnUse" color-interpolation-filters="sRGB">
<feFlood flood-opacity="0" result="BackgroundImageFix"/>
<feColorMatrix in="SourceAlpha" type="matrix" values="0 0 0 0 0 0 0 0 0 0 0 0 0 0 0 0 0 0 127 0"/>
<feOffset dy="4"/>
<feGaussianBlur stdDeviation="8"/>
<feColorMatrix type="matrix" values="0 0 0 0 0 0 0 0 0 0 0 0 0 0 0 0 0 0 0.8 0"/>
<feBlend mode="normal" in2="BackgroundImageFix" result="effect1_dropShadow"/>
<feBlend mode="normal" in="SourceGraphic" in2="effect1_dropShadow" result="shape"/>
</filter>
</defs>
</svg>
