<svg width="392" height="151" viewBox="0 0 392 151" fill="none" xmlns="http://www.w3.org/2000/svg">
<g opacity="0.3" filter="url(#filter0_d)">
<path d="M39.0195 94.7578V143H4.74219V0.8125H61.4805C72.3529 0.8125 81.9557 2.83073 90.2891 6.86719C98.6875 10.8385 105.165 16.5352 109.723 23.957C114.345 31.3138 116.656 39.6797 116.656 49.0547C116.656 62.9219 111.676 74.0221 101.715 82.3555C91.819 90.6237 78.2122 94.7578 60.8945 94.7578H39.0195ZM39.0195 68.293H61.4805C68.1211 68.293 73.1667 66.6328 76.6172 63.3125C80.1328 59.9922 81.8906 55.3047 81.8906 49.25C81.8906 42.6094 80.1003 37.3034 76.5195 33.332C72.9388 29.3607 68.056 27.3424 61.8711 27.2773H39.0195V68.293ZM253.863 143H219.781V83.625H169.293V143H135.016V0.8125H169.293V57.2578H219.781V0.8125H253.863V143ZM309.918 94.7578V143H275.641V0.8125H332.379C343.251 0.8125 352.854 2.83073 361.188 6.86719C369.586 10.8385 376.064 16.5352 380.621 23.957C385.243 31.3138 387.555 39.6797 387.555 49.0547C387.555 62.9219 382.574 74.0221 372.613 82.3555C362.717 90.6237 349.111 94.7578 331.793 94.7578H309.918ZM309.918 68.293H332.379C339.02 68.293 344.065 66.6328 347.516 63.3125C351.031 59.9922 352.789 55.3047 352.789 49.25C352.789 42.6094 350.999 37.3034 347.418 33.332C343.837 29.3607 338.954 27.3424 332.77 27.2773H309.918V68.293Z" fill="#0398DF"/>
</g>
<defs>
<filter id="filter0_d" x="0.742188" y="0.8125" width="390.812" height="150.188" filterUnits="userSpaceOnUse" color-interpolation-filters="sRGB">
<feFlood flood-opacity="0" result="BackgroundImageFix"/>
<feColorMatrix in="SourceAlpha" type="matrix" values="0 0 0 0 0 0 0 0 0 0 0 0 0 0 0 0 0 0 127 0"/>
<feOffset dy="4"/>
<feGaussianBlur stdDeviation="2"/>
<feColorMatrix type="matrix" values="0 0 0 0 0 0 0 0 0 0 0 0 0 0 0 0 0 0 0.8 0"/>
<feBlend mode="normal" in2="BackgroundImageFix" result="effect1_dropShadow"/>
<feBlend mode="normal" in="SourceGraphic" in2="effect1_dropShadow" result="shape"/>
</filter>
</defs>
</svg>
