<svg xmlns="http://www.w3.org/2000/svg" width="735" height="735" viewBox="0 0 735 735">
  <defs>
    <style>
      .cls-1 {
        fill: #0398df;
      }

      .cls-1, .cls-2, .cls-3, .cls-4 {
        fill-rule: evenodd;
      }

      .cls-2 {
        fill: #df0365;
      }

      .cls-3 {
        fill: #ff6005;
      }

      .cls-4 {
        fill: #ffffff;
      }
    </style>
  </defs>
  <path class="cls-1" d="M620,368s-16.046-15.652-25-24-39.91-13.75-57,4-12.789,46.054-4,56c6.6,7.467,25,26,25,26l-59,57-70-69s-24.392,21.827-28.593,26.142S388.558,457,379,457a25.975,25.975,0,0,1-18.865-43.857L360,413l32-33-70-70L500,132l59,58s-16.1,14.5-26,26c-11.508,13.356-11.781,40.132,6,57,19.7,18.691,46.9,10.254,55,2s26-24,26-24l58,59Z" transform="translate(-133 -132)"/>
  <path id="Ellipse_1_copy_2" data-name="Ellipse 1 copy 2" class="cls-2" d="M380,631s16.046,15.652,25,24,39.91,13.75,57-4,12.789-46.054,4-56c-6.6-7.467-25-26-25-26l59-57,70,69s24.371-21.92,28.593-26.142S611.442,542,621,542a25.975,25.975,0,0,1,18.865,43.857L640,586l-32,33,70,70L500,867l-59-58s16.1-14.5,26-26c11.508-13.356,11.781-40.132-6-57-19.7-18.691-46.9-10.254-55-2s-26,24-26,24l-58-59Z" transform="translate(-133 -132)"/>
  <path id="Ellipse_1_copy_4" data-name="Ellipse 1 copy 4" class="cls-3" d="M369,380s-15.652,16.046-24,25-13.75,39.91,4,57,46.054,12.789,56,4c7.467-6.6,26-25,26-25l57,59-69,70s21.8,23.791,26.142,28.593S458,611.442,458,621a25.975,25.975,0,0,1-43.857,18.865L414,640l-33-32-70,70L133,500l58-59s14.5,16.1,26,26c13.356,11.508,40.132,11.781,57-6,18.691-19.7,10.254-46.9,2-55s-24-26-24-26l59-58Z" transform="translate(-133 -132)"/>
  <path id="Ellipse_1_copy_3" data-name="Ellipse 1 copy 3" class="cls-4" d="M632,620s15.652-16.046,24-25,13.75-39.91-4-57-46.054-12.789-56-4c-7.467,6.6-26,25-26,25l-57-59,69-70s-21.833-23.83-26.142-28.593S543,388.558,543,379a25.975,25.975,0,0,1,43.857-18.865L587,360l33,32,70-70L868,500l-58,59s-14.5-16.1-26-26c-13.356-11.508-40.132-11.781-57,6-18.691,19.7-10.254,46.9-2,55s24,26,24,26l-59,58Z" transform="translate(-133 -132)"/>
</svg>
