<svg xmlns="http://www.w3.org/2000/svg" width="386.094" height="694" viewBox="0 0 386.094 694">
  <defs>
    <style>
      .cls-1 {
        fill: #ede1ff;
      }

      .cls-1, .cls-2, .cls-3, .cls-4, .cls-5 {
        fill-rule: evenodd;
      }

      .cls-2 {
        fill: #822fff;
        opacity: 0.99;
      }

      .cls-3 {
        fill: #ff6005;
      }

      .cls-4 {
        fill: #df0365;
      }

      .cls-5 {
        fill: #0398df;
      }
    </style>
  </defs>
  <path class="cls-1" d="M361.476,551c-19.589-159.287,29.386-271.512,77.985-336.979C436.623,217.905,486.333,153,500.052,153s63.429,64.905,60.591,61.021c48.6,65.467,97.574,177.692,77.985,336.979H361.476Z" transform="translate(-306.906 -153)"/>
  <path id="Shape_1_copy_6" data-name="Shape 1 copy 6" class="cls-2" d="M586.5,744.062c-15.19-14-38.916-22.28-53.2-23.244C533.3,677.661,536.666,579,500,579s-33.2,101.12-33.2,141.818c-14.282.964-38.008,9.241-53.2,23.244C370.591,638.32,355.538,546.66,357.182,469h66.149a76.987,76.987,0,0,0,153.338,0h66.252C644.566,546.66,629.513,638.32,586.5,744.062Z" transform="translate(-306.906 -153)"/>
  <path class="cls-3" d="M386.516,312a402.475,402.475,0,0,1,52.945-97.979C436.623,217.905,486.333,153,500.052,153s63.429,64.905,60.591,61.021A402.475,402.475,0,0,1,613.588,312H386.516Z" transform="translate(-306.906 -153)"/>
  <path id="Shape_1_copy_2" data-name="Shape 1 copy 2" class="cls-4" d="M500.052,847c-10.892,0-26.6-114.693-26.6-166.028,0-23.265,7.033-89.657,26.6-89.657s26.6,66.392,26.6,89.657C526.651,732.307,510.943,847,500.052,847Z" transform="translate(-306.906 -153)"/>
  <path class="cls-4" d="M403.63,750.7c-20,14.127-55.8,59.658-63.173,96.3-19.431-29.043-74.224-138.7,19.949-239.082C366.681,657.518,390.223,725.677,403.63,750.7Z" transform="translate(-306.906 -153)"/>
  <path id="Shape_1_copy_3" data-name="Shape 1 copy 3" class="cls-4" d="M596.474,750.7c19.954,14.127,55.676,59.658,63.037,96.3,19.389-29.043,74.064-138.7-19.906-239.082C633.343,657.518,609.852,725.677,596.474,750.7Z" transform="translate(-306.906 -153)"/>
  <path id="Shape_1_copy_4" data-name="Shape 1 copy 4" class="cls-5" d="M500.052,408.684a53.13,53.13,0,1,1-53.2,53.129A53.163,53.163,0,0,1,500.052,408.684Z" transform="translate(-306.906 -153)"/>
</svg>
