<?xml version="1.0" encoding="utf-8"?>
<!-- Generator: Adobe Illustrator 19.0.0, SVG Export Plug-In . SVG Version: 6.00 Build 0)  -->
<svg version="1.1" id="Layer_1" xmlns="http://www.w3.org/2000/svg" xmlns:xlink="http://www.w3.org/1999/xlink" x="0px" y="0px"
	 viewBox="-284 376 42 42" style="enable-background:new -284 376 42 42;" xml:space="preserve">
<style type="text/css">
	.st0{fill:#6600FF;}
</style>
<path class="st0" d="M-266.5,391.9l8.9,5.1l-8.9,5.1V391.9z M-242,380.5v33c0,1.2-0.4,2.3-1.3,3.2s-1.9,1.3-3.2,1.3h-33
	c-1.2,0-2.3-0.4-3.2-1.3s-1.3-1.9-1.3-3.2v-33c0-1.2,0.4-2.3,1.3-3.2s1.9-1.3,3.2-1.3h33c1.2,0,2.3,0.4,3.2,1.3
	S-242,379.2-242,380.5z M-245.9,397c0-3.7-0.2-6.4-0.8-8.2c-0.4-1.6-1.4-2.6-3-3c-0.8-0.2-2.2-0.4-4.5-0.6c-2.2-0.1-4.2-0.2-6.1-0.2
	h-2.7c-7.1,0-11.6,0.2-13.3,0.8c-1.6,0.4-2.6,1.4-3,3c-0.2,0.8-0.4,1.9-0.6,3.3s-0.2,2.6-0.2,3.6v1.4c0,3.8,0.2,6.5,0.8,8.2
	c0.4,1.6,1.4,2.6,3,3c0.8,0.2,2.2,0.4,4.4,0.6c2.2,0.1,4.3,0.2,6.2,0.2h2.7c7.1,0,11.6-0.2,13.3-0.8c1.6-0.4,2.6-1.4,3-3
	c0.2-0.8,0.4-1.8,0.6-3.2s0.2-2.6,0.2-3.6V397z"/>
</svg>
