<svg width="71" height="71" viewBox="0 0 71 71" fill="none" xmlns="http://www.w3.org/2000/svg">
<g clip-path="url(#clip0)">
<path d="M34.1674 38.1571L14.8897 32.5844L13.6892 33.5257V42.1859C13.6892 43.6003 14.3803 44.9236 15.5391 45.7346C18.0711 47.5071 23.632 50.0371 34.7468 50.0371C45.8619 50.0371 51.4239 47.5069 53.9568 45.7345C55.1158 44.9234 55.8072 43.6001 55.8072 42.1853V33.9602L54.4511 33.0638C46.5054 35.3607 39.9083 37.2678 36.8309 38.1573C35.9605 38.4089 35.0377 38.4086 34.1674 38.1571Z" fill="#2D4456"/>
<path d="M66.6984 44.7239C66.1054 44.7239 65.6248 44.2433 65.6248 43.6503V25.8404C65.6248 25.2475 66.1054 24.7668 66.6984 24.7668C67.2913 24.7668 67.772 25.2475 67.772 25.8404V43.6503C67.772 44.2433 67.2913 44.7239 66.6984 44.7239Z" fill="#FFBE7C"/>
<path d="M13.6892 30.9491V33.5256L34.1674 39.4454C35.0377 39.697 35.9616 39.697 36.832 39.4454L55.8072 33.9602V31.3835L13.6892 30.9491Z" fill="#253847"/>
<path d="M34.7466 47.8431C17.6393 47.8431 13.689 41.8496 13.689 41.8496V47.3391C13.689 48.7535 14.3801 50.0767 15.5388 50.8878C18.0709 52.6603 23.6317 55.1903 34.7466 55.1903C45.8617 55.1903 51.4238 52.6601 53.9565 50.8877C55.1155 50.0766 55.8069 48.7532 55.8069 47.3385V41.8496C55.8069 41.8496 51.8538 47.8431 34.7466 47.8431Z" fill="#86DCFF"/>
<path d="M53.9565 49.5994C51.4237 51.3719 45.8617 53.9022 34.7466 53.9022C23.6319 53.9022 18.071 51.3722 15.5388 49.5997C14.3801 48.7885 13.689 47.4654 13.689 46.051V48.6276C13.689 50.0421 14.3801 51.3653 15.5388 52.1764C18.0709 53.9489 23.6317 56.4788 34.7466 56.4788C45.8617 56.4788 51.4237 53.9487 53.9565 52.1762C55.1155 51.3652 55.8069 50.0418 55.8069 48.6271V46.0504C55.8069 47.465 55.1157 48.7882 53.9565 49.5994Z" fill="white"/>
<path d="M1.15482 24.2531L34.1675 14.71C35.0378 14.4585 35.9616 14.4585 36.832 14.71L69.8447 24.2531C71.3848 24.6983 71.3848 26.8806 69.8447 27.3257L36.832 36.8688C35.9617 37.1204 35.0379 37.1204 34.1675 36.8688L1.15482 27.3257C-0.385267 26.8804 -0.385267 24.6983 1.15482 24.2531Z" fill="#405B6C"/>
</g>
<defs>
<clipPath id="clip0">
<rect width="71" height="71" fill="white"/>
</clipPath>
</defs>
</svg>
