<svg width="60" height="60" viewBox="0 0 60 60" fill="none" xmlns="http://www.w3.org/2000/svg">
<g clip-path="url(#clip0)">
<path d="M25.6104 55.2601L29.9852 54.0708L34.36 55.2601V55.6251C34.36 58.0412 32.4014 59.9999 29.9852 59.9999C27.569 59.9999 25.6104 58.0412 25.6104 55.6251V55.2601Z" fill="#60B7FF"/>
<path d="M33.2082 55.2601H25.5739C24.7126 55.2601 24.0144 54.5619 24.0144 53.7006V43.3175L29.9857 42.1282L34.7678 43.3175V53.7006C34.7679 54.5619 34.0697 55.2601 33.2082 55.2601Z" fill="#C4E2FF"/>
<path d="M32.7456 42.8145V53.7005C32.7456 54.5618 32.0473 55.26 31.186 55.26H34.3971C35.2584 55.26 35.9568 54.5618 35.9568 53.7005V43.3173L32.7456 42.8145Z" fill="#8AC9FE"/>
<path d="M30.0006 5.78735C29.508 5.78735 29.1086 5.38799 29.1086 4.89538V0.891972C29.1086 0.399366 29.508 0 30.0006 0C30.4933 0 30.8926 0.399366 30.8926 0.891972V4.89538C30.8926 5.38799 30.4932 5.78735 30.0006 5.78735Z" fill="#FED402"/>
<path d="M43.3381 11.3122C43.1099 11.3122 42.8815 11.2251 42.7073 11.0509C42.359 10.7026 42.359 10.1378 42.7073 9.78953L45.5382 6.95865C45.8866 6.6103 46.4513 6.6103 46.7997 6.95865C47.148 7.30699 47.148 7.87179 46.7997 8.22001L43.9689 11.0509C43.7947 11.2251 43.5663 11.3122 43.3381 11.3122Z" fill="#FED402"/>
<path d="M13.8314 40.8196C13.6032 40.8196 13.3748 40.7325 13.2007 40.5583C12.8524 40.21 12.8524 39.6452 13.2007 39.2969L16.0316 36.466C16.3799 36.1177 16.9447 36.1177 17.2931 36.466C17.6414 36.8144 17.6414 37.3792 17.2931 37.7274L14.4622 40.5583C14.288 40.7325 14.0596 40.8196 13.8314 40.8196Z" fill="#FED402"/>
<path d="M16.6623 11.3122C16.4341 11.3122 16.2057 11.2251 16.0316 11.0509L13.2007 8.22001C12.8524 7.87167 12.8524 7.30687 13.2007 6.95865C13.5491 6.6103 14.1139 6.6103 14.4621 6.95865L17.293 9.78953C17.6413 10.1379 17.6413 10.7027 17.293 11.0509C17.1189 11.2251 16.8905 11.3122 16.6623 11.3122Z" fill="#FED402"/>
<path d="M46.169 40.8195C45.9406 40.8195 45.7124 40.7324 45.5382 40.5582L42.7073 37.7273C42.359 37.3789 42.359 36.8141 42.7073 36.4659C43.0558 36.1175 43.6204 36.1176 43.9688 36.4659L46.7997 39.2968C47.148 39.6451 47.148 40.2099 46.7997 40.5582C46.6256 40.7324 46.3972 40.8195 46.169 40.8195Z" fill="#FED402"/>
<path d="M11.1373 24.6504H7.13392C6.64131 24.6504 6.24194 24.2511 6.24194 23.7584C6.24194 23.2658 6.64131 22.8665 7.13392 22.8665H11.1373C11.6299 22.8665 12.0293 23.2658 12.0293 23.7584C12.0293 24.2511 11.6299 24.6504 11.1373 24.6504Z" fill="#FED402"/>
<path d="M52.8672 24.6504H48.8636C48.371 24.6504 47.9717 24.2511 47.9717 23.7584C47.9717 23.2658 48.371 22.8665 48.8636 22.8665H52.8672C53.3599 22.8665 53.7591 23.2658 53.7591 23.7584C53.7591 24.2511 53.3599 24.6504 52.8672 24.6504Z" fill="#FED402"/>
<path d="M44.2431 23.7584C44.2431 15.301 38.629 8.43269 30.1965 8.32768C21.6824 8.22159 14.5684 15.2437 14.5684 23.7584C14.5684 28.3233 16.5506 32.4248 19.7011 35.25C21.9848 37.298 23.4736 40.0857 23.9796 43.111L24.0141 43.3173H35.9569L35.986 43.1428C36.5009 40.0646 36.8819 37.2768 39.1908 35.177C42.2945 32.3546 44.2431 28.2843 44.2431 23.7584Z" fill="#FED402"/>
<path d="M37.1715 48.1904H22.83C22.3374 48.1904 21.938 47.791 21.938 47.2984C21.938 46.8058 22.3374 46.4064 22.83 46.4064H37.1715C37.6642 46.4064 38.0634 46.8058 38.0634 47.2984C38.0634 47.791 37.6641 48.1904 37.1715 48.1904Z" fill="#60B7FF"/>
<path d="M37.1715 52.1711H22.83C22.3374 52.1711 21.938 51.7717 21.938 51.2791C21.938 50.7865 22.3374 50.3871 22.83 50.3871H37.1715C37.6642 50.3871 38.0634 50.7865 38.0634 51.2791C38.0634 51.7718 37.6641 52.1711 37.1715 52.1711Z" fill="#60B7FF"/>
<path d="M30.1966 8.32768C29.5934 8.32019 28.9976 8.34968 28.4104 8.41164C36.1711 9.22191 42.2213 15.7831 42.2213 23.7584C42.2213 28.2843 40.2728 32.3546 37.1691 35.1771C34.8602 37.2769 33.2898 40.0647 32.775 43.1429L32.7459 43.3174H35.957L35.9861 43.1429C36.5009 40.0648 38.0713 37.2769 40.3802 35.1771C43.4839 32.3546 45.4324 28.2843 45.4324 23.7584C45.4324 15.3011 38.6291 8.4327 30.1966 8.32768Z" fill="#FAC600"/>
<path d="M40.4243 25.0535V22.4633C40.4243 22.1349 40.158 21.8686 39.8297 21.8686H37.3864C37.2051 21.158 36.9237 20.4876 36.5585 19.8726L38.2869 18.1442C38.5192 17.9119 38.5192 17.5355 38.2869 17.3033L36.4554 15.4717C36.2231 15.2395 35.8467 15.2395 35.6144 15.4717L33.886 17.2001C33.271 16.835 32.6006 16.5536 31.89 16.3724V13.929C31.89 13.6006 31.6238 13.3343 31.2954 13.3343H28.7051C28.3767 13.3343 28.1104 13.6006 28.1104 13.929V16.3723C27.3998 16.5535 26.7294 16.8349 26.1145 17.2L24.386 15.4716C24.1538 15.2394 23.7774 15.2394 23.5451 15.4716L21.7136 17.3031C21.4813 17.5354 21.4813 17.9118 21.7136 18.1441L23.442 19.8725C23.0769 20.4875 22.7955 21.1579 22.6141 21.8685H20.1708C19.8425 21.8685 19.5762 22.1348 19.5762 22.4631V25.0534C19.5762 25.3818 19.8425 25.6481 20.1708 25.6481H22.6141C22.7954 26.3587 23.0767 27.0291 23.442 27.6441L21.7136 29.3725C21.4813 29.6047 21.4813 29.9812 21.7136 30.2134L23.5451 32.0449C23.7774 32.2772 24.1538 32.2772 24.386 32.0449L26.1145 30.3165C26.7294 30.6816 27.3998 30.963 28.1104 31.1443V33.5876C28.1104 33.9159 28.3767 34.1822 28.7051 34.1822H31.2954C31.6238 34.1822 31.89 33.9159 31.89 33.5876V31.1443C32.6006 30.963 33.271 30.6816 33.886 30.3164L35.6144 32.0448C35.8467 32.2771 36.2231 32.2771 36.4554 32.0448L38.2869 30.2133C38.5192 29.981 38.5192 29.6046 38.2869 29.3724L36.5585 27.6439C36.9236 27.029 37.205 26.3586 37.3864 25.648H39.8297C40.158 25.6482 40.4243 25.3819 40.4243 25.0535ZM30.0002 27.4415C27.9661 27.4415 26.3171 25.7926 26.3171 23.7584C26.3171 21.7242 27.9661 20.0753 30.0002 20.0753C32.0344 20.0753 33.6834 21.7242 33.6834 23.7584C33.6834 25.7926 32.0343 27.4415 30.0002 27.4415Z" fill="#EFEDEF"/>
</g>
<defs>
<clipPath id="clip0">
<rect width="60" height="60" fill="white"/>
</clipPath>
</defs>
</svg>
