<svg width="50" height="50" viewBox="0 0 50 50" fill="none" xmlns="http://www.w3.org/2000/svg">
<g clip-path="url(#clip0)">
<path d="M36.1956 36.1951V45.6732H25.5538V36.1951H36.1956Z" fill="#46CC8D"/>
<path d="M34.9922 36.1951V38.0805H26.0453V36.1951H34.9922Z" fill="#00C27A"/>
<path d="M32.2816 43.5056C33.463 43.8631 34.7004 43.1468 34.9787 41.9443L35.0042 48.0779C35.0042 49.1394 35.8646 49.9998 36.9261 49.9998C37.9875 49.9998 38.8479 49.1394 38.8479 48.0779L38.8467 47.3956C38.9819 48.3246 39.7796 49.0389 40.7461 49.0389C41.8075 49.0389 42.668 48.1784 42.668 47.117L42.6643 45.4803C42.7741 46.4373 43.5859 47.1809 44.5725 47.1809C45.6339 47.1809 46.4943 46.3204 46.4943 45.259V43.1504C46.4943 44.1183 47.279 44.9029 48.2469 44.9029C49.2147 44.9029 49.9994 44.1183 49.9994 43.1504V34.8563C49.9994 33.8576 49.5665 32.908 48.8126 32.2529L46.8598 30.5563C46.1059 29.9014 45.6728 28.9517 45.6728 27.9529V22.7539H36.1947V27.9115C36.1947 29.0616 35.6215 30.1359 34.6661 30.7763L33.1103 31.8189C32.2722 32.3808 31.7221 33.2814 31.605 34.2837L30.8247 40.9651C30.5609 42.0642 31.1999 43.1782 32.2816 43.5056Z" fill="#FED2A4"/>
<path d="M34.9792 41.944C34.7009 43.1461 33.4636 43.8629 32.282 43.5055C31.8845 43.3854 31.5476 43.1598 31.2927 42.8668C32.238 42.8434 33.0925 42.1891 33.3181 41.2145L33.7095 36.6967C33.7488 36.2433 34.1283 35.8953 34.5833 35.8953C35.1001 35.8953 35.5049 36.3398 35.4567 36.8543L34.9792 41.944Z" fill="#FFBD86"/>
<path d="M49.9995 34.8564V43.1503C49.9995 43.1935 49.998 43.2365 49.9948 43.2796C49.9614 43.737 49.7442 44.1695 49.3989 44.4711C49.0132 44.8081 48.4372 44.9852 47.9312 44.8739C47.7195 44.8275 47.5111 44.7623 47.3277 44.6425C47.3247 44.6405 47.3218 44.6396 47.3198 44.6376C47.3169 44.6366 47.314 44.6347 47.312 44.6318C47.8013 44.3212 48.1284 43.7743 48.1284 43.1503V35.955C48.1284 34.9569 47.6948 34.0067 46.9409 33.3524L44.9878 31.6552C44.2339 30.9999 43.8013 30.0517 43.8013 29.0517V22.7539H45.6733V27.9531C45.6733 28.0781 45.6802 28.2022 45.6929 28.3254C45.7561 28.9374 46.0047 29.5653 46.3843 30.0498C46.5303 30.2362 46.6825 30.4015 46.8599 30.5557L48.813 32.2529C49.5669 32.9082 49.9995 33.8574 49.9995 34.8564Z" fill="#FFBD86"/>
<path d="M36.1946 15.0076H45.6727V23.9544H36.1946V15.0076Z" fill="#FE4FB7"/>
<path d="M43.7874 15.0076H45.6728V23.9544H43.7874V15.0076Z" fill="#FE2AA8"/>
<path d="M38.8486 48.0791C38.8486 48.6104 38.6338 49.0908 38.2861 49.4385C37.9375 49.7861 37.457 50.001 36.9268 50.001C36.5908 50.001 36.2754 49.915 36.001 49.7637C35.9893 49.7559 35.9775 49.748 35.9658 49.7412C36.1123 49.6592 36.2441 49.5566 36.3633 49.4385C36.7109 49.0898 36.9258 48.6094 36.9258 48.0791L36.9365 41.7383C36.9375 41.2109 37.3652 40.7842 37.8916 40.7842H37.9043C38.4336 40.7842 38.8613 41.2129 38.8603 41.7412L38.8486 48.0791Z" fill="#FFBD86"/>
<path d="M42.668 47.1169C42.668 48.1746 41.8135 49.033 40.7568 49.0388H40.7461C40.7246 49.0388 40.7031 49.0388 40.6816 49.0378C40.6641 49.0369 40.6465 49.0359 40.6299 49.0349H40.624C40.3242 49.0134 40.042 48.9226 39.7949 48.7791C40.3682 48.449 40.7549 47.8279 40.7549 47.1169L40.7646 41.7312C40.7656 41.2039 41.1934 40.7781 41.7207 40.7781H41.7324C42.2617 40.7781 42.6894 41.2068 42.6885 41.7361L42.668 47.1169Z" fill="#FFBD86"/>
<path d="M46.4988 41.7332L46.4949 45.2585C46.4949 45.7888 46.28 46.2693 45.9324 46.6179C45.5837 46.9656 45.1033 47.1804 44.573 47.1804C44.238 47.1804 43.9236 47.0955 43.6501 46.9441C43.6492 46.9441 43.6482 46.9441 43.6472 46.9431C43.6472 46.9421 43.6462 46.9421 43.6462 46.9421C43.6443 46.9412 43.6433 46.9412 43.6423 46.9392C43.6326 46.9333 43.6238 46.9275 43.614 46.9216C44.1882 46.5896 44.574 45.9695 44.574 45.2595V41.7332C44.574 41.2058 45.0017 40.7781 45.53 40.7781H45.5427C46.071 40.7781 46.4988 41.2058 46.4988 41.7332Z" fill="#FFBD86"/>
<path d="M43.5057 17.718C43.8632 16.5367 43.1469 15.2993 41.9445 15.0209L48.0781 14.9955C49.1395 14.9955 49.9999 14.135 49.9999 13.0736C49.9999 12.0122 49.1395 11.1517 48.0781 11.1517L47.3958 11.153C48.3248 11.0177 49.039 10.2201 49.039 9.25356C49.039 8.19214 48.1786 7.33169 47.1171 7.33169L45.4804 7.3354C46.4374 7.22554 47.181 6.41372 47.181 5.4272C47.181 4.36577 46.3206 3.50532 45.2591 3.50532H43.1505C44.1184 3.50532 44.9031 2.72065 44.9031 1.75278C44.9031 0.784912 44.1184 0.000244141 43.1505 0.000244141H34.8565C33.8578 0.000244141 32.9082 0.433154 32.2531 1.18706L30.5565 3.13989C29.9015 3.8938 28.9518 4.32681 27.9531 4.32681H23.0144V13.8049H27.9117C29.0618 13.8049 30.1361 14.3782 30.7764 15.3335L31.8191 16.8893C32.3809 17.7275 33.2816 18.2776 34.2838 18.3947L40.9653 19.175C42.0643 19.4386 43.1783 18.7998 43.5057 17.718Z" fill="#D88A55"/>
<path d="M50.0002 13.0728C50.0002 14.1343 49.1399 14.9946 48.0784 14.9946L46.6096 15.0005L41.9758 15.0073C41.4631 15.0083 41.0461 14.5923 41.0461 14.0786V14.0669C41.0461 13.5542 41.4612 13.1392 41.9729 13.1382L48.1331 13.1284C48.6487 13.1284 49.1155 12.9194 49.4534 12.5815C49.5491 12.4858 49.7073 12.3501 49.804 12.2251C49.9299 12.481 50.0002 12.769 50.0002 13.0728Z" fill="#C57A44"/>
<path d="M49.0388 9.25342C49.0388 10.1196 48.4636 10.8511 47.6746 11.0903C47.5281 11.1274 47.3748 11.147 47.2175 11.147L41.99 11.1567C41.4763 11.1577 41.0593 10.7417 41.0593 10.228V10.2163C41.0593 9.70459 41.4744 9.28857 41.9861 9.2876L47.2175 9.27783C47.9001 9.27783 48.4978 8.91162 48.821 8.36377C48.9607 8.62939 49.0388 8.93213 49.0388 9.25342Z" fill="#C57A44"/>
<path d="M47.1809 5.42651C47.1809 6.34937 46.5315 7.1189 45.6643 7.30444C45.6624 7.30542 45.6594 7.30542 45.6575 7.3064C45.5481 7.32593 45.4348 7.33569 45.3206 7.33569H41.9407C41.428 7.33569 41.0129 6.92065 41.0129 6.40796V6.39429C41.0129 5.88159 41.428 5.46558 41.9407 5.46558H45.3655C46.0481 5.46558 46.6457 5.09839 46.97 4.55054C47.1047 4.81323 47.1809 5.11108 47.1809 5.42651Z" fill="#C57A44"/>
<path d="M44.9036 1.75269C44.9036 2.68628 44.1721 3.44995 43.2512 3.50171L41.9543 3.50464C41.4368 3.51245 41.0129 3.09448 41.0129 2.57691C41.0129 2.06323 41.429 1.64819 41.9417 1.64819H43.2834C43.8616 1.64819 44.3782 1.3855 44.72 0.971436C44.8372 1.20679 44.9036 1.47241 44.9036 1.75269Z" fill="#C57A44"/>
<path d="M40.9655 19.1744L34.2835 18.3948C33.2817 18.2771 32.3805 17.7269 31.8193 16.8885L30.7766 15.3334C30.1356 14.3775 29.0621 13.8042 27.9117 13.8042H23.0144V11.9192H29.1433C30.2937 11.9192 31.3683 12.4923 32.0083 13.4474L33.0509 15.0035C33.6131 15.8418 34.9325 16.392 35.9343 16.5087L40.9655 17.2893C41.9494 17.5246 42.9453 17.0371 43.3779 16.1559C43.6082 16.6234 43.669 17.1767 43.5054 17.718C43.1785 18.7995 42.064 19.4385 40.9655 19.1744Z" fill="#C57A44"/>
<path d="M14.311 13.8049V4.32681H23.9545V13.8049H14.311Z" fill="#5F99D7"/>
<path d="M14.3113 13.8049V11.9195H23.9547V13.8049H14.3113Z" fill="#3C87D0"/>
<path d="M17.7188 6.49521C16.5374 6.1377 15.3 6.854 15.0217 8.05645L14.9962 1.92285C14.9962 0.861426 14.1357 0.000976562 13.0743 0.000976562C12.0129 0.000976562 11.1524 0.861426 11.1524 1.92285L11.1537 2.60518C11.0185 1.67617 10.2208 0.961914 9.2543 0.961914C8.19287 0.961914 7.33242 1.82236 7.33242 2.88379L7.33613 4.52051C7.22627 3.56348 6.41445 2.81992 5.42793 2.81992C4.3665 2.81992 3.50606 3.68037 3.50606 4.7418V6.85039C3.50606 5.88252 2.72139 5.09785 1.75352 5.09785C0.785645 5.09785 0.000976562 5.88252 0.000976562 6.85039V15.1444C0.000976562 16.1432 0.433887 17.0928 1.18779 17.7479L3.14063 19.4444C3.89453 20.0994 4.32754 21.0491 4.32754 22.0479V27.1167H13.8057V22.0893C13.8057 20.9392 14.3789 19.8648 15.3343 19.2245L16.89 18.1818C17.7282 17.62 18.2783 16.7193 18.3954 15.7171L19.1757 9.03564C19.4394 7.93662 18.8005 6.82256 17.7188 6.49521Z" fill="#FFCEBF"/>
<path d="M19.1749 9.03471L18.3953 15.7166C18.2776 16.7185 17.7274 17.6197 16.889 18.1809L15.3339 19.2236C14.378 19.8646 13.8047 20.9381 13.8047 22.0885V27.116H11.9197V20.857C11.9197 19.7066 12.4928 18.632 13.4479 17.992L15.004 16.9494C15.8423 16.3872 16.3925 15.0678 16.5092 14.066L17.2898 9.03481C17.525 8.05092 17.0375 7.05502 16.1564 6.62241C16.6239 6.39213 17.1772 6.33129 17.7185 6.49487C18.8 6.82162 19.439 7.93617 19.1749 9.03471Z" fill="#FFB09E"/>
<path d="M13.8047 36.4419H4.32656V26.0454H13.8047V36.4419Z" fill="#FF9900"/>
<path d="M13.8047 36.4419H11.9192V26.0454H13.8047V36.4419Z" fill="#FF9900"/>
<path d="M6.49521 32.2819C6.1377 33.4632 6.854 34.7006 8.05645 34.9789L1.92285 35.0044C0.861426 35.0044 0.000976562 35.8649 0.000976562 36.9263C0.000976562 37.9877 0.861426 38.8482 1.92285 38.8482L2.60518 38.8469C1.67617 38.9821 0.961914 39.7798 0.961914 40.7463C0.961914 41.8077 1.82236 42.6682 2.88379 42.6682L4.52051 42.6645C3.56348 42.7743 2.81992 43.5862 2.81992 44.5727C2.81992 45.6341 3.68037 46.4945 4.7418 46.4945H6.85039C5.88252 46.4945 5.09785 47.2792 5.09785 48.2471C5.09785 49.215 5.88252 49.9996 6.85039 49.9996H15.1444C16.1432 49.9996 17.0928 49.5667 17.7479 48.8128L19.4444 46.86C20.0994 46.1061 21.0491 45.6731 22.0479 45.6731H26.0463V36.1949H22.0894C20.9393 36.1949 19.8649 35.6217 19.2246 34.6663L18.1819 33.1106C17.6201 32.2724 16.7194 31.7223 15.7172 31.6052L9.03574 30.8249C7.93662 30.5612 6.82266 31.2001 6.49521 32.2819Z" fill="#F6A96C"/>
<path d="M9.03432 30.8253L15.7163 31.6049C16.7181 31.7225 17.6193 32.2728 18.1805 33.1112L19.2232 34.6663C19.8642 35.6222 20.9377 36.1955 22.0881 36.1955H26.0453V38.0805H20.8565C19.7061 38.0805 18.6315 37.5073 17.9915 36.5523L16.9489 34.9962C16.3867 34.1579 15.0673 33.6077 14.0655 33.491L9.03432 32.7104C8.05043 32.4751 7.05453 32.9626 6.62192 33.8438C6.39164 33.3763 6.3308 32.823 6.49438 32.2817C6.82133 31.2002 7.93578 30.5612 9.03432 30.8253Z" fill="#EA9B58"/>
<path d="M9.21689 35.9633C9.21689 36.4905 8.79014 36.918 8.26299 36.9191L1.92197 36.9292C1.39121 36.9292 0.910742 37.1444 0.562891 37.4921C0.444238 37.6108 0.341699 37.7434 0.259277 37.8892C0.0945312 37.6058 0 37.2771 0 36.9263C0 36.3956 0.215137 35.9151 0.562891 35.5672C0.910742 35.2194 1.39121 35.0042 1.92197 35.0042L8.25937 34.9949C8.78789 34.9939 9.21689 35.4221 9.21689 35.9506V35.9633Z" fill="#EA9B58"/>
<path d="M9.22212 39.7709V39.7834C9.22212 40.3104 8.79556 40.7379 8.2686 40.7392L2.88325 40.7491C2.17251 40.7491 1.55132 41.1351 1.22056 41.709C1.05571 41.4255 0.961182 41.0968 0.961182 40.747C0.961182 39.6855 1.82163 38.825 2.88315 38.825L8.26411 38.8152C8.79282 38.814 9.22212 39.2422 9.22212 39.7709Z" fill="#EA9B58"/>
<path d="M9.22215 43.6064V43.62C9.22215 44.1478 8.79422 44.5757 8.26639 44.5757H4.7409C4.03016 44.5757 3.40994 44.9618 3.0782 45.5357C2.90057 45.2283 2.80437 44.8677 2.82186 44.4835C2.86883 43.4497 3.75291 42.6506 4.78777 42.6506H8.26629C8.79422 42.6506 9.22215 43.0786 9.22215 43.6064Z" fill="#EA9B58"/>
<path d="M9.22583 47.4472C9.22583 47.975 8.7979 48.403 8.27007 48.403H6.88872C6.26245 48.403 5.70659 48.7025 5.35679 49.1669C5.19292 48.8995 5.09741 48.5849 5.09741 48.2471C5.09741 47.279 5.88149 46.495 6.84956 46.495L8.25669 46.4916C8.7897 46.484 9.22583 46.9141 9.22583 47.4472Z" fill="#EA9B58"/>
<path d="M14.0388 9.21699C13.5116 9.21699 13.0841 8.79023 13.083 8.26309L13.0729 1.92207C13.0729 1.39131 12.8577 0.91084 12.5099 0.562988C12.3912 0.444336 12.2586 0.341797 12.1128 0.259375C12.3963 0.0945312 12.725 0 13.0758 0C13.6065 0 14.087 0.215137 14.4349 0.562891C14.7827 0.910742 14.9978 1.39121 14.9978 1.92197L15.0072 8.25937C15.0082 8.78789 14.58 9.21689 14.0515 9.21689H14.0388V9.21699Z" fill="#FFB09E"/>
<path d="M10.2313 9.22236H10.2188C9.69185 9.22236 9.26431 8.7958 9.26304 8.26885L9.25317 2.8835C9.25317 2.17275 8.86714 1.55156 8.29321 1.2208C8.57671 1.05596 8.90542 0.961426 9.25522 0.961426C10.3167 0.961426 11.1772 1.82187 11.1772 2.8834L11.1871 8.26436C11.1883 8.79307 10.76 9.22236 10.2313 9.22236Z" fill="#FFB09E"/>
<path d="M6.39585 9.22215H6.38228C5.85444 9.22215 5.42651 8.79422 5.42651 8.26639V4.7409C5.42651 4.03016 5.04048 3.40994 4.46655 3.0782C4.77397 2.90057 5.13452 2.80437 5.5188 2.82186C6.55259 2.86883 7.35161 3.75291 7.35161 4.78777V8.26629C7.35161 8.79422 6.92368 9.22215 6.39585 9.22215Z" fill="#FFB09E"/>
<path d="M2.55517 9.22583C2.02734 9.22583 1.59941 8.7979 1.59941 8.27007V6.88872C1.59941 6.26245 1.2999 5.70659 0.835449 5.35679C1.10283 5.19292 1.41748 5.09741 1.75527 5.09741C2.72334 5.09741 3.50742 5.88149 3.50742 6.84956L3.51084 8.25669C3.51826 8.7897 3.08828 9.22583 2.55517 9.22583Z" fill="#FFB09E"/>
</g>
<defs>
<clipPath id="clip0">
<rect width="50" height="50" fill="white"/>
</clipPath>
</defs>
</svg>
