<svg width="63" height="63" viewBox="0 0 63 63" fill="none" xmlns="http://www.w3.org/2000/svg">
<g clip-path="url(#clip0)">
<path d="M27.2757 53.6946C25.5752 53.6946 24.1914 52.3113 24.1914 50.6107C24.1914 48.9097 25.5752 47.5264 27.2757 47.5264H60.4302V53.6946H27.2757Z" fill="#DDF5FF"/>
<path d="M58.3738 47.5264V50.3536C58.3738 51.0635 57.7985 51.6388 57.089 51.6388H24.3687C24.7926 52.8352 25.9356 53.6951 27.2756 53.6951H60.43V47.5268H58.3738V47.5264Z" fill="#C1E9F4"/>
<path d="M27.2756 53.6947C25.5928 53.6947 24.2206 52.3397 24.1917 50.6637C24.1629 48.9386 25.6202 47.5265 27.3458 47.5265H61.7148C62.4247 47.5265 63 46.9511 63 46.2417V44.9564C63 44.2465 62.4247 43.6711 61.7148 43.6711H27.2756C23.4434 43.6711 20.3364 46.7781 20.3364 50.6103C20.3364 54.443 23.4434 57.55 27.2756 57.55H61.7148C62.4247 57.55 63 56.9741 63 56.2647V54.9794C63 54.27 62.4247 53.6947 61.7148 53.6947H27.2756Z" fill="#FF6969"/>
<path d="M60.5581 43.6716V47.5265H61.7146C62.4245 47.5265 62.9998 46.9511 62.9998 46.2417V44.9564C62.9998 44.2465 62.4245 43.6711 61.7146 43.6711H60.5581V43.6716Z" fill="#EA4747"/>
<path d="M60.5581 57.5499H61.7146C62.4245 57.5499 62.9998 56.9745 62.9998 56.2646V54.9798C62.9998 54.2699 62.4245 53.6946 61.7146 53.6946H60.5581V57.5499Z" fill="#EA4747"/>
<path d="M27.2754 51.8956V55.3654C27.2754 56.2825 28.2083 56.9045 29.0548 56.5517L30.3593 56.0081L31.5176 56.5113C32.3665 56.8805 33.3153 56.2585 33.3153 55.3328V51.8956C33.3153 51.1862 32.7399 50.6108 32.03 50.6108H28.5602C27.8507 50.6108 27.2754 51.1862 27.2754 51.8956Z" fill="#FFD664"/>
<path d="M27.2757 25.938C25.5752 25.938 24.1914 24.5542 24.1914 22.8536C24.1914 21.1531 25.5752 19.7693 27.2757 19.7693H60.4302V25.9375H27.2757V25.938Z" fill="#DDF5FF"/>
<path d="M58.3738 19.7693V22.5965C58.3738 23.3064 57.7985 23.8817 57.089 23.8817H24.3687C24.7926 25.0781 25.9356 25.938 27.2756 25.938H60.43V19.7698H58.3738V19.7693Z" fill="#C1E9F4"/>
<path d="M27.2756 25.9378C25.5928 25.9378 24.2206 24.5829 24.1917 22.9063C24.1629 21.1813 25.6202 19.7696 27.3458 19.7696H61.7148C62.4247 19.7696 63 19.1938 63 18.4844V17.1991C63 16.4896 62.4247 15.9143 61.7148 15.9143H27.2756C23.4434 15.9143 20.3364 19.0208 20.3364 22.8535C20.3364 26.6857 23.4434 29.7926 27.2756 29.7926H61.7148C62.4247 29.7926 63 29.2173 63 28.5074V27.2221C63 26.5127 62.4247 25.9373 61.7148 25.9373H27.2756V25.9378Z" fill="#FF933B"/>
<path d="M60.5581 15.9143V19.7696H61.7146C62.4245 19.7696 62.9998 19.1938 62.9998 18.4844V17.1991C62.9998 16.4896 62.4245 15.9143 61.7146 15.9143H60.5581Z" fill="#FF9900"/>
<path d="M60.5581 29.7928H61.7146C62.4245 29.7928 62.9998 29.2175 62.9998 28.5075V27.2228C62.9998 26.5128 62.4245 25.9375 61.7146 25.9375H60.5581V29.7928Z" fill="#FF9900"/>
<path d="M27.2754 24.1388V27.6081C27.2754 28.5252 28.2083 29.1472 29.0548 28.7944L30.3593 28.2508L31.5176 28.7545C32.3665 29.1231 33.3153 28.5012 33.3153 27.5759V24.1388C33.3153 23.4289 32.7399 22.8535 32.03 22.8535H28.5602C27.8507 22.8535 27.2754 23.4289 27.2754 24.1388Z" fill="#FFD664"/>
<path d="M56.0606 39.8162C57.7612 39.8162 59.145 38.4324 59.145 36.7318C59.145 35.0313 57.7612 33.6479 56.0606 33.6479H22.9062V39.8162H56.0606Z" fill="#DDF5FF"/>
<path d="M56.0606 33.6479H56.0121C56.1265 33.9695 56.189 34.3156 56.189 34.6761C56.189 36.3766 54.8057 37.7599 53.1051 37.7599H22.9062V39.8162H56.0606C57.7612 39.8162 59.145 38.4328 59.145 36.7318C59.145 35.0313 57.7612 33.6479 56.0606 33.6479Z" fill="#C1E9F4"/>
<path d="M56.0609 39.8162C57.7436 39.8162 59.1159 38.4613 59.1447 36.7852C59.1736 35.0597 57.7162 33.648 55.9907 33.648H21.6212C20.9118 33.648 20.3364 33.0727 20.3364 32.3628V31.0775C20.3364 30.3681 20.9118 29.7927 21.6212 29.7927H56.0609C59.8931 29.7927 63 32.8997 63 36.7319C63 40.5641 59.8931 43.6711 56.0609 43.6711H21.6212C20.9118 43.6711 20.3364 43.0957 20.3364 42.3858V41.101C20.3364 40.3911 20.9118 39.8158 21.6212 39.8158H56.0609V39.8162Z" fill="#8DB0FF"/>
<path d="M56.061 29.7927H53.8765C57.7087 29.7927 60.8156 32.8997 60.8156 36.7319C60.8156 40.5646 57.7087 43.6711 53.8765 43.6711H56.061C59.8933 43.6711 63.0002 40.5646 63.0002 36.7319C63.0002 32.8997 59.8933 29.7927 56.061 29.7927Z" fill="#669AF7"/>
<path d="M56.0609 38.0172V41.487C56.0609 42.4036 55.1279 43.0256 54.2815 42.6728L52.977 42.1292L51.8186 42.6329C50.9698 43.002 50.021 42.3801 50.021 41.4543V38.0172C50.021 37.3073 50.5963 36.7319 51.3063 36.7319H54.7761C55.4855 36.7319 56.0609 37.3073 56.0609 38.0172Z" fill="#FFD664"/>
<path d="M11.8222 30.6065L4.28313 32.2225L0.0283956 12.3692C-0.120606 11.6751 0.321593 10.9921 1.01565 10.8436L6.04183 9.76643C6.73541 9.61743 7.4189 10.0596 7.56742 10.7532L11.8222 30.6065Z" fill="#8DB0FF"/>
<path d="M5.41406 9.90102L9.29148 27.9947C9.44048 28.6887 8.99828 29.3717 8.30422 29.5207L3.90674 30.4628L4.28357 32.222L11.8226 30.6065L7.56786 10.7532C7.41934 10.0596 6.73586 9.61743 6.04227 9.76643L5.41406 9.90102Z" fill="#669AF7"/>
<path d="M16.1957 52.2151L14.3336 56.1233C13.9905 56.8438 13.058 57.0437 12.4495 56.527L9.14981 53.7248C8.94505 53.5513 8.80422 53.3153 8.74799 53.0529L4.28369 32.2219L11.8227 30.6064L16.287 51.4374C16.3432 51.6994 16.311 51.9729 16.1957 52.2151Z" fill="#8DB0FF"/>
<path d="M9.93799 31.0102L14.1221 50.5362C14.36 51.6446 14.2244 52.8005 13.7366 53.8239L12.4494 56.5266V56.527C13.0579 57.0433 13.9904 56.8438 14.3335 56.1228L16.1956 52.2146C16.3109 51.9729 16.3432 51.6994 16.2869 51.4374L11.8226 30.6064L9.93799 31.0102Z" fill="#669AF7"/>
<path d="M5.79055 9.82024L1.26714 10.7892L0.566827 7.52273C0.418306 6.82867 0.860025 6.14518 1.55409 5.99666L3.56465 5.56599C4.25871 5.41699 4.94172 5.85919 5.09024 6.55325L5.79055 9.82024Z" fill="#FFD664"/>
<path d="M3.1875 5.64674L4.15697 10.1702L5.79071 9.82024L5.0904 6.55325C4.94188 5.85919 4.25839 5.41699 3.56481 5.56599L3.1875 5.64674Z" fill="#F9C646"/>
<path d="M0.59375 15.0078L8.13277 13.3923L9.04841 17.6644L1.50891 19.2798L0.59375 15.0078Z" fill="#FFD664"/>
<path d="M6.2487 13.7961L6.59909 15.4293C6.74761 16.1234 6.30541 16.8064 5.61183 16.9554L1.21387 17.898L1.50995 19.2798L9.04946 17.6644L8.13381 13.3918L6.2487 13.7961Z" fill="#F9C646"/>
<path d="M7.10921 27.9802C6.66461 27.9802 6.26518 27.6707 6.16809 27.2184L3.42165 14.4018C3.30966 13.8813 3.64131 13.3689 4.16185 13.2579C4.68192 13.1449 5.19477 13.4775 5.30628 13.9981L8.05273 26.8147C8.16424 27.3347 7.83259 27.8476 7.31253 27.9591C7.24427 27.9735 7.1765 27.9802 7.10921 27.9802Z" fill="#636363"/>
</g>
<defs>
<clipPath id="clip0">
<rect width="63" height="63" fill="white"/>
</clipPath>
</defs>
</svg>
