<svg width="61" height="61" viewBox="0 0 61 61" fill="none" xmlns="http://www.w3.org/2000/svg">
<g clip-path="url(#clip0)">
<path d="M57.3163 52.2431H3.68371C1.64926 52.2431 0 50.5939 0 48.5594V16.3344H61V48.5594C61 50.5939 59.3507 52.2431 57.3163 52.2431Z" fill="white"/>
<path d="M57.3181 16.3344V52.2431C59.3517 52.2431 61.0002 50.5932 61.0002 48.5579V16.3344H57.3181Z" fill="#C2EBFF"/>
<path d="M12.3748 27.875C12.0258 27.5261 11.46 27.5261 11.1112 27.875L5.57935 33.4068C5.23039 33.7559 5.23039 34.3216 5.57935 34.6705L11.0379 40.1291C11.2123 40.3035 11.4411 40.3907 11.6697 40.3907C11.8983 40.3907 12.1271 40.3035 12.3015 40.1291C12.6505 39.78 12.6505 39.2143 12.3015 38.8653L7.47476 34.0386L12.3747 29.1387C12.7237 28.7897 12.7237 28.2239 12.3748 27.875Z" fill="#43809F"/>
<path d="M31.5144 33.4067L25.9826 27.8749C25.6336 27.526 25.0678 27.526 24.719 27.8749C24.37 28.2239 24.37 28.7896 24.719 29.1386L29.6189 34.0385L24.7921 38.8652C24.4432 39.2143 24.4432 39.78 24.7921 40.129C24.9666 40.3034 25.1953 40.3906 25.424 40.3906C25.6526 40.3906 25.8813 40.3034 26.0558 40.129L31.5144 34.6704C31.8633 34.3214 31.8633 33.7558 31.5144 33.4067Z" fill="#43809F"/>
<path d="M22.1377 24.5505C21.6761 24.3752 21.1603 24.6073 20.9852 25.0689L14.4441 42.3011C14.269 42.7624 14.5011 43.2784 14.9624 43.4536C15.0668 43.4933 15.1739 43.512 15.2793 43.512C15.6397 43.512 15.9794 43.2923 16.1149 42.9352L22.6559 25.7029C22.8311 25.2416 22.5991 24.7256 22.1377 24.5505Z" fill="#43809F"/>
<path d="M46.026 27.9063H40.2573C39.2406 27.9063 38.4163 27.0821 38.4163 26.0652C38.4163 25.0485 39.2405 24.2242 40.2573 24.2242H46.026C47.0428 24.2242 47.8671 25.0484 47.8671 26.0652C47.8671 27.082 47.0428 27.9063 46.026 27.9063Z" fill="#29CEF6"/>
<path d="M55.4767 35.2705H40.2573C39.2406 35.2705 38.4163 34.4463 38.4163 33.4294C38.4163 32.4127 39.2405 31.5883 40.2573 31.5883H55.4766C56.4933 31.5883 57.3177 32.4126 57.3177 33.4294C57.3178 34.4462 56.4935 35.2705 55.4767 35.2705Z" fill="#FFC328"/>
<path d="M50.9557 42.6347H40.2573C39.2406 42.6347 38.4163 41.8105 38.4163 40.7936C38.4163 39.7768 39.2405 38.9525 40.2573 38.9525H50.9557C51.9724 38.9525 52.7968 39.7767 52.7968 40.7936C52.7968 41.8103 51.9724 42.6347 50.9557 42.6347Z" fill="#F78E36"/>
<path d="M61 17.6015H0V12.4405C0 10.4061 1.64926 8.75684 3.68371 8.75684H57.3163C59.3507 8.75684 61 10.4061 61 12.4405V17.6015Z" fill="#43809F"/>
<path d="M57.3181 8.75684V17.6015H61.0002V12.4421C61.0002 10.4068 59.3516 8.75684 57.3181 8.75684Z" fill="#3A7190"/>
<path d="M5.89211 15.0807C6.90891 15.0807 7.73319 14.2564 7.73319 13.2396C7.73319 12.2228 6.90891 11.3986 5.89211 11.3986C4.87531 11.3986 4.05103 12.2228 4.05103 13.2396C4.05103 14.2564 4.87531 15.0807 5.89211 15.0807Z" fill="#29CEF6"/>
<path d="M13.0305 15.0807C14.0473 15.0807 14.8716 14.2564 14.8716 13.2396C14.8716 12.2228 14.0473 11.3986 13.0305 11.3986C12.0137 11.3986 11.1895 12.2228 11.1895 13.2396C11.1895 14.2564 12.0137 15.0807 13.0305 15.0807Z" fill="white"/>
<path d="M20.1687 15.0807C21.1855 15.0807 22.0098 14.2564 22.0098 13.2396C22.0098 12.2228 21.1855 11.3986 20.1687 11.3986C19.1519 11.3986 18.3276 12.2228 18.3276 13.2396C18.3276 14.2564 19.1519 15.0807 20.1687 15.0807Z" fill="#F78E36"/>
</g>
<defs>
<clipPath id="clip0">
<rect width="61" height="61" fill="white"/>
</clipPath>
</defs>
</svg>
