<svg width="52" height="39" viewBox="0 0 52 39" fill="none" xmlns="http://www.w3.org/2000/svg">
<path fill-rule="evenodd" clip-rule="evenodd" d="M2.82424 2.60596H49.1757C49.5125 2.60596 49.786 2.88241 49.786 3.21635V38.1757C49.786 38.5126 49.5126 38.7862 49.1757 38.7862H2.82424C2.4903 38.7862 2.2168 38.5127 2.2168 38.1757V3.21635C2.2168 2.88241 2.4903 2.60596 2.82424 2.60596Z" fill="#FFF9DF"/>
<path fill-rule="evenodd" clip-rule="evenodd" d="M46.1294 2.60596H49.1755C49.5122 2.60596 49.7857 2.88241 49.7857 3.21635V38.1757C49.7857 38.5126 49.5123 38.7862 49.1755 38.7862H46.1294C46.4633 38.7862 46.7398 38.5127 46.7398 38.1757V3.21635C46.7398 2.88241 46.4633 2.60596 46.1294 2.60596Z" fill="#FFF3BF"/>
<path fill-rule="evenodd" clip-rule="evenodd" d="M2.21691 0.193359H49.7861C51.004 0.193359 52.0001 1.18948 52.0001 2.41016C52.0001 3.628 51.004 4.62412 49.7861 4.62412H2.21691C0.996125 4.62412 0 3.628 0 2.41016C0 1.18948 0.996125 0.193359 2.21691 0.193359Z" fill="#FF9900"/>
<path fill-rule="evenodd" clip-rule="evenodd" d="M46.74 0.193359H49.7859C51.0038 0.193359 51.9999 1.18948 51.9999 2.41016C51.9999 3.628 51.0038 4.62412 49.7859 4.62412H46.74C47.9578 4.62412 48.954 3.628 48.954 2.41016C48.954 1.18948 47.9578 0.193359 46.74 0.193359Z" fill="#FF9900"/>
<path fill-rule="evenodd" clip-rule="evenodd" d="M10.1689 15.1757C11.8128 16.1228 13.7532 16.0134 15.1092 15.0462C15.2676 13.3908 14.3923 11.6547 12.7485 10.7075C11.3954 9.93025 9.67086 9.7575 8.10182 10.6383C7.72757 10.8485 7.77652 11.0846 7.79957 11.4589C7.89454 13.1172 8.91656 14.4444 10.1689 15.1757Z" fill="#B3E59F"/>
<path fill-rule="evenodd" clip-rule="evenodd" d="M11.0468 15.5758C12.469 16.0595 13.9891 15.8464 15.109 15.046C15.2673 13.3907 14.3921 11.6545 12.7483 10.7074C11.6025 10.0481 10.186 9.82357 8.82422 10.3072C9.12941 10.4138 9.42303 10.5462 9.70233 10.7074C10.9892 11.4501 11.8069 12.6767 12.0228 13.9693C12.2042 15.0518 12.0861 15.2044 11.0468 15.5758Z" fill="#95D6A4"/>
</svg>
