<svg width="62" height="60" viewBox="0 0 62 60" fill="none" xmlns="http://www.w3.org/2000/svg">
<path d="M38.7378 50.7679V58.5035C38.7378 59.1041 38.2508 59.5912 37.6501 59.5912H1.08631C0.485746 59.5912 0 59.1042 0 58.5035V50.7679C0 45.6721 4.13061 41.5414 9.22527 41.5414H29.5113C34.6072 41.5414 38.7378 45.6721 38.7378 50.7679Z" fill="white"/>
<path d="M24.6305 33.7409V42.8424L15.5164 43.0585L13.3237 43.1109V33.7409H24.6305Z" fill="#FFCEBF"/>
<path d="M17.0697 33.7409V43.0223L15.5164 43.0585L13.3237 43.1109V33.7409H17.0697Z" fill="#FFB09E"/>
<path d="M46.5227 56.6076C55.0705 56.6076 61.9999 49.6782 61.9999 41.1304C61.9999 32.5825 55.0705 25.6531 46.5227 25.6531C37.9748 25.6531 31.0454 32.5825 31.0454 41.1304C31.0454 49.6782 37.9748 56.6076 46.5227 56.6076Z" fill="#FFE177"/>
<path d="M46.8296 33.6102L49.0645 38.1386C49.1144 38.2396 49.2106 38.3095 49.3222 38.3257L54.3196 39.0518C54.6002 39.0926 54.7123 39.4375 54.5092 39.6356L50.8931 43.1604C50.8125 43.2389 50.7756 43.3523 50.7946 43.4632L51.6483 48.4404C51.6962 48.7199 51.4028 48.9331 51.1518 48.8011L46.682 46.4511C46.5823 46.3987 46.4632 46.3987 46.3635 46.4511L41.8937 48.8011C41.6427 48.9331 41.3493 48.7199 41.3972 48.4404L42.2508 43.4632C42.2699 43.3522 42.233 43.2389 42.1524 43.1604L38.5363 39.6356C38.3333 39.4377 38.4453 39.0927 38.7259 39.0518L43.7233 38.3257C43.8347 38.3095 43.9311 38.2396 43.981 38.1386L46.2159 33.6102C46.3414 33.3559 46.7041 33.3559 46.8296 33.6102Z" fill="#FFC344"/>
<path d="M29.3467 19.6472V27.4089C29.3467 31.3623 26.141 34.5666 22.1877 34.5666H14.9393C10.9859 34.5666 7.78027 31.3623 7.78027 27.4089V18.6637C7.78027 18.5619 7.78308 18.4614 7.78723 18.361V12.5182H29.376L29.3467 19.6472Z" fill="#FFCEBF"/>
<path d="M22.2901 59.591H15.752L16.7759 49.0949C16.7934 48.9209 16.922 48.7904 17.0756 48.7904H20.9514C21.1063 48.7904 21.2349 48.9209 21.2523 49.0949L22.2901 59.591Z" fill="#FE646F"/>
<path d="M24.2452 42.8613L13.6313 42.9994L15.2856 46.4988L16.6759 49.119C16.7561 49.27 16.9025 49.3628 17.0607 49.3628H21C21.1396 49.3628 21.2713 49.2904 21.3556 49.1674L24.2452 42.8613Z" fill="#FE646F"/>
<path d="M17.0967 34.5661H14.939C10.9856 34.5661 7.78027 31.3619 7.78027 27.4086V18.6641C7.78027 18.5617 7.78271 18.4618 7.78772 18.3607V12.5182H11.5337V18.4081C11.5287 18.5093 11.5263 27.5297 11.5263 27.5297C11.5264 30.9637 13.9076 33.8381 17.0967 34.5661Z" fill="#FFB09E"/>
<path d="M29.7223 19.2723C29.6089 19.4919 29.3966 19.6469 29.1513 19.6798C29.0647 19.6908 28.9671 19.7005 28.8609 19.7042C28.1081 19.742 26.9623 19.5346 26.6036 18.0423C26.0545 15.7533 27.526 14.5624 24.3475 14.3257C21.5765 14.1207 13.2428 12.8115 10.7989 15.3238C10.6549 15.4702 10.5329 15.6301 10.4328 15.8046C10.3767 15.9022 10.3267 16.0059 10.2852 16.1133C10.2144 16.2939 10.1632 16.4879 10.1375 16.6977C10.1375 16.6977 9.92401 18.6597 8.13647 18.4316C8.02544 18.4169 7.91074 18.3938 7.78751 18.362V18.3608C7.75944 18.3547 7.72894 18.3474 7.69965 18.3388C7.4666 18.2705 7.27748 18.0985 7.19451 17.8727C6.29769 15.4031 3.20214 1.2322 7.41658 0.850287C8.1682 0.783178 9.21387 0.684345 10.4365 0.598934C10.4975 0.594053 10.5585 0.590393 10.6207 0.585512C16.6447 0.170658 26.7281 0.0791454 27.6529 5.11963C27.6969 5.36122 27.8567 5.56133 28.0788 5.66382C29.5662 6.35077 34.7543 9.55735 29.7223 19.2723Z" fill="#BC7C63"/>
<path d="M3.74601 50.8327V58.6232C3.74601 59.0428 3.97955 59.4074 4.32413 59.5909H1.08631C0.485746 59.5909 0 59.1039 0 58.5033V50.7678C0 45.6719 4.13061 41.5413 9.22527 41.5413H12.9713C7.87662 41.5413 3.74601 45.7018 3.74601 50.8327Z" fill="#C2EBFF"/>
<path d="M19.007 42.9266L14.0369 38.8673C13.6584 38.5581 13.1173 38.5488 12.7283 38.8447L11.1157 40.0714C10.8398 40.2813 10.6844 40.6132 10.6998 40.9596L10.9814 47.3015C11.0199 48.1701 12.0326 48.6233 12.706 48.0732L19.007 42.9266Z" fill="#C2EBFF"/>
<path d="M19.0073 42.9266L23.9774 38.8673C24.3559 38.5581 24.897 38.5488 25.286 38.8447L26.8986 40.0714C27.1745 40.2813 27.3299 40.6132 27.3145 40.9596L27.0329 47.3015C26.9944 48.1701 25.9818 48.6233 25.3084 48.0732L19.0073 42.9266Z" fill="#C2EBFF"/>
<path d="M18.5641 25.9594H14.0014C13.748 25.9594 13.5512 26.1787 13.5752 26.431C13.8161 28.9625 15.9739 30.9706 18.5641 30.9706C21.1543 30.9706 23.3121 28.9625 23.553 26.431C23.577 26.1787 23.3802 25.9594 23.1268 25.9594H18.5641Z" fill="#F2F2F2"/>
<path d="M10.4328 15.8046C10.3767 15.9022 10.3267 16.0059 10.2852 16.1133C10.2144 16.2939 10.1632 16.4879 10.1375 16.6978C10.1375 16.6978 9.924 18.6598 8.13647 18.4316C8.02543 18.417 7.91074 18.3938 7.7875 18.3621V18.3608C7.75944 18.3547 7.72894 18.3474 7.69965 18.3389C7.4666 18.2705 7.27748 18.0985 7.19451 17.8728C6.29769 15.4032 3.20214 1.23223 7.41657 0.850315C8.16819 0.783207 9.21387 0.684374 10.4365 0.598962C10.4975 0.594082 10.5585 0.590421 10.6207 0.585541C7.91928 2.11074 9.33833 11.1729 10.4328 15.8046Z" fill="#AA6A51"/>
<path d="M48.3963 56.4955C47.782 56.5692 47.1576 56.6079 46.5233 56.6079C37.9748 56.6079 31.0459 49.679 31.0459 41.1305C31.0459 32.5821 37.9748 25.6532 46.5233 25.6532C47.1576 25.6532 47.782 25.6918 48.3963 25.7655C40.7307 26.6896 34.792 33.2165 34.792 41.1305C34.792 49.0446 40.7307 55.5715 48.3963 56.4955Z" fill="#FFD064"/>
<path d="M13.3228 21.5858C12.8174 21.5858 12.4077 21.1761 12.4077 20.6707V19.5309C12.4077 19.0255 12.8174 18.6158 13.3228 18.6158C13.8282 18.6158 14.238 19.0255 14.238 19.5309V20.6707C14.238 21.1761 13.8282 21.5858 13.3228 21.5858Z" fill="#433F43"/>
<path d="M23.0372 21.5858C22.5318 21.5858 22.1221 21.1761 22.1221 20.6707V19.5309C22.1221 19.0255 22.5318 18.6158 23.0372 18.6158C23.5426 18.6158 23.9523 19.0255 23.9523 19.5309V20.6707C23.9523 21.1761 23.5426 21.5858 23.0372 21.5858Z" fill="#433F43"/>
</svg>
