<svg width="51" height="41" viewBox="0 0 51 41" fill="none" xmlns="http://www.w3.org/2000/svg">
<path d="M0 39.1386V1.60794C0 1.0412 0.45941 0.581787 1.02616 0.581787H49.9738C50.5406 0.581787 51 1.0412 51 1.60794V39.1385C51 39.7052 50.5406 40.1647 49.9738 40.1647H1.02616C0.45941 40.1648 0 39.7052 0 39.1386Z" fill="#FF9900"/>
<path d="M3.14844 37.0241H47.8521V3.72241H3.14844V37.0241Z" fill="#FFF9E9"/>
<path d="M43.7478 3.72241H47.8524V37.0241H43.7478V3.72241Z" fill="#FFF4D6"/>
<path d="M9.21054 10.9345H35.7415C36.1667 10.9345 36.5111 10.5899 36.5111 10.1649C36.5111 9.73985 36.1667 9.39526 35.7415 9.39526H9.21054C8.7854 9.39526 8.44092 9.73985 8.44092 10.1649C8.44092 10.5899 8.7854 10.9345 9.21054 10.9345Z" fill="#FAE19E"/>
<path d="M41.7884 14.0764H9.21054C8.7854 14.0764 8.44092 14.421 8.44092 14.846C8.44092 15.2711 8.7854 15.6157 9.21054 15.6157H41.7885C42.2136 15.6157 42.5581 15.2711 42.5581 14.846C42.5581 14.421 42.2135 14.0764 41.7884 14.0764Z" fill="#FAE19E"/>
<path d="M27.7198 18.7571H9.21054C8.7854 18.7571 8.44092 19.1017 8.44092 19.5267C8.44092 19.9517 8.7854 20.2963 9.21054 20.2963H27.7198C28.1449 20.2963 28.4894 19.9517 28.4894 19.5267C28.4894 19.1017 28.1448 18.7571 27.7198 18.7571Z" fill="#FAE19E"/>
<path d="M22.3029 30.2453C20.9966 30.2489 19.6903 30.2519 18.384 30.2541C17.9644 30.2548 17.5447 30.2553 17.1252 30.2556C16.8041 30.2558 16.4575 30.3126 16.1862 30.1053C15.8826 29.8734 15.7781 29.5458 15.7086 29.185C15.5581 28.4036 14.431 28.5032 14.2244 29.185C14.133 29.487 13.6712 30.3516 13.2678 30.2809C13.0541 30.2434 12.9607 29.9137 12.8817 29.743C12.7279 29.4106 12.6158 29.0583 12.5199 28.7053C12.1147 27.2139 12.0339 25.6567 11.7804 24.1372C11.6335 23.256 10.2903 23.5052 10.2687 24.3418C10.1997 27.0068 9.76401 29.6353 8.81523 32.1333C8.46316 33.0602 9.95057 33.461 10.2995 32.5425C10.6653 31.5794 10.9557 30.5931 11.181 29.5922C11.3019 29.9569 11.4461 30.3146 11.6221 30.6626C12.0715 31.5508 12.9882 32.0763 13.969 31.6813C14.319 31.5403 14.6384 31.2938 14.9102 30.9938C14.9486 31.0381 14.9873 31.0818 15.0277 31.1226C15.7741 31.8761 16.7559 31.7955 17.7323 31.7942C19.2559 31.7923 20.7794 31.7887 22.303 31.7845C23.2933 31.7817 23.2951 30.2425 22.3029 30.2453Z" fill="#54B1FF"/>
</svg>
