<svg width="52" height="52" viewBox="0 0 52 52" fill="none" xmlns="http://www.w3.org/2000/svg">
<g clip-path="url(#clip0)">
<path d="M49.4488 45.0534V17.768C49.4488 16.4115 48.349 15.3118 46.9925 15.3118H5.11151C3.75502 15.3118 2.65527 16.4114 2.65527 17.768V45.0535L25.9757 49.2386L49.4488 45.0534Z" fill="#26A6FE"/>
<path d="M46.9928 15.3118H43.854C45.2105 15.3118 46.3102 16.4114 46.3102 17.768V45.0535H49.4491V17.768C49.4491 16.4114 48.3493 15.3118 46.9928 15.3118Z" fill="#0593FC"/>
<path d="M6.31738 45.0533V20.3625C6.31738 19.5954 6.93919 18.9736 7.70621 18.9736H44.2935C45.0605 18.9736 45.6823 19.5954 45.6823 20.3625V45.0533L25.9758 48.1921L6.31738 45.0533Z" fill="#FFF3EF"/>
<path d="M44.2936 18.9736H41.1548C41.9218 18.9736 42.5436 19.5954 42.5436 20.3625V45.0533H45.6824V20.3625C45.6824 19.5954 45.0606 18.9736 44.2936 18.9736Z" fill="#F1F0F0"/>
<path d="M50.4249 50.2676H1.57507C0.705191 50.2676 0 49.5624 0 48.6925V46.2015C0 45.5658 0.515292 45.0505 1.15101 45.0505H19.5437L25.9759 46.8292L32.4562 45.0505H51.0265C51.5641 45.0505 52 45.4863 52 46.024V48.6926C52 49.5624 51.2948 50.2676 50.4249 50.2676Z" fill="#0182FC"/>
<path d="M29.8479 47.659H22.1525C20.7119 47.659 19.5439 46.4912 19.5439 45.0505H32.4564C32.4565 46.4912 31.2885 47.659 29.8479 47.659Z" fill="#0055A3"/>
<path d="M19.7043 38.7979C20.0231 37.4495 19.1884 36.098 17.8399 35.7793C16.4915 35.4605 15.14 36.2952 14.8213 37.6437C14.5025 38.9921 15.3373 40.3436 16.6857 40.6623C18.0341 40.9811 19.3856 40.1464 19.7043 38.7979Z" fill="#FC9086"/>
<path d="M19.7043 38.7979C20.0231 37.4495 19.1884 36.098 17.8399 35.7793C16.4915 35.4605 15.14 36.2952 14.8213 37.6437C14.5025 38.9921 15.3373 40.3436 16.6857 40.6623C18.0341 40.9811 19.3856 40.1464 19.7043 38.7979Z" fill="#00F2A6"/>
<path d="M28.5208 38.6039C28.7426 37.2361 27.8135 35.9475 26.4457 35.7257C25.0778 35.504 23.7892 36.4331 23.5675 37.8009C23.3458 39.1687 24.2749 40.4573 25.6427 40.6791C27.0105 40.9008 28.2991 39.9717 28.5208 38.6039Z" fill="#FC9086"/>
<path d="M28.5208 38.6039C28.7426 37.2361 27.8135 35.9475 26.4457 35.7257C25.0778 35.504 23.7892 36.4331 23.5675 37.8009C23.3458 39.1687 24.2749 40.4573 25.6427 40.6791C27.0105 40.9008 28.2991 39.9717 28.5208 38.6039Z" fill="#FF9900"/>
<path d="M36.603 39.9809C37.5828 39.0011 37.5828 37.4125 36.603 36.4327C35.6232 35.4529 34.0346 35.4529 33.0548 36.4327C32.075 37.4125 32.075 39.0011 33.0548 39.9809C34.0346 40.9606 35.6232 40.9606 36.603 39.9809Z" fill="#FC9086"/>
<path d="M36.603 39.9809C37.5828 39.0011 37.5828 37.4125 36.603 36.4327C35.6232 35.4529 34.0346 35.4529 33.0548 36.4327C32.075 37.4125 32.075 39.0011 33.0548 39.9809C34.0346 40.9606 35.6232 40.9606 36.603 39.9809Z" fill="#FD6930"/>
<path d="M35.5905 14.2614L35.6104 11.3456C35.6104 6.03653 31.3066 1.73267 25.9975 1.73267C20.6885 1.73267 16.3846 6.03653 16.3846 11.3456L16.3647 14.2614H35.5905Z" fill="#537983"/>
<path d="M35.5964 26.0111L34.8677 24.6211L36.1703 23.9383C36.432 23.8011 36.5773 23.5128 36.5319 23.2207L35.8743 18.9935L37.4251 18.7522L38.0827 22.9796C38.2312 23.9354 37.7555 24.8792 36.8989 25.3284L35.5964 26.0111Z" fill="#678D98"/>
<path d="M25.9981 1.73267C25.4636 1.73267 24.9395 1.77703 24.4287 1.86094C28.9911 2.61028 32.4721 6.57107 32.4721 11.3456L32.4522 14.2614H35.591L35.6109 11.3456C35.6109 6.03653 31.3072 1.73267 25.9981 1.73267Z" fill="#3E5959"/>
<path d="M36.0592 19.8243C37.6739 19.8243 38.9828 18.5154 38.9828 16.9008C38.9828 15.2862 37.6739 13.9773 36.0592 13.9773C34.4446 13.9773 33.1357 15.2862 33.1357 16.9008C33.1357 18.5154 34.4446 19.8243 36.0592 19.8243Z" fill="#7CA1B1"/>
<path d="M15.9406 19.8243C17.5552 19.8243 18.8641 18.5154 18.8641 16.9008C18.8641 15.2862 17.5552 13.9773 15.9406 13.9773C14.326 13.9773 13.0171 15.2862 13.0171 16.9008C13.0171 18.5154 14.326 19.8243 15.9406 19.8243Z" fill="#7CA1B1"/>
<path d="M16.3849 11.6809L16.3413 18.0755C16.3413 23.3846 20.6452 27.6884 25.9542 27.6884C31.2632 27.6884 35.5671 23.3846 35.5671 18.0755L35.6108 11.6821C35.6105 11.6816 35.6103 11.6813 35.6101 11.681C33.4841 10.942 31.5915 9.65374 30.1244 7.94684C30.0619 7.87413 29.9579 7.8532 29.8722 7.8962L29.2902 8.1877C26.0128 9.8292 22.4813 10.9044 18.8451 11.3676L16.3849 11.6809Z" fill="#FED2A4"/>
<path d="M35.6099 11.6805C33.4843 10.9417 31.592 9.65378 30.1251 7.9474C30.0621 7.87416 29.9582 7.8524 29.8719 7.89561L29.2899 8.18711C28.8167 8.42419 28.3375 8.64799 27.8541 8.86122C28.9383 9.89547 30.1968 10.7312 31.5724 11.3294C32.1198 11.5674 32.4683 12.1132 32.4643 12.7102C32.4523 14.5184 32.4282 18.0751 32.4282 18.0751C32.4282 22.8495 28.9472 26.8103 24.3848 27.5597C24.8956 27.6436 25.4196 27.6879 25.9542 27.6879C31.2632 27.6879 35.5671 23.3842 35.5671 18.0751L35.6108 11.6816C35.6103 11.6813 35.6101 11.6809 35.6099 11.6805Z" fill="#FFBD86"/>
<path d="M21.4117 20.1216C20.9782 20.1216 20.627 19.7703 20.627 19.3369V18.6485C20.627 18.2151 20.9782 17.8638 21.4117 17.8638C21.8451 17.8638 22.1964 18.2151 22.1964 18.6485V19.3369C22.1964 19.7703 21.845 20.1216 21.4117 20.1216Z" fill="#384949"/>
<path d="M30.1011 20.1216C29.6676 20.1216 29.3164 19.7703 29.3164 19.3369V18.6485C29.3164 18.2151 29.6676 17.8638 30.1011 17.8638C30.5346 17.8638 30.8858 18.2151 30.8858 18.6485V19.3369C30.8858 19.7703 30.5346 20.1216 30.1011 20.1216Z" fill="#384949"/>
<path d="M25.9868 23.0671C25.2541 23.0671 24.5772 22.6693 24.2205 22.0289C24.0095 21.6504 24.1454 21.1725 24.524 20.9615C24.9023 20.7506 25.3805 20.8865 25.5914 21.2651C25.6713 21.4086 25.8228 21.4978 25.9867 21.4978C26.1509 21.4978 26.3028 21.4082 26.3826 21.264C26.5926 20.8851 27.0702 20.748 27.4493 20.9582C27.8283 21.1683 27.9653 21.6459 27.7552 22.025C27.3989 22.6676 26.7214 23.0671 25.9868 23.0671Z" fill="#FFBD86"/>
<path d="M19.7315 17.1833C19.5575 17.1833 19.3824 17.1257 19.2368 17.0073C18.9006 16.7339 18.8498 16.2396 19.1232 15.9034C19.7386 15.1467 20.6856 14.7467 21.656 14.8328C22.0877 14.8712 22.4065 15.2523 22.3682 15.684C22.3298 16.1157 21.9491 16.4346 21.5171 16.3962C21.0662 16.3557 20.6267 16.5421 20.3407 16.8938C20.1857 17.0844 19.9595 17.1833 19.7315 17.1833Z" fill="#537983"/>
<path d="M32.2429 17.1832C32.0148 17.1832 31.7887 17.0843 31.6336 16.8936C31.3476 16.5419 30.9077 16.3552 30.4573 16.3959C30.026 16.4345 29.6445 16.1154 29.6061 15.6837C29.5679 15.2522 29.8867 14.871 30.3183 14.8326C31.2891 14.7464 32.2358 15.1466 32.8512 15.9031C33.1246 16.2393 33.0737 16.7337 32.7376 17.0071C32.592 17.1256 32.4169 17.1832 32.2429 17.1832Z" fill="#537983"/>
<path d="M33.4425 28.091C34.6914 28.091 35.7038 27.0786 35.7038 25.8297C35.7038 24.5808 34.6914 23.5684 33.4425 23.5684C32.1936 23.5684 31.1812 24.5808 31.1812 25.8297C31.1812 27.0786 32.1936 28.091 33.4425 28.091Z" fill="#7CA1B1"/>
<path d="M31.5983 32.6058H20.4019C19.9684 32.6058 19.6172 32.2544 19.6172 31.8211C19.6172 31.3877 19.9684 31.0364 20.4019 31.0364H31.5983C32.0318 31.0364 32.383 31.3877 32.383 31.8211C32.383 32.2544 32.0317 32.6058 31.5983 32.6058Z" fill="#60B7FF"/>
</g>
<defs>
<clipPath id="clip0">
<rect width="52" height="52" fill="white"/>
</clipPath>
</defs>
</svg>
