<svg width="49" height="49" viewBox="0 0 49 49" fill="none" xmlns="http://www.w3.org/2000/svg">
<g clip-path="url(#clip0)">
<path d="M10.7561 35.0569H7.56909V39.8374H8.95851C9.42554 39.8374 9.82845 39.5097 9.92368 39.0525L10.7561 35.0569Z" fill="#DF75A5"/>
<path d="M2.78882 35.0569H7.56928V45.813H2.78882V35.0569Z" fill="#407093"/>
<path d="M7.56865 45.813H2.78818C2.34814 45.813 1.99146 46.1697 1.99146 46.6097V48.2032C1.99146 48.6432 2.34814 48.9999 2.78818 48.9999H7.56865C8.00869 48.9999 8.36538 48.6432 8.36538 48.2032V46.6097C8.36547 46.1698 8.00869 45.813 7.56865 45.813Z" fill="#FFAD31"/>
<path d="M7.56874 45.813H5.77612C6.21617 45.813 6.57285 46.1697 6.57285 46.6097V48.2032C6.57285 48.6432 6.21617 48.9999 5.77612 48.9999H7.56883C8.00888 48.9999 8.36556 48.6432 8.36556 48.2032V46.6097C8.36556 46.1698 8.00878 45.813 7.56874 45.813Z" fill="#FF9900"/>
<path d="M28.6829 16.1343H25.8943C25.3443 16.1343 24.8984 16.5802 24.8984 17.1302V40.0367C24.8984 40.5867 25.3443 41.0326 25.8943 41.0326H28.6829C29.2329 41.0326 29.6789 40.5867 29.6789 40.0367V17.1302C29.6789 16.5802 29.233 16.1343 28.6829 16.1343Z" fill="#FFAD31"/>
<path d="M28.683 16.1343H26.6343C27.1843 16.1343 27.6302 16.5802 27.6302 17.1302V40.0367C27.6302 40.5867 27.1843 41.0326 26.6343 41.0326H28.6831C29.2331 41.0326 29.6791 40.5867 29.6791 40.0367V17.1302C29.679 16.5802 29.2331 16.1343 28.683 16.1343Z" fill="#FF9900"/>
<path d="M5.97534 23.1059V35.0572L24.8981 39.0409V18.1262L5.97534 23.1059Z" fill="#ECF4FF"/>
<path d="M5.97561 23.1057H0.995982C0.445881 23.1057 0 23.5516 0 24.1016V34.0609C0 34.611 0.445881 35.0568 0.995982 35.0568H5.9757V23.1057H5.97561Z" fill="#FFAD31"/>
<path d="M4.1189 23.1057H5.97563V35.0569H4.1189V23.1057Z" fill="#FF9900"/>
<path d="M29.6787 35.0569L31.468 34.4978C32.2995 34.238 32.8657 33.4679 32.8657 32.5966V25.566C32.8657 24.6949 32.2995 23.9247 31.468 23.6648L29.6787 23.1057V35.0569Z" fill="#2B4D66"/>
<path d="M47.283 0H20.8392C19.8909 0 19.1221 0.768783 19.1221 1.71711V10.6462C19.1221 11.5945 19.8909 12.3633 20.8392 12.3633H35.4614C35.7881 12.3633 36.0529 12.6281 36.0529 12.9549V15.9081C36.0529 16.434 36.6881 16.6985 37.0613 16.3278L40.8803 12.5352C40.9911 12.4251 41.141 12.3634 41.2972 12.3634H47.283C48.2313 12.3634 49.0001 11.5946 49.0001 10.6463V1.7172C49.0001 0.768783 48.2313 0 47.283 0V0Z" fill="#DF75A5"/>
<path d="M47.2828 0H45.3081C46.2564 0 47.0252 0.768783 47.0252 1.71711V10.6462C47.0252 11.5945 46.2564 12.3633 45.3081 12.3633H47.2828C48.2312 12.3633 48.9999 11.5945 48.9999 10.6462V1.71711C48.9999 0.768783 48.2312 0 47.2828 0V0Z" fill="#DD5790"/>
<path d="M28.3723 8.21204C28.7537 7.62739 28.9763 6.93028 28.9763 6.1817C28.9763 4.12647 27.3042 2.45435 25.249 2.45435C23.1938 2.45435 21.5217 4.12657 21.5217 6.18179C21.5217 8.23702 23.1938 9.90904 25.249 9.90904C26.022 9.90904 26.7406 9.67247 27.3366 9.26802L27.737 9.66835C27.8814 9.81267 28.0707 9.88493 28.2599 9.88493C28.4491 9.88493 28.6384 9.81267 28.7828 9.66835C29.0716 9.37952 29.0716 8.91144 28.7828 8.62251L28.3723 8.21204ZM25.249 8.43014C24.0092 8.43014 23.0006 7.42153 23.0006 6.18179C23.0006 4.94196 24.0092 3.93334 25.249 3.93334C26.4888 3.93334 27.4974 4.94196 27.4974 6.18179C27.4974 6.51962 27.4221 6.84004 27.288 7.12772L26.8711 6.71084C26.5823 6.4222 26.1142 6.4222 25.8253 6.71084C25.5366 6.99967 25.5366 7.46775 25.8253 7.75668L26.2585 8.18983C25.9547 8.34315 25.6119 8.43014 25.249 8.43014Z" fill="#ECF4FF"/>
<path d="M38.8556 2.45459C38.4472 2.45459 38.1162 2.78563 38.1162 3.19399V9.1697C38.1162 9.57816 38.4472 9.9091 38.8556 9.9091C39.264 9.9091 39.595 9.57806 39.595 9.1697V3.19399C39.595 2.78563 39.2641 2.45459 38.8556 2.45459Z" fill="#ECF4FF"/>
<path d="M45.8609 8.4302H43.2389L46.3876 3.59767C46.5357 3.37037 46.5475 3.0802 46.4182 2.84171C46.2889 2.60312 46.0394 2.45459 45.7681 2.45459H41.9971C41.5886 2.45459 41.2577 2.78563 41.2577 3.19399C41.2577 3.60236 41.5887 3.93339 41.9971 3.93339H44.4037L41.2549 8.76592C41.1068 8.99322 41.0951 9.28339 41.2244 9.52188C41.3537 9.76047 41.6031 9.909 41.8745 9.909H45.8609C46.2693 9.909 46.6003 9.57796 46.6003 9.1696C46.6004 8.76114 46.2693 8.4302 45.8609 8.4302Z" fill="#ECF4FF"/>
<path d="M35.6132 2.45459C35.2047 2.45459 34.8738 2.78563 34.8738 3.19399V7.30167C34.8738 7.59012 34.792 7.96231 34.1545 8.28348C33.9583 8.38225 33.7451 8.43029 33.5033 8.43029C33.5025 8.43029 33.5018 8.43029 33.501 8.43029C33.2356 8.42991 33.0053 8.36493 32.7966 8.23161C32.3018 7.91551 32.2005 7.63289 32.2005 7.30597V3.19399C32.2005 2.78553 31.8694 2.45459 31.4611 2.45459C31.0527 2.45459 30.7217 2.78563 30.7217 3.19399V7.30588C30.7217 8.20482 31.152 8.93561 32.0004 9.47767C32.447 9.76315 32.9513 9.90824 33.4992 9.9091H33.5031C33.975 9.9091 34.4178 9.8066 34.8197 9.60419C36.0868 8.96613 36.3528 7.99982 36.3528 7.30167V3.19399C36.3526 2.78563 36.0215 2.45459 35.6132 2.45459Z" fill="#ECF4FF"/>
</g>
<defs>
<clipPath id="clip0">
<rect width="49" height="49" fill="white"/>
</clipPath>
</defs>
</svg>
