<svg width="59" height="59" viewBox="0 0 59 59" fill="none" xmlns="http://www.w3.org/2000/svg">
<path d="M54.5567 42.3305H4.44354C3.59634 42.3305 2.90942 41.6437 2.90942 40.7963V10.53H56.0907V40.7965C56.0907 41.6437 55.4039 42.3305 54.5567 42.3305Z" fill="#595959"/>
<path d="M48.9355 10.53V33.5741C48.9355 34.4586 48.2187 35.1754 47.3342 35.1754H2.90942V40.7293C2.90942 41.6137 3.6263 42.3306 4.51072 42.3306H54.4894C55.3738 42.3306 56.0907 41.6137 56.0907 40.7293V10.53H48.9355Z" fill="#434343"/>
<path d="M54.5567 43.1947H4.44354C3.12111 43.1947 2.04517 42.1189 2.04517 40.7963V9.66577H56.9549V40.7965C56.9549 42.1189 55.8791 43.1947 54.5567 43.1947ZM3.7738 11.3943V40.7965C3.7738 41.1658 4.07421 41.4663 4.44365 41.4663H54.5568C54.9261 41.4663 55.2266 41.1659 55.2266 40.7965V11.3943H3.7738Z" fill="#DFDFDF"/>
<path d="M58.6543 12.5224H0.345703C0.15476 12.5224 0 12.3676 0 12.1767V7.22217C0 7.03122 0.15476 6.87646 0.345703 6.87646H58.6543C58.8452 6.87646 59 7.03122 59 7.22217V12.1767C59 12.3675 58.8452 12.5224 58.6543 12.5224Z" fill="#FFB443"/>
<path d="M35.0485 45.5405H23.9519C23.761 45.5405 23.6062 45.3857 23.6062 45.1947V40.2402C23.6062 40.0493 23.761 39.8945 23.9519 39.8945H35.0485C35.2395 39.8945 35.3942 40.0493 35.3942 40.2402V45.1947C35.3942 45.3857 35.2395 45.5405 35.0485 45.5405Z" fill="#FFB443"/>
<path d="M58.6391 6.87646H56.2935V9.45507C56.2935 9.65431 56.1319 9.81598 55.9326 9.81598H0V12.1616C0 12.3608 0.161559 12.5224 0.360799 12.5224H58.6391C58.8383 12.5224 59 12.3608 59 12.1616V7.23726C59 7.03802 58.8384 6.87646 58.6391 6.87646Z" fill="#FF9900"/>
<path d="M35.0334 39.8945H32.6878V42.4731C32.6878 42.6724 32.5263 42.834 32.3269 42.834H23.6062V45.1796C23.6062 45.3789 23.7678 45.5406 23.9671 45.5406H35.0334C35.2327 45.5406 35.3943 45.379 35.3943 45.1796V40.2554C35.3943 40.0561 35.2328 39.8945 35.0334 39.8945Z" fill="#FF9900"/>
<path d="M9.33765 21.9293C9.33765 21.0318 9.80481 20.749 10.5179 20.749H15.251C15.8411 20.749 16.2714 20.9211 16.2714 21.5604C16.2714 22.1996 15.8411 22.3718 15.251 22.3718H11.3539V24.2896H14.7715C15.3001 24.2896 15.7181 24.4372 15.7181 25.0641C15.7181 25.6911 15.3001 25.8386 14.7715 25.8386H11.3539V27.9778H15.3493C15.9394 27.9778 16.3696 28.1498 16.3696 28.7892C16.3696 29.4285 15.9394 29.6005 15.3493 29.6005H10.5179C9.80481 29.6005 9.33765 29.3177 9.33765 28.4203V21.9293Z" fill="#DFDFDF"/>
<path d="M23.3895 23.9333C23.9059 23.9333 24.2501 24.2283 24.2501 24.671C24.2501 25.1136 23.9059 25.4087 23.3895 25.4087H18.1523C17.636 25.4087 17.2917 25.0398 17.2917 24.671C17.2917 24.2285 17.636 23.9333 18.1523 23.9333H23.3895ZM23.3895 26.8346C23.9059 26.8346 24.2501 27.1296 24.2501 27.5723C24.2501 28.0148 23.9059 28.31 23.3895 28.31H18.1523C17.636 28.31 17.2917 27.9412 17.2917 27.5723C17.2917 27.1297 17.636 26.8346 18.1523 26.8346H23.3895Z" fill="#DFDFDF"/>
<path d="M25.6646 21.5849C25.6646 20.7735 26.2177 20.5891 26.7587 20.5891H27.3488C27.9757 20.5891 28.2708 20.8349 28.4798 21.5111L30.2379 27.1909H30.2625L31.996 21.5111C32.2049 20.8349 32.4999 20.5891 33.127 20.5891H33.6925C34.2335 20.5891 34.7866 20.7735 34.7866 21.5849V28.7767C34.7866 29.2808 34.5408 29.7603 33.8892 29.7603C33.2376 29.7603 32.9917 29.2808 32.9917 28.7767V23.2938H32.9672L31.0862 29.1702C30.9509 29.5882 30.6436 29.7603 30.2256 29.7603C29.8077 29.7603 29.5002 29.5882 29.365 29.1702L27.484 23.2938H27.4594V28.7767C27.4594 29.2808 27.2135 29.7603 26.562 29.7603C25.9103 29.7603 25.6646 29.2808 25.6646 28.7767V21.5849Z" fill="#DFDFDF"/>
<path d="M40.97 20.54C43.2812 20.54 44.5475 21.9907 44.5475 22.8513C44.5475 23.4167 44.2402 23.761 43.6378 23.761C42.4699 23.761 42.8142 22.1629 40.97 22.1629C39.7038 22.1629 38.6588 23.257 38.6588 25.1748C38.6588 26.7853 39.298 28.1866 41.0438 28.1866C42.6297 28.1866 42.5928 26.4902 43.564 26.4902C44.0557 26.4902 44.5475 26.7729 44.5475 27.2647C44.5475 28.5432 42.9986 29.8095 41.0438 29.8095C38.2778 29.8095 36.6426 28.2236 36.6426 25.1748C36.6426 22.679 38.1179 20.54 40.97 20.54Z" fill="#DFDFDF"/>
<path d="M49.0719 25.015C49.4407 25.015 49.662 25.1993 49.662 25.5681C49.662 25.9861 49.4407 26.1212 49.0719 26.1212H46.0722C45.6174 26.1212 45.4207 25.8262 45.4207 25.4943C45.4207 24.9657 45.8508 24.4493 46.8467 23.8715C47.9655 23.22 48.3096 23.097 48.3096 22.4946C48.3096 22.1258 47.9408 21.8921 47.5104 21.8921C47.0679 21.8921 46.7113 22.0888 46.5516 22.5314C46.4533 22.8019 46.3672 22.9495 46.0475 22.9495C45.7155 22.9495 45.4574 22.8142 45.4574 22.4455C45.4574 21.548 46.4163 20.8596 47.5965 20.8596C48.875 20.8596 49.6373 21.4866 49.6373 22.3225C49.6373 23.2937 49.2439 23.6871 48.3955 24.1297C47.4981 24.5969 47.0186 24.8305 46.908 25.0149H49.0719V25.015Z" fill="#DFDFDF"/>
<path d="M55.7539 52.1237C55.5328 52.1237 55.3115 52.0393 55.1428 51.8705L39.4262 36.154C39.0887 35.8165 39.0887 35.2693 39.4262 34.9319C39.7638 34.5943 40.311 34.5943 40.6484 34.9319L56.365 50.6483C56.7025 50.9858 56.7025 51.5331 56.365 51.8705C56.1962 52.0393 55.975 52.1237 55.7539 52.1237Z" fill="#FFB443"/>
<path d="M39.377 36.927C40.5058 36.927 41.4208 36.0119 41.4208 34.8832C41.4208 33.7544 40.5058 32.8394 39.377 32.8394C38.2483 32.8394 37.3333 33.7544 37.3333 34.8832C37.3333 36.0119 38.2483 36.927 39.377 36.927Z" fill="#FFB443"/>
<path d="M40.8227 33.4379C40.5588 33.174 40.2404 32.9993 39.9041 32.9099C40.0851 33.5912 39.9104 34.3473 39.3761 34.8817C38.8417 35.416 38.0856 35.5907 37.4043 35.4097C37.4937 35.7461 37.6684 36.0645 37.9323 36.3283C38.7304 37.1265 40.0245 37.1265 40.8227 36.3283C41.6208 35.5301 41.6208 34.2361 40.8227 33.4379Z" fill="#FF9900"/>
</svg>
