<svg width="49" height="49" viewBox="0 0 49 49" fill="none" xmlns="http://www.w3.org/2000/svg">
<g clip-path="url(#clip0)">
<path d="M39.8836 11.8215V46.2104C39.8836 47.7512 38.6348 49.0001 37.095 49.0001H6.29331C4.75249 49.0001 3.50366 47.7513 3.50366 46.2104V2.78965C3.50376 1.24883 4.75259 0 6.29331 0H28.0215C28.2461 0 28.4668 0.0485215 28.6686 0.140492C28.8378 0.216672 28.9922 0.323572 29.1267 0.456217L29.2505 0.578908L39.4233 10.7112C39.5579 10.8448 39.6648 11.0012 39.7419 11.1704C39.8352 11.3733 39.8836 11.5949 39.8836 11.8215Z" fill="#FFE8D2"/>
<path d="M39.742 11.1705H32.7517C30.4964 11.1705 28.6687 9.34277 28.6687 7.08752V0.140625L29.2506 0.579041L39.4234 10.7113C39.558 10.8449 39.6648 11.0013 39.742 11.1705Z" fill="#F7D4AD"/>
<path d="M9.19043 26.297C9.00046 26.297 8.81049 26.2246 8.66559 26.0796L7.86752 25.2814C7.57764 24.9916 7.57774 24.5216 7.86752 24.2318C8.15741 23.9422 8.62731 23.9421 8.9172 24.2319L9.19368 24.5084L10.8607 22.8621C11.1524 22.574 11.6223 22.577 11.9103 22.8686C12.1984 23.1603 12.1954 23.6302 11.9037 23.9181L9.71182 26.0828C9.5674 26.2257 9.37887 26.297 9.19043 26.297Z" fill="#95D5A4"/>
<path d="M10.9369 14.9172L11.907 13.9471C12.1969 13.6571 12.1969 13.1873 11.907 12.8974C11.6172 12.6078 11.1473 12.6078 10.8574 12.8974L9.88728 13.8676L8.91714 12.8974C8.62735 12.6078 8.15735 12.6078 7.86756 12.8974C7.57768 13.1873 7.57768 13.6572 7.86756 13.9471L8.8377 14.9172L7.86756 15.8873C7.57768 16.1772 7.57768 16.6471 7.86756 16.937C8.01245 17.0819 8.20243 17.1543 8.3924 17.1543C8.58237 17.1543 8.77224 17.0819 8.91723 16.937L9.88738 15.9668L10.8575 16.937C11.0024 17.0819 11.1924 17.1543 11.3824 17.1543C11.5723 17.1543 11.7622 17.0819 11.9072 16.937C12.1971 16.6471 12.1971 16.1772 11.9072 15.8873L10.9369 14.9172Z" fill="#FF6B61"/>
<path d="M28.6682 14.1282H14.813C14.4031 14.1282 14.0708 13.7959 14.0708 13.386C14.0708 12.9761 14.4031 12.6438 14.813 12.6438H28.6682C29.0781 12.6438 29.4104 12.9761 29.4104 13.386C29.4104 13.7959 29.0781 14.1282 28.6682 14.1282Z" fill="#E2A876"/>
<path d="M42.7983 49.0001H31.8387C30.1456 49.0001 28.871 47.4584 29.1897 45.7959L29.6202 43.5466C29.7439 42.9014 29.9943 42.2997 30.3495 41.7713C30.9106 40.9292 31.7339 40.2711 32.7176 39.9139L37.3498 38.2336L41.9464 39.9011C42.935 40.2603 43.7613 40.9233 44.3234 41.7724V41.7733C44.6836 42.3146 44.9349 42.9302 45.0537 43.5912L45.4535 45.8277C45.7492 47.4811 44.4785 49.0001 42.7983 49.0001Z" fill="#C2DDFF"/>
<path d="M39.8849 39.1593L39.8839 39.1602C38.3998 40.4557 36.1868 40.4554 34.7031 39.1593V35.6863H39.8849V39.1593Z" fill="#ECBD83"/>
<path d="M41.4087 29.5602V32.5037C41.4087 34.812 39.5197 36.7559 37.2119 36.7114C34.9755 36.6682 33.1765 34.842 33.1765 32.5958V29.5602C33.1765 27.2869 35.0194 26.1006 37.2926 26.1006C39.5658 26.1006 41.4087 27.2869 41.4087 29.5602Z" fill="#F7D4AD"/>
<path d="M33.0144 45.0257V48.9998H31.8387C30.1456 48.9998 28.871 47.4581 29.1897 45.7956L29.6202 43.5463C29.7439 42.9011 29.9943 42.2994 30.3495 41.771C31.8703 42.0748 33.0144 43.4166 33.0144 45.0257Z" fill="#A4CCFF"/>
<path d="M42.7986 48.9999H41.6655V45.0257C41.6655 43.4196 42.8065 42.0787 44.3236 41.7729C44.6838 42.3142 44.9351 42.9298 45.0539 43.5908L45.4536 45.8273C45.7495 47.4809 44.4788 48.9999 42.7986 48.9999Z" fill="#A4CCFF"/>
<path d="M41.4087 29.3592C41.2545 29.4775 41.1399 29.5623 41.1399 29.5623C40.8483 29.7308 40.5317 29.8849 40.1924 30.0211C38.6487 30.6388 37.1397 30.6616 36.4097 30.1501C36.4097 30.1501 35.6474 29.5814 35.3618 29.2182C35.0763 28.855 34.1682 28.7629 33.4155 29.5623C33.3366 29.646 33.2565 29.7009 33.1765 29.7332V29.5623C33.1765 27.2875 35.0201 25.4438 37.295 25.4438C38.4324 25.4438 39.4624 25.905 40.2067 26.6506C40.9081 27.3508 41.3573 28.3019 41.4087 29.3592Z" fill="#6E4848"/>
<path d="M19.4248 17.2158H14.813C14.4031 17.2158 14.0708 16.8835 14.0708 16.4736C14.0708 16.0637 14.4031 15.7314 14.813 15.7314H19.4248C19.8347 15.7314 20.167 16.0637 20.167 16.4736C20.167 16.8835 19.8347 17.2158 19.4248 17.2158Z" fill="#E2A876"/>
<path d="M10.9369 42.346L11.907 41.3758C12.1969 41.0859 12.1969 40.616 11.907 40.3262C11.6172 40.0365 11.1472 40.0365 10.8574 40.3262L9.88728 41.2963L8.91714 40.3262C8.62735 40.0365 8.15745 40.0365 7.86756 40.3262C7.57768 40.616 7.57768 41.0859 7.86756 41.3758L8.8377 42.346L7.86756 43.3161C7.57768 43.606 7.57768 44.0759 7.86756 44.3658C8.01245 44.5107 8.20243 44.5831 8.3924 44.5831C8.58237 44.5831 8.77224 44.5107 8.91723 44.3658L9.88738 43.3957L10.8575 44.3658C11.0024 44.5107 11.1924 44.5831 11.3824 44.5831C11.5722 44.5831 11.7622 44.5107 11.9072 44.3658C12.1971 44.0759 12.1971 43.606 11.9072 43.3161L10.9369 42.346Z" fill="#FF6B61"/>
<path d="M26.4219 41.5569H14.813C14.4031 41.5569 14.0708 41.2246 14.0708 40.8147C14.0708 40.4048 14.4031 40.0725 14.813 40.0725H26.4219C26.8317 40.0725 27.164 40.4048 27.164 40.8147C27.164 41.2247 26.8317 41.5569 26.4219 41.5569Z" fill="#E2A876"/>
<path d="M19.4248 44.6445H14.813C14.4031 44.6445 14.0708 44.3122 14.0708 43.9023C14.0708 43.4924 14.4031 43.1602 14.813 43.1602H19.4248C19.8347 43.1602 20.167 43.4924 20.167 43.9023C20.167 44.3123 19.8347 44.6445 19.4248 44.6445Z" fill="#E2A876"/>
<path d="M33.1762 23.6286H14.813C14.4031 23.6286 14.0708 23.2964 14.0708 22.8865C14.0708 22.4766 14.4031 22.1443 14.813 22.1443H33.1762C33.5861 22.1443 33.9184 22.4766 33.9184 22.8865C33.9184 23.2964 33.5861 23.6286 33.1762 23.6286Z" fill="#E2A876"/>
<path d="M24.2842 26.7168H14.813C14.4031 26.7168 14.0708 26.3845 14.0708 25.9746C14.0708 25.5647 14.4031 25.2324 14.813 25.2324H24.2842C24.6941 25.2324 25.0264 25.5647 25.0264 25.9746C25.0264 26.3846 24.6941 26.7168 24.2842 26.7168Z" fill="#E2A876"/>
<path d="M9.19043 35.1068C9.00046 35.1068 8.81058 35.0343 8.66559 34.8895L7.86752 34.0914C7.57774 33.8016 7.57764 33.3316 7.86752 33.0418C8.15731 32.7519 8.62731 32.752 8.9171 33.0417L9.19359 33.3183L10.8607 31.6719C11.1524 31.3838 11.6223 31.3868 11.9103 31.6784C12.1984 31.97 12.1954 32.44 11.9037 32.728L9.71182 34.8926C9.5674 35.0355 9.37887 35.1068 9.19043 35.1068Z" fill="#95D5A4"/>
<path d="M29.4596 32.4387H14.813C14.4031 32.4387 14.0708 32.1064 14.0708 31.6965C14.0708 31.2866 14.4031 30.9543 14.813 30.9543H29.4596C29.8695 30.9543 30.2018 31.2866 30.2018 31.6965C30.2018 32.1064 29.8695 32.4387 29.4596 32.4387Z" fill="#E2A876"/>
<path d="M24.2842 35.5266H14.813C14.4031 35.5266 14.0708 35.1943 14.0708 34.7844C14.0708 34.3745 14.4031 34.0422 14.813 34.0422H24.2842C24.6941 34.0422 25.0264 34.3745 25.0264 34.7844C25.0264 35.1944 24.6941 35.5266 24.2842 35.5266Z" fill="#E2A876"/>
<path d="M9.88718 7.93622C10.8949 7.93622 11.7119 7.11928 11.7119 6.11154C11.7119 5.1038 10.8949 4.28687 9.88718 4.28687C8.87943 4.28687 8.0625 5.1038 8.0625 6.11154C8.0625 7.11928 8.87943 7.93622 9.88718 7.93622Z" fill="#FF9900"/>
</g>
<defs>
<clipPath id="clip0">
<rect width="49" height="49" fill="white"/>
</clipPath>
</defs>
</svg>
