<?xml version="1.0" encoding="utf-8"?>
<!-- Generator: Adobe Illustrator 19.0.0, SVG Export Plug-In . SVG Version: 6.00 Build 0)  -->
<svg version="1.1" id="Layer_1" xmlns="http://www.w3.org/2000/svg" xmlns:xlink="http://www.w3.org/1999/xlink" x="0px" y="0px"
	 viewBox="-284 376 42 42" style="enable-background:new -284 376 42 42;" xml:space="preserve">
<style type="text/css">
	.st0{fill:#6600FF;}
	.st1{fill:#FFFFFF;}
</style>
<path class="st0" d="M-278,376h30c3.3,0,6,2.7,6,6v30c0,3.3-2.7,6-6,6h-30c-3.3,0-6-2.7-6-6v-30C-284,378.7-281.3,376-278,376z"/>
<path class="st1" d="M-267.1,392.3c1.3-1.3,2.9-2,4.8-2s3.5,0.7,4.7,2c1.3,1.3,2,2.9,2,4.7s-0.7,3.5-2,4.8c-1.3,1.3-2.9,1.9-4.7,1.9
	s-3.5-0.6-4.8-1.9c-1.3-1.3-1.9-2.9-1.9-4.8S-268.4,393.5-267.1,392.3z M-265.4,400.1c0.9,0.9,1.9,1.3,3.1,1.3s2.2-0.4,3.1-1.3
	c0.9-0.9,1.3-1.9,1.3-3.1s-0.4-2.2-1.3-3.1c-0.9-0.9-1.9-1.3-3.1-1.3s-2.2,0.4-3.1,1.3c-0.9,0.9-1.3,1.9-1.3,3.1
	S-266.3,399.2-265.4,400.1z M-254.2,388.9c0.3,0.3,0.5,0.6,0.5,1.1s-0.2,0.8-0.5,1.1c-0.3,0.3-0.6,0.5-1.1,0.5
	c-0.4,0-0.8-0.2-1.1-0.5s-0.5-0.7-0.5-1.1s0.2-0.8,0.5-1.1c0.3-0.3,0.7-0.5,1.1-0.5C-254.9,388.4-254.5,388.6-254.2,388.9z
	 M-249.2,391.6c0,1.1,0.1,2.9,0.1,5.4s0,4.3-0.1,5.4c-0.1,2.4-0.8,4.2-2.2,5.6c-1.3,1.3-3.1,2-5.5,2.1c-1.1,0.1-2.9,0.1-5.4,0.1
	s-4.3,0-5.4-0.1c-2.4-0.1-4.2-0.8-5.5-2.1c-0.5-0.5-0.9-1-1.2-1.6s-0.5-1.2-0.7-1.8c-0.1-0.6-0.2-1.3-0.2-2.1
	c-0.1-1.1-0.1-2.9-0.1-5.4s0-4.4,0.1-5.4c0.1-2.3,0.8-4.2,2.1-5.4c1.3-1.3,3.1-2.1,5.5-2.2c1.1,0,2.9-0.1,5.4-0.1s4.3,0,5.4,0.1
	c2.4,0.1,4.2,0.8,5.5,2.2C-250.1,387.4-249.4,389.2-249.2,391.6z M-252.1,404.7c0.1-0.3,0.2-0.7,0.3-1.2c0.1-0.5,0.1-1.1,0.2-1.8
	c0-0.7,0.1-1.3,0.1-1.7s0-1,0-1.8c0-0.8,0-1.2,0-1.3c0-0.1,0-0.5,0-1.3c0-0.8,0-1.4,0-1.8s0-1-0.1-1.6c0-0.7-0.1-1.3-0.2-1.8
	c-0.1-0.5-0.2-0.9-0.3-1.2c-0.5-1.2-1.3-2.1-2.5-2.5c-0.3-0.1-0.7-0.2-1.2-0.3c-0.5-0.1-1.1-0.1-1.8-0.2c-0.7,0-1.2-0.1-1.6-0.1
	c-0.4,0-1,0-1.8,0c-0.8,0-1.2,0-1.3,0s-0.5,0-1.3,0c-0.8,0-1.4,0-1.8,0c-0.4,0-1,0-1.7,0.1c-0.7,0-1.2,0.1-1.8,0.2
	c-0.5,0.1-0.9,0.2-1.2,0.3c-1.2,0.5-2.1,1.3-2.5,2.5c-0.1,0.3-0.2,0.7-0.3,1.2c-0.1,0.5-0.1,1.1-0.2,1.8c0,0.7-0.1,1.2-0.1,1.6
	c0,0.4,0,1,0,1.8c0,0.8,0,1.2,0,1.3c0,0.2,0,0.5,0,1.1c0,0.5,0,1,0,1.4c0,0.4,0,0.8,0,1.4c0,0.6,0.1,1.1,0.1,1.5
	c0,0.4,0.1,0.8,0.2,1.2c0.1,0.4,0.2,0.8,0.2,1.1c0.5,1.2,1.3,2.1,2.5,2.5c0.3,0.1,0.7,0.2,1.2,0.3c0.5,0.1,1.1,0.1,1.8,0.2
	c0.7,0,1.2,0.1,1.6,0.1c0.4,0,1,0,1.8,0c0.8,0,1.3,0,1.3,0c0.1,0,0.5,0,1.3,0c0.8,0,1.4,0,1.8,0c0.4,0,1,0,1.6-0.1
	c0.7,0,1.3-0.1,1.8-0.2c0.5-0.1,0.9-0.2,1.2-0.3C-253.4,406.7-252.5,405.9-252.1,404.7z"/>
</svg>
