<?xml version="1.0" encoding="utf-8"?>
<!-- Generator: Adobe Illustrator 19.0.0, SVG Export Plug-In . SVG Version: 6.00 Build 0)  -->
<svg version="1.1" id="Layer_1" xmlns="http://www.w3.org/2000/svg" xmlns:xlink="http://www.w3.org/1999/xlink" x="0px" y="0px"
	 viewBox="-284 376 42 42" style="enable-background:new -284 376 42 42;" xml:space="preserve">
<style type="text/css">
	.st0{fill:#6600FF;}
</style>
<path class="st0" d="M-246.5,376c1.2,0,2.3,0.4,3.2,1.3s1.3,1.9,1.3,3.2v33c0,1.2-0.4,2.3-1.3,3.2s-1.9,1.3-3.2,1.3h-12.8v-14.2h5.4
	l1-6.8h-6.5v-4.4c0-2.4,1.2-3.6,3.8-3.6h2.9v-5.7c-1.8-0.3-3.5-0.5-5.2-0.5c-1.8,0-3.4,0.3-4.7,1c-1.2,0.7-2.2,1.7-3,3.1
	c-0.8,1.4-1.1,3-1.1,4.9v5.2h-5.9v6.8h5.9V418h-12.8c-1.2,0-2.3-0.4-3.2-1.3s-1.3-1.9-1.3-3.2v-33c0-1.2,0.4-2.3,1.3-3.2
	s1.9-1.3,3.2-1.3H-246.5z"/>
</svg>
