<?xml version="1.0" encoding="utf-8"?>
<!-- Generator: Adobe Illustrator 19.0.0, SVG Export Plug-In . SVG Version: 6.00 Build 0)  -->
<svg version="1.1" id="Layer_1" xmlns="http://www.w3.org/2000/svg" xmlns:xlink="http://www.w3.org/1999/xlink" x="0px" y="0px"
	 viewBox="-284 376 42 42" style="enable-background:new -284 376 42 42;" xml:space="preserve">
<style type="text/css">
	.st0{fill:#6600FF;}
</style>
<path class="st0" d="M-246.5,376c1.2,0,2.3,0.4,3.2,1.3s1.3,1.9,1.3,3.2v33c0,1.2-0.4,2.3-1.3,3.2s-1.9,1.3-3.2,1.3h-33
	c-1.2,0-2.3-0.4-3.2-1.3s-1.3-1.9-1.3-3.2v-33c0-1.2,0.4-2.3,1.3-3.2s1.9-1.3,3.2-1.3H-246.5z M-251.1,390.9
	c1.2-0.9,2.2-1.9,3.1-3.2c-1.2,0.5-2.4,0.8-3.6,0.9c1.3-0.8,2.2-1.9,2.7-3.4c-1.2,0.7-2.6,1.2-3.9,1.5c-1.2-1.3-2.7-2-4.4-2
	c-1.9,0-3.5,0.8-4.8,2.2s-1.7,3.3-1.2,5.3c-5.2-0.3-9.4-2.5-12.8-6.5c-0.6,0.9-0.8,2-0.8,3.1c0,0.6,0.1,1.3,0.4,2
	c0.2,0.6,0.6,1.2,1,1.8c0.4,0.6,0.9,1,1.4,1.4c-1-0.1-1.9-0.3-2.8-0.8v0.1c0,1.5,0.5,2.8,1.4,3.9s2.1,1.8,3.6,2.2
	c-0.9,0.2-1.8,0.2-2.8,0.1c0.4,1.2,1.1,2.3,2.2,3.1c1.1,0.8,2.2,1.1,3.6,1.1c-2.2,1.8-4.8,2.6-7.6,2.6c-0.6,0-1.1,0-1.5-0.1
	c2.9,1.9,6,2.8,9.5,2.8c3.6,0,6.7-0.9,9.5-2.7c2.8-1.8,4.8-4,6-6.7c1.3-2.6,2-5.3,2-8.2C-251.1,391.3-251.1,391.1-251.1,390.9z"/>
</svg>
