<svg width="800" height="552" viewBox="0 0 800 552" fill="none" xmlns="http://www.w3.org/2000/svg">
<path fill-rule="evenodd" clip-rule="evenodd" d="M741.053 281.847C732.314 281.857 723.683 279.916 715.789 276.164V363.328H682.105V225.653H682.175C682.133 224.719 682.105 223.785 682.105 222.843C682.105 211.174 685.562 199.766 692.04 190.063C698.517 180.36 707.723 172.797 718.494 168.331C729.266 163.865 741.118 162.697 752.553 164.974C763.987 167.25 774.491 172.87 782.735 181.122C790.979 189.373 796.593 199.887 798.867 211.332C801.142 222.778 799.974 234.641 795.513 245.423C791.051 256.204 783.496 265.42 773.802 271.903C764.108 278.386 752.711 281.847 741.053 281.847V281.847ZM741.053 197.556C736.056 197.556 731.172 199.039 727.017 201.818C722.863 204.596 719.625 208.546 717.712 213.166C715.8 217.787 715.3 222.871 716.275 227.777C717.25 232.682 719.656 237.188 723.189 240.724C726.722 244.26 731.223 246.669 736.124 247.645C741.025 248.62 746.104 248.12 750.72 246.206C755.337 244.292 759.282 241.051 762.058 236.892C764.834 232.734 766.316 227.845 766.316 222.843C766.316 216.137 763.654 209.705 758.916 204.963C754.179 200.22 747.753 197.556 741.053 197.556ZM668.07 243.916C668.07 259.565 661.86 274.572 650.805 285.638C639.75 296.703 624.757 302.919 609.123 302.919C593.489 302.919 578.495 296.703 567.441 285.638C556.386 274.572 550.175 259.565 550.175 243.916C550.175 243.677 550.182 243.445 550.189 243.214H550.175V115.135L583.86 95.6685V243.214H583.832C583.846 243.445 583.86 243.684 583.86 243.916C583.86 250.623 586.521 257.054 591.259 261.797C595.997 266.539 602.423 269.203 609.123 269.203C615.823 269.203 622.249 266.539 626.986 261.797C631.724 257.054 634.386 250.623 634.386 243.916C634.386 243.684 634.4 243.445 634.414 243.214H634.386V66.4695L668.07 47.0033V243.214H668.056C668.063 243.445 668.07 243.677 668.07 243.916Z" fill="#0398DF"/>
<path d="M337.544 161.197C350.721 161.197 361.404 150.52 361.404 137.35C361.404 124.18 350.721 113.503 337.544 113.503C324.367 113.503 313.684 124.18 313.684 137.35C313.684 150.52 324.367 161.197 337.544 161.197Z" fill="#0398DF"/>
<path fill-rule="evenodd" clip-rule="evenodd" d="M411.228 195.223L444.912 175.785V356.505L411.228 337.09V195.223ZM336.842 294.215V238.146L370.526 218.711V313.629L336.842 294.215ZM484.21 153.108L517.895 133.671V363.196H484.21V153.108V153.108Z" fill="#6600FF"/>
<path fill-rule="evenodd" clip-rule="evenodd" d="M634.386 48.5905V29.3368L617.425 19.5041L651.277 0L668.07 9.69806V29.1832L634.386 48.5905ZM626.667 53.038L592.281 72.85V53.8853L575.067 43.9074L609.27 24.1985L626.667 34.2465V53.038ZM584.561 77.2975L550.175 97.1088V77.7323L533.319 67.9607L566.912 48.6025L584.561 58.795V77.2975ZM542.456 82.642V101.556L257.361 265.816L426.119 363.196H358.751L223.649 285.237L209.825 293.205V363.196H176.14V123.322H209.825V254.341L525.165 72.6578L542.456 82.642Z" fill="#6600FF"/>
<path fill-rule="evenodd" clip-rule="evenodd" d="M68.0702 156.989C58.9504 156.989 50.2043 160.61 43.7557 167.055C37.307 173.5 33.6842 182.242 33.6842 191.357C33.6842 200.472 37.307 209.213 43.7557 215.658C50.2043 222.104 58.9504 225.724 68.0702 225.724H94.0351C112.088 225.724 129.402 232.892 142.168 245.651C154.934 258.41 162.105 275.715 162.105 293.759C162.105 311.803 154.934 329.107 142.168 341.866C129.402 354.625 112.088 361.793 94.0351 361.793H0V328.127H94.0351C103.155 328.127 111.901 324.506 118.35 318.06C124.798 311.615 128.421 302.874 128.421 293.759C128.421 284.644 124.798 275.902 118.35 269.457C111.901 263.012 103.155 259.391 94.0351 259.391H68.0702C50.0168 259.391 32.7029 252.223 19.9373 239.464C7.17166 226.705 0 209.4 0 191.357C0 173.313 7.17166 156.008 19.9373 143.249C32.7029 130.49 50.0168 123.322 68.0702 123.322H162.105V156.989H68.0702Z" fill="#6600FF"/>
<path d="M194.32 552C178.297 552 166.349 547.788 158.476 539.365C150.74 530.804 146.596 517.271 146.044 498.767L177.745 494.003C177.883 504.636 179.126 512.3 181.474 516.995C183.961 521.552 187.621 523.83 192.456 523.83C198.671 523.83 201.779 519.757 201.779 511.609C201.779 505.119 200.26 499.527 197.221 494.832C194.32 490.137 189.693 485.096 183.339 479.711L168.835 467.076C161.653 461 156.058 454.579 152.053 447.813C148.185 440.908 146.251 432.761 146.251 423.371C146.251 409.286 150.395 398.446 158.683 390.852C167.109 383.257 178.643 379.459 193.284 379.459C209.169 379.459 219.943 384.085 225.607 393.337C231.408 402.589 234.516 413.843 234.931 427.1L203.023 431.035C202.746 422.335 201.917 416.122 200.536 412.393C199.293 408.527 196.461 406.594 192.041 406.594C188.864 406.594 186.378 407.974 184.582 410.736C182.925 413.36 182.096 416.329 182.096 419.643C182.096 425.304 183.339 430.068 185.825 433.935C188.45 437.801 192.594 442.22 198.257 447.191L212.139 459.412C220.427 466.455 226.85 473.911 231.408 481.782C235.967 489.653 238.246 498.974 238.246 509.745C238.246 517.616 236.381 524.797 232.651 531.287C229.06 537.639 223.949 542.679 217.319 546.407C210.689 550.136 203.023 552 194.32 552Z" fill="#0398DF"/>
<path d="M301.088 552C288.104 552 277.951 548.479 270.631 541.436C263.31 534.394 259.649 524.59 259.649 512.024V468.112C259.649 455.407 263.241 445.603 270.423 438.699C277.744 431.656 287.966 428.135 301.088 428.135C314.072 428.135 324.018 431.173 330.924 437.249C337.969 443.325 341.491 452.301 341.491 464.176V476.811H308.962V463.14C308.962 458.584 308.271 455.477 306.89 453.819C305.646 452.024 303.713 451.127 301.088 451.127C298.464 451.127 296.53 452.231 295.287 454.441C294.182 456.512 293.629 460.102 293.629 465.212V514.923C293.629 520.033 294.251 523.623 295.494 525.694C296.737 527.766 298.671 528.801 301.295 528.801C303.92 528.801 305.854 527.904 307.097 526.109C308.34 524.313 308.962 521.275 308.962 516.995V501.045H341.491V515.545C341.491 527.42 337.969 536.465 330.924 542.679C323.88 548.893 313.934 552 301.088 552Z" fill="#0398DF"/>
<path d="M362.419 382.152H395.984V440.77C404.41 432.347 414.217 428.135 425.406 428.135C432.312 428.135 437.699 430.759 441.567 436.006C445.435 441.116 447.368 447.813 447.368 456.098V552H413.803V460.862C413.803 457.824 413.25 455.615 412.145 454.234C411.178 452.715 409.452 451.955 406.966 451.955C404.065 451.955 400.404 453.405 395.984 456.305V552H362.419V382.152Z" fill="#0398DF"/>
<path d="M508.466 552C495.343 552 485.053 548.686 477.594 542.058C470.273 535.429 466.612 525.694 466.612 512.852V467.283C466.612 454.441 470.273 444.706 477.594 438.078C485.053 431.449 495.343 428.135 508.466 428.135C521.588 428.135 531.879 431.518 539.338 438.285C546.797 444.913 550.526 454.579 550.526 467.283V512.852C550.526 525.556 546.797 535.291 539.338 542.058C531.879 548.686 521.588 552 508.466 552ZM508.673 529.63C511.85 529.63 514.06 528.456 515.303 526.109C516.546 523.623 517.168 519.964 517.168 515.131V465.005C517.168 460.172 516.546 456.581 515.303 454.234C514.06 451.748 511.85 450.506 508.673 450.506C505.496 450.506 503.217 451.748 501.836 454.234C500.592 456.719 499.971 460.31 499.971 465.005V515.131C499.971 519.964 500.592 523.623 501.836 526.109C503.217 528.456 505.496 529.63 508.673 529.63Z" fill="#0398DF"/>
<path d="M614.836 552C601.714 552 591.423 548.686 583.964 542.058C576.643 535.429 572.983 525.694 572.983 512.852V467.283C572.983 454.441 576.643 444.706 583.964 438.078C591.423 431.449 601.714 428.135 614.836 428.135C627.958 428.135 638.249 431.518 645.708 438.285C653.167 444.913 656.896 454.579 656.896 467.283V512.852C656.896 525.556 653.167 535.291 645.708 542.058C638.249 548.686 627.958 552 614.836 552ZM615.043 529.63C618.22 529.63 620.43 528.456 621.673 526.109C622.917 523.623 623.538 519.964 623.538 515.131V465.005C623.538 460.172 622.917 456.581 621.673 454.234C620.43 451.748 618.22 450.506 615.043 450.506C611.866 450.506 609.587 451.748 608.206 454.234C606.962 456.719 606.341 460.31 606.341 465.005V515.131C606.341 519.964 606.962 523.623 608.206 526.109C609.587 528.456 611.866 529.63 615.043 529.63Z" fill="#0398DF"/>
<path d="M682.105 382.152H715.79V552H682.105V382.152Z" fill="#0398DF"/>
</svg>
