<svg width="63" height="102" viewBox="0 0 63 102" fill="none" xmlns="http://www.w3.org/2000/svg">
<path d="M26.315 3.12V0.619999C26.0102 0.619999 25.708 0.675734 25.4232 0.784452L26.315 3.12ZM45.35 3.12H47.85C47.85 1.73929 46.7307 0.619999 45.35 0.619999V3.12ZM45.35 77.145H42.85C42.85 78.5257 43.9693 79.645 45.35 79.645V77.145ZM60.296 77.145H62.796C62.796 75.7643 61.6767 74.645 60.296 74.645V77.145ZM60.296 99V101.5C61.6767 101.5 62.796 100.381 62.796 99H60.296ZM3.05 99H0.55C0.55 100.381 1.66929 101.5 3.05 101.5V99ZM3.05 77.145V74.645C1.66929 74.645 0.55 75.7643 0.55 77.145H3.05ZM19.97 77.145V79.645C21.3507 79.645 22.47 78.5257 22.47 77.145H19.97ZM19.97 28.923H22.47C22.47 28.1031 22.0679 27.3352 21.394 26.8682C20.7201 26.4011 19.8599 26.2943 19.0922 26.5822L19.97 28.923ZM3.05 35.268H0.55C0.55 36.0879 0.952076 36.8558 1.62601 37.3228C2.29995 37.7899 3.16007 37.8967 3.92781 37.6088L3.05 35.268ZM3.05 12.003L2.15825 9.66745C1.18978 10.0372 0.55 10.9663 0.55 12.003H3.05ZM26.315 5.62H45.35V0.619999H26.315V5.62ZM42.85 3.12V77.145H47.85V3.12H42.85ZM45.35 79.645H60.296V74.645H45.35V79.645ZM57.796 77.145V99H62.796V77.145H57.796ZM60.296 96.5H3.05V101.5H60.296V96.5ZM5.55 99V77.145H0.55V99H5.55ZM3.05 79.645H19.97V74.645H3.05V79.645ZM22.47 77.145V28.923H17.47V77.145H22.47ZM19.0922 26.5822L2.17219 32.9272L3.92781 37.6088L20.8478 31.2638L19.0922 26.5822ZM5.55 35.268V12.003H0.55V35.268H5.55ZM3.94175 14.3385L27.2068 5.45555L25.4232 0.784452L2.15825 9.66745L3.94175 14.3385Z" fill="#6600FF"/>
</svg>
