<svg width="80" height="106" viewBox="0 0 80 106" fill="none" xmlns="http://www.w3.org/2000/svg">
<path d="M58.053 49.958L57.2422 47.5931C56.2214 47.9431 55.5404 48.9085 55.5532 49.9875C55.5659 51.0665 56.2695 52.0156 57.2983 52.3414L58.053 49.958ZM71.589 58.841L69.6541 60.4241C69.6672 60.4401 69.6805 60.4559 69.694 60.4716L71.589 58.841ZM73.422 88.028L75.5657 89.3142L73.422 88.028ZM64.116 96.911L65.298 99.1139C65.3043 99.1105 65.3106 99.1072 65.3168 99.1037L64.116 96.911ZM51.426 101.564L50.8784 99.1247L51.426 101.564ZM3.486 96.629H0.986001C0.986001 97.654 1.61164 98.5751 2.56444 98.9529L3.486 96.629ZM3.486 72.659L4.73097 70.491C3.95733 70.0468 3.00557 70.0484 2.23349 70.4954C1.4614 70.9423 0.986001 71.7669 0.986001 72.659H3.486ZM34.506 80.555L34.548 83.0546L34.5523 83.0546L34.506 80.555ZM47.055 78.017L48.1473 80.2658C48.1644 80.2574 48.1814 80.2489 48.1984 80.2402L47.055 78.017ZM22.521 62.648L20.0211 62.6319C20.0168 63.2977 20.2782 63.9377 20.7475 64.4101C21.2168 64.8824 21.8552 65.148 22.521 65.148V62.648ZM22.662 40.793L22.6886 38.2931C22.0238 38.2861 21.3835 38.5441 20.9094 39.0102C20.4353 39.4763 20.1663 40.112 20.1621 40.7769L22.662 40.793ZM35.916 40.934L35.9735 38.4347C35.9632 38.4344 35.9529 38.4342 35.9426 38.4341L35.916 40.934ZM5.178 34.871H2.678C2.678 35.7951 3.18776 36.6438 4.00353 37.0779C4.8193 37.5121 5.80802 37.4608 6.5745 36.9446L5.178 34.871ZM5.178 10.901L3.93765 8.73038C3.15872 9.17549 2.678 10.0038 2.678 10.901H5.178ZM62.847 9.773L61.4332 11.8348C61.4444 11.8425 61.4557 11.8501 61.467 11.8576L62.847 9.773ZM70.358 29.654C70.358 34.3153 69.2309 37.999 67.1367 40.8711C65.0384 43.7488 61.8123 46.0262 57.2422 47.5931L58.8638 52.3229C64.1637 50.5058 68.3401 47.7072 71.1768 43.8169C74.0176 39.921 75.358 35.1447 75.358 29.654H70.358ZM57.2983 52.3414C62.5269 53.9971 66.6099 56.7034 69.6541 60.4241L73.5239 57.2579C69.8001 52.7066 64.8591 49.4909 58.8077 47.5746L57.2983 52.3414ZM69.694 60.4716C72.6963 63.9608 74.306 68.6471 74.306 74.774H79.306C79.306 67.7408 77.4377 61.8052 73.484 57.2104L69.694 60.4716ZM74.306 74.774C74.306 79.4694 73.2665 83.4281 71.2783 86.7418L75.5657 89.3142C78.0895 85.1079 79.306 80.2306 79.306 74.774H74.306ZM71.2783 86.7418C69.2568 90.1108 66.4848 92.7635 62.9152 94.7183L65.3168 99.1037C69.6432 96.7345 73.0752 93.4652 75.5657 89.3142L71.2783 86.7418ZM62.934 94.7081C59.2949 96.6608 55.2806 98.1365 50.8784 99.1247L51.9736 104.003C56.7834 102.924 61.2291 101.297 65.298 99.1139L62.934 94.7081ZM50.8784 99.1247C46.4713 100.114 41.7216 100.615 36.621 100.615V105.615C42.0484 105.615 47.1687 105.082 51.9736 104.003L50.8784 99.1247ZM36.621 100.615C25.7658 100.615 15.0327 98.5185 4.40757 94.3051L2.56444 98.9529C13.7473 103.388 25.1042 105.615 36.621 105.615V100.615ZM5.986 96.629V72.659H0.986001V96.629H5.986ZM2.24103 74.827C12.1351 80.5087 22.9213 83.2501 34.548 83.0546L34.464 78.0554C23.7187 78.2359 13.8249 75.7133 4.73097 70.491L2.24103 74.827ZM34.5523 83.0546C39.859 82.9563 44.43 82.0713 48.1473 80.2658L45.9627 75.7682C43.1 77.1587 39.305 77.9657 34.4597 78.0554L34.5523 83.0546ZM48.1984 80.2402C50.1347 79.2444 51.7332 77.9371 52.8424 76.2574C53.9622 74.5618 54.49 72.6268 54.49 70.544H49.49C49.49 71.7512 49.1954 72.7067 48.6701 73.5021C48.1343 74.3134 47.2653 75.0976 45.9116 75.7938L48.1984 80.2402ZM54.49 70.544C54.49 67.0693 52.9667 64.2659 50.0014 62.4803C47.239 60.8169 43.4173 60.148 38.877 60.148V65.148C43.0787 65.148 45.8135 65.7951 47.4221 66.7637C48.8278 67.6101 49.49 68.7547 49.49 70.544H54.49ZM38.877 60.148H22.521V65.148H38.877V60.148ZM25.0209 62.6641L25.1619 40.8091L20.1621 40.7769L20.0211 62.6319L25.0209 62.6641ZM22.6354 43.2929L35.8894 43.4339L35.9426 38.4341L22.6886 38.2931L22.6354 43.2929ZM35.8585 43.4333C40.1156 43.5312 43.7404 42.9817 46.3806 41.434C49.2372 39.7594 50.683 37.0657 50.683 33.743H45.683C45.683 35.4023 45.0843 36.3981 43.852 37.1205C42.4031 37.9698 39.8945 38.5248 35.9735 38.4347L35.8585 43.4333ZM50.683 33.743C50.683 31.9905 50.2821 30.3382 49.3982 28.8735C48.5169 27.413 47.2384 26.2762 45.6905 25.4212C42.6703 23.7528 38.4613 23.065 33.378 23.065V28.065C38.1647 28.065 41.3582 28.7402 43.273 29.7978C44.1926 30.3058 44.7648 30.8727 45.1172 31.4568C45.4671 32.0365 45.683 32.7695 45.683 33.743H50.683ZM33.378 23.065C23.2172 23.065 13.3391 26.3607 3.7815 32.7974L6.5745 36.9446C15.4409 30.9733 24.3628 28.065 33.378 28.065V23.065ZM7.678 34.871V10.901H2.678V34.871H7.678ZM6.41835 13.0716C15.2071 8.04943 25.3445 5.50499 36.903 5.50499V0.504993C24.5855 0.504993 13.5729 3.22456 3.93765 8.73038L6.41835 13.0716ZM36.903 5.50499C47.2841 5.50499 55.3904 7.69117 61.4332 11.8348L64.2608 7.71118C57.1436 2.83082 47.9539 0.504993 36.903 0.504993V5.50499ZM61.467 11.8576C67.3599 15.7586 70.358 21.5538 70.358 29.654H75.358C75.358 20.0821 71.6821 12.6234 64.227 7.68837L61.467 11.8576Z" fill="#0398DF"/>
</svg>
