<svg width="92" height="102" viewBox="0 0 92 102" fill="none" xmlns="http://www.w3.org/2000/svg">
<path d="M51.042 3.12V0.619999C50.2876 0.619999 49.5736 0.960655 49.0989 1.547L51.042 3.12ZM76.422 3.12H78.922C78.922 1.73929 77.8027 0.619999 76.422 0.619999V3.12ZM76.422 62.34H73.922C73.922 63.7207 75.0413 64.84 76.422 64.84V62.34ZM89.112 62.34H91.612C91.612 60.9593 90.4927 59.84 89.112 59.84V62.34ZM89.112 83.49V85.99C90.4927 85.99 91.612 84.8707 91.612 83.49H89.112ZM76.422 83.49V80.99C75.0413 80.99 73.922 82.1093 73.922 83.49H76.422ZM76.422 99V101.5C77.8027 101.5 78.922 100.381 78.922 99H76.422ZM51.747 99H49.247C49.247 100.381 50.3663 101.5 51.747 101.5V99ZM51.747 83.49H54.247C54.247 82.1093 53.1277 80.99 51.747 80.99V83.49ZM3.102 83.49H0.602C0.602 84.8707 1.72129 85.99 3.102 85.99V83.49ZM3.102 62.34L1.15889 60.767C0.798586 61.2121 0.602 61.7674 0.602 62.34H3.102ZM51.747 62.34V64.84C53.1277 64.84 54.247 63.7207 54.247 62.34H51.747ZM51.747 34.281H54.247C54.247 33.2218 53.5795 32.2776 52.581 31.9242C51.5825 31.5709 50.4696 31.8851 49.8034 32.7086L51.747 34.281ZM29.046 62.34L27.1024 60.7676C26.4964 61.5166 26.3748 62.5472 26.7898 63.4168C27.2048 64.2863 28.0825 64.84 29.046 64.84V62.34ZM51.042 5.62H76.422V0.619999H51.042V5.62ZM73.922 3.12V62.34H78.922V3.12H73.922ZM76.422 64.84H89.112V59.84H76.422V64.84ZM86.612 62.34V83.49H91.612V62.34H86.612ZM89.112 80.99H76.422V85.99H89.112V80.99ZM73.922 83.49V99H78.922V83.49H73.922ZM76.422 96.5H51.747V101.5H76.422V96.5ZM54.247 99V83.49H49.247V99H54.247ZM51.747 80.99H3.102V85.99H51.747V80.99ZM5.602 83.49V62.34H0.602V83.49H5.602ZM5.04511 63.913L52.9851 4.693L49.0989 1.547L1.15889 60.767L5.04511 63.913ZM54.247 62.34V34.281H49.247V62.34H54.247ZM49.8034 32.7086L27.1024 60.7676L30.9896 63.9124L53.6906 35.8534L49.8034 32.7086ZM29.046 64.84H51.747V59.84H29.046V64.84Z" fill="#6600FF"/>
</svg>
