<svg width="81" height="104" viewBox="0 0 81 104" fill="none" xmlns="http://www.w3.org/2000/svg">
<path d="M6.46 13.58L5.01603 11.5392C4.35372 12.0078 3.96 12.7687 3.96 13.58H6.46ZM66.667 10.337L65.2165 12.3732V12.3732L66.667 10.337ZM74.845 43.613L77.1527 44.5745L74.845 43.613ZM68.641 52.778L70.4088 54.5458L68.641 52.778ZM60.745 59.828L62.2331 61.8369C62.2488 61.8252 62.2644 61.8134 62.2799 61.8014L60.745 59.828ZM51.58 65.891L52.8722 68.0312L52.8745 68.0297L51.58 65.891ZM34.519 77.03L36.2868 78.7978L34.519 77.03ZM33.25 79.145H30.75C30.75 80.5257 31.8693 81.645 33.25 81.645V79.145ZM77.665 79.145H80.165C80.165 77.7643 79.0457 76.645 77.665 76.645V79.145ZM77.665 101V103.5C79.0457 103.5 80.165 102.381 80.165 101H77.665ZM3.358 101H0.858C0.858 102.381 1.97729 103.5 3.358 103.5V101ZM9.562 68.852L11.6421 70.2387C11.6508 70.2258 11.6593 70.2127 11.6677 70.1996L9.562 68.852ZM16.753 61.379L18.3147 63.3312C18.3259 63.3222 18.337 63.3132 18.348 63.3041L16.753 61.379ZM24.085 55.739L22.7814 53.6058C22.7631 53.617 22.7449 53.6284 22.7269 53.6401L24.085 55.739ZM32.545 50.663L33.8237 52.8112L33.8312 52.8067L32.545 50.663ZM34.66 49.394L35.9463 51.5377C35.9592 51.5299 35.9722 51.522 35.985 51.514L34.66 49.394ZM39.454 46.715L40.6392 48.9162C40.6489 48.911 40.6585 48.9057 40.6681 48.9004L39.454 46.715ZM44.389 43.895L45.714 46.015C45.774 45.9775 45.8324 45.9375 45.889 45.895L44.389 43.895ZM47.491 41.357L45.9293 39.4048C45.9072 39.4225 45.8855 39.4405 45.864 39.4589L47.491 41.357ZM50.17 37.973L47.8623 37.0115C47.8389 37.0676 47.8175 37.1247 47.7983 37.1824L50.17 37.973ZM47.35 27.821L45.9633 29.9011C45.9962 29.9231 46.0298 29.9443 46.0638 29.9647L47.35 27.821ZM6.46 37.55H3.96C3.96 38.5074 4.5068 39.3808 5.36808 39.7989C6.22935 40.2171 7.2538 40.1067 8.00616 39.5145L6.46 37.55ZM7.90398 15.6208C17.4217 8.88655 28.332 5.50499 40.723 5.50499V0.504993C27.358 0.504993 15.4263 4.17344 5.01603 11.5392L7.90398 15.6208ZM40.723 5.50499C50.7625 5.50499 58.8699 7.85232 65.2165 12.3732L68.1175 8.30078C60.7401 3.04567 51.5515 0.504993 40.723 0.504993V5.50499ZM65.2165 12.3732C71.2872 16.6975 74.46 23.3284 74.46 32.756H79.46C79.46 22.0676 75.7708 13.7525 68.1175 8.30078L65.2165 12.3732ZM74.46 32.756C74.46 36.2971 73.8139 39.5876 72.5373 42.6515L77.1527 44.5745C78.6961 40.8704 79.46 36.9229 79.46 32.756H74.46ZM72.5373 42.6515C71.2593 45.7186 69.3804 48.503 66.8732 51.0102L70.4088 54.5458C73.3536 51.601 75.6107 48.2754 77.1527 44.5745L72.5373 42.6515ZM66.8732 51.0102C64.2066 53.6768 61.6521 55.9553 59.2102 57.8546L62.2799 61.8014C64.9139 59.7527 67.6234 57.3312 70.4088 54.5458L66.8732 51.0102ZM59.2569 57.8191C56.7975 59.6409 53.8107 61.6185 50.2855 63.7522L52.8745 68.0297C56.4933 65.8395 59.6165 63.7751 62.2331 61.8369L59.2569 57.8191ZM50.2878 63.7508C45.2957 66.765 41.3543 69.2145 38.475 71.0944C35.6892 72.9132 33.6759 74.3376 32.7512 75.2622L36.2868 78.7978C36.7721 78.3124 38.3073 77.1753 41.2085 75.2811C44.0162 73.448 47.9003 71.033 52.8722 68.0312L50.2878 63.7508ZM32.7512 75.2622C32.2429 75.7706 31.776 76.3196 31.4235 76.907C31.0791 77.481 30.75 78.2483 30.75 79.145H35.75C35.75 79.3173 35.7178 79.4359 35.701 79.4861C35.6849 79.5346 35.6786 79.5335 35.711 79.4795C35.7815 79.3619 35.9491 79.1354 36.2868 78.7978L32.7512 75.2622ZM33.25 81.645H77.665V76.645H33.25V81.645ZM75.165 79.145V101H80.165V79.145H75.165ZM77.665 98.5H3.358V103.5H77.665V98.5ZM5.858 101V89.579H0.858V101H5.858ZM5.858 89.579C5.858 85.6121 6.4743 81.9523 7.68499 78.5797L2.97901 76.8903C1.5577 80.8497 0.858 85.0859 0.858 89.579H5.858ZM7.68499 78.5797C8.95946 75.0293 10.2879 72.2701 11.6421 70.2387L7.48187 67.4652C5.8281 69.9459 4.33654 73.1087 2.97901 76.8903L7.68499 78.5797ZM11.6677 70.1996C12.9698 68.1651 15.1405 65.8705 18.3147 63.3312L15.1913 59.4268C11.7855 62.1515 9.1622 64.8389 7.45632 67.5044L11.6677 70.1996ZM18.348 63.3041C21.6317 60.5833 23.9786 58.7856 25.4431 57.8379L22.7269 53.6401C20.9954 54.7604 18.4543 56.7227 15.158 59.4539L18.348 63.3041ZM25.3886 57.8722C27.0671 56.8465 29.8761 55.161 33.8237 52.8112L31.2663 48.5148C27.3179 50.865 24.4869 52.5635 22.7814 53.6058L25.3886 57.8722ZM33.8312 52.8067C34.7712 52.2427 35.4762 51.8197 35.9463 51.5377L33.3738 47.2503C32.9038 47.5323 32.1988 47.9553 31.2588 48.5193L33.8312 52.8067ZM35.985 51.514C36.6563 51.0944 38.1811 50.2398 40.6392 48.9162L38.2687 44.5138C35.8389 45.8222 34.1677 46.7536 33.335 47.274L35.985 51.514ZM40.6681 48.9004C43.1931 47.4976 44.8972 46.5255 45.714 46.015L43.064 41.775C42.3768 42.2045 40.7909 43.1124 38.2399 44.5296L40.6681 48.9004ZM45.889 45.895C46.7064 45.282 47.7889 44.3944 49.118 43.2551L45.864 39.4589C44.5611 40.5756 43.5756 41.38 42.889 41.895L45.889 45.895ZM49.0527 43.3092C50.6574 42.0255 51.9535 40.5283 52.5417 38.7636L47.7983 37.1824C47.6345 37.6737 47.1446 38.4325 45.9293 39.4048L49.0527 43.3092ZM52.4777 38.9345C53.0927 37.4586 53.375 35.8558 53.375 34.166H48.375C48.375 35.2962 48.1874 36.2314 47.8623 37.0115L52.4777 38.9345ZM53.375 34.166C53.375 30.499 51.7656 27.5549 48.6362 25.6773L46.0638 29.9647C47.6344 30.9071 48.375 32.1929 48.375 34.166H53.375ZM48.7368 25.7409C45.9396 23.8761 42.3951 23.065 38.326 23.065V28.065C41.7769 28.065 44.2484 28.7579 45.9633 29.9011L48.7368 25.7409ZM38.326 23.065C26.5837 23.065 15.4308 27.3083 4.91384 35.5855L8.00616 39.5145C17.7932 31.8117 27.8843 28.065 38.326 28.065V23.065ZM8.96 37.55V13.58H3.96V37.55H8.96Z" fill="#FF7A00"/>
</svg>
