<svg enable-background="new -253 380 105 34" viewBox="-253 380 105 34" xmlns="http://www.w3.org/2000/svg"><g fill="#0398df"><path d="m-243.8 413c-3.1 0-5.3-.8-6.9-2.4-1.5-1.6-2.3-4.2-2.4-7.8l6.1-.9c0 2 .3 3.5.7 4.4.5.9 1.2 1.3 2.1 1.3 1.2 0 1.8-.8 1.8-2.3 0-1.2-.3-2.3-.9-3.2s-1.4-1.9-2.7-2.9l-2.8-2.4c-1.4-1.2-2.4-2.4-3.2-3.7-.7-1.3-1.1-2.9-1.1-4.7 0-2.7.8-4.8 2.4-6.2 1.6-1.5 3.8-2.2 6.6-2.2 3 0 5.1.9 6.2 2.7s1.7 3.9 1.8 6.5l-6.1.8c-.1-1.7-.2-2.9-.5-3.6-.2-.7-.8-1.1-1.6-1.1-.6 0-1.1.3-1.4.8s-.5 1.1-.5 1.7c0 1.1.2 2 .7 2.7s1.3 1.6 2.4 2.5l2.7 2.3c1.6 1.3 2.8 2.8 3.7 4.3s1.3 3.3 1.3 5.3c0 1.5-.4 2.9-1.1 4.1s-1.7 2.2-2.9 2.9c-1.2.8-2.7 1.1-4.4 1.1z"/><path d="m-224.8 412.9c-2.5 0-4.4-.7-5.8-2s-2.1-3.2-2.1-5.6v-8.4c0-2.4.7-4.3 2.1-5.6s3.4-2 5.9-2 4.4.6 5.7 1.7c1.3 1.2 2 2.9 2 5.2v2.4h-6.2v-2.6c0-.9-.1-1.5-.4-1.8-.2-.3-.6-.5-1.1-.5s-.9.2-1.1.6-.3 1.1-.3 2.1v9.5c0 1 .1 1.7.4 2.1.2.4.6.6 1.1.6s.9-.2 1.1-.5.4-.9.4-1.7v-3.1h6.2v2.8c0 2.3-.7 4-2 5.2-1.6 1-3.5 1.6-5.9 1.6z"/><path d="m-213.7 380.4h6.4v11.2c1.6-1.6 3.5-2.4 5.6-2.4 1.3 0 2.4.5 3.1 1.5s1.1 2.3 1.1 3.8v17.9h-6.4v-17c0-.6-.1-1-.3-1.3s-.5-.4-1-.4c-.6 0-1.3.3-2.1.8v17.9h-6.4z"/><path d="m-186.1 412.9c-2.5 0-4.5-.6-5.9-1.9s-2.1-3.1-2.1-5.6v-8.7c0-2.5.7-4.3 2.1-5.6s3.4-1.9 5.9-1.9 4.5.6 5.9 1.9 2.1 3.1 2.1 5.5v8.7c0 2.4-.7 4.3-2.1 5.6-1.4 1.4-3.4 2-5.9 2zm.1-4.3c.6 0 1-.2 1.3-.7.2-.5.4-1.2.4-2.1v-9.6c0-.9-.1-1.6-.4-2.1-.2-.5-.7-.7-1.3-.7s-1 .2-1.3.7c-.2.5-.4 1.2-.4 2.1v9.6c0 .9.1 1.6.4 2.1.2.5.7.7 1.3.7z"/><path d="m-166.9 412.9c-2.5 0-4.5-.6-5.9-1.9s-2.1-3.1-2.1-5.6v-8.7c0-2.5.7-4.3 2.1-5.6s3.4-1.9 5.9-1.9 4.5.6 5.9 1.9 2.1 3.1 2.1 5.5v8.7c0 2.4-.7 4.3-2.1 5.6-1.4 1.4-3.4 2-5.9 2zm0-4.3c.6 0 1-.2 1.3-.7.2-.5.4-1.2.4-2.1v-9.6c0-.9-.1-1.6-.4-2.1-.2-.5-.7-.7-1.3-.7s-1 .2-1.3.7c-.2.5-.4 1.2-.4 2.1v9.6c0 .9.1 1.6.4 2.1s.7.7 1.3.7z"/><path d="m-155 380.4h6.4v32.1h-6.4z"/></g></svg>