<svg width="396" height="596" viewBox="0 0 396 596" fill="none" xmlns="http://www.w3.org/2000/svg">
<path opacity="0.4" d="M143.51 223L107.726 284.758H179.295L143.51 223Z" fill="#ECF7FD">
  <animate attributeName='fill' values='#ECF7FD;#9AD6F2;#ECF7FD' dur='3.1s' repeatCount='indefinite' />
</path>
<path opacity="0.6" d="M179.294 284.759L143.019 223H215.569L179.294 284.759Z" fill="#9AD6F2">
  <animate attributeName='fill' values='#9AD6F2;#9AD6F200;#9AD6F2' dur='3.2s' repeatCount='indefinite' />
</path>
<path d="M287.749 346.497L359.809 470.994H215.689L287.749 346.497Z" fill="#0398DF">
  <animate attributeName='fill' values='#0398DF;#0398DF00;#0398DF' dur='3.3s' repeatCount='indefinite' />
</path>
<path d="M179.832 409.993L144.048 347.255H215.617L179.832 409.993Z" fill="#68C1EC">
  <animate attributeName='fill' values='#68C1EC;#68C1EC00;#68C1EC' dur='3.4s' repeatCount='indefinite' />
</path>
<path d="M323.534 410.236L287.259 347.497H359.809L323.534 410.236Z" fill="#E0F2FB">
  <animate attributeName='fill' values='#E0F2FB;#0398DF;#E0F2FB' dur='3.5s' repeatCount='indefinite' />
</path>
<path d="M324.275 534.739L288 472H359.5L324.275 534.739Z" fill="#E0F2FB">
  <animate attributeName='fill' values='#E0F2FB;#68C1EC;#E0F2FB' dur='3.6s' repeatCount='indefinite' />
</path>
<path d="M143.585 223.242L107.31 160.503H178.811L143.585 223.242Z" fill="#E0F2FB">
  <animate attributeName='fill' values='#E0F2FB;#0398DF;#E0F2FB' dur='3.7s' repeatCount='indefinite' />
</path>
<path d="M144.275 595.739L108 533H179.5L144.275 595.739Z" fill="#E0F2FB">
  <animate attributeName='fill' values='#E0F2FB;#68C1EC;#E0F2FB' dur='3.8s' repeatCount='indefinite' />
</path>
<path d="M286.748 470.993L250.964 409.235H322.533L286.748 470.993Z" fill="#68C1EC">
  <animate attributeName='fill' values='#68C1EC;#68C1EC00;#68C1EC' dur='3.9s' repeatCount='indefinite' />
</path>
<path d="M107.06 160.497L71.2752 98.7391H142.845L107.06 160.497Z" fill="#68C1EC">
  <animate attributeName='fill' values='#68C1EC;#68C1EC00;#68C1EC' dur='4s' repeatCount='indefinite' />
</path>
<path opacity="0.6" d="M143.51 347.497L107.726 284.759H179.295L143.51 347.497Z" fill="#68C1EC">
  <animate attributeName='fill' values='#68C1EC;#68C1EC00;#68C1EC' dur='4.1s' repeatCount='indefinite' />
</path>
<path opacity="0.6" d="M71.0005 408.759L34.7255 347H107.275L71.0005 408.759Z" fill="#68C1EC">
  <animate attributeName='fill' values='#68C1EC;#68C1EC00;#68C1EC' dur='4.2s' repeatCount='indefinite' />
</path>
<path d="M35.7846 409.236L-6.10352e-05 470.994H71.5693L35.7846 409.236Z" fill="#0398DF">
  <animate attributeName='fill' values='#0398DF;#0398DF00;#0398DF' dur='4.3s' repeatCount='indefinite' />
</path>
<path opacity="0.5" d="M251.473 285.738L215.688 347.497H287.258L251.473 285.738Z" fill="#EBF7FC">
  <animate attributeName='fill' values='#EBF7FC;#68C1EC;#EBF7FC' dur='4.4s' repeatCount='indefinite' />
</path>
<path opacity="0.5" d="M215.785 471L180 532.758H251.569L215.785 471Z" fill="#EBF7FC">
  <animate attributeName='fill' values='#EBF7FC;#68C1EC;#EBF7FC' dur='4.5s' repeatCount='indefinite' />
</path>
<path d="M179.905 409.236L144.12 470.994H215.689L179.905 409.236Z" fill="#CCEAF8">
  <animate attributeName='fill' values='#CCEAF8;#0398DF;#CCEAF8' dur='4.6s' repeatCount='indefinite' />
</path>
<path d="M251.473 409.236L215.688 470.994H287.258L251.473 409.236Z" fill="#E0F2FB">
  <animate attributeName='fill' values='#E0F2FB;#0398DF;#E0F2FB' dur='4.7s' repeatCount='indefinite' />
</path>
<path d="M71.7846 98.7385L35.9999 160.497H107.569L71.7846 98.7385Z" fill="#E0F2FB">
  <animate attributeName='fill' values='#E0F2FB;#0398DF;#E0F2FB' dur='4.8s' repeatCount='indefinite' />
</path>
<path opacity="0.4" d="M143.629 346.497L107.845 409.235H179.414L143.629 346.497Z" fill="#E0F2FB">
  <animate attributeName='fill' values='#E0F2FB;#0398DF;#E0F2FB' dur='4.9s' repeatCount='indefinite' />
</path>
<path d="M359.318 347.497L323.533 410.235H395.103L359.318 347.497Z" fill="#EBF7FC">
  <animate attributeName='fill' values='#EBF7FC;#0398DF;#EBF7FC' dur='5s' repeatCount='indefinite' />
</path>
<path d="M359.318 471.993L323.533 410.235H395.103L359.318 471.993Z" fill="#68C1EC">
  <animate attributeName='fill' values='#68C1EC;#68C1EC00;#68C1EC' dur='5.1s' repeatCount='indefinite' />
</path>
<path d="M178.629 160.497L142.845 98.7391H214.414L178.629 160.497Z" fill="#68C1EC">
  <animate attributeName='fill' values='#68C1EC;#68C1EC00;#68C1EC' dur='5.2s' repeatCount='indefinite' />
</path>
<path d="M144.832 470.993L109.048 409.235H179.994L144.832 470.993Z" fill="#0398DF">
  <animate attributeName='fill' values='#0398DF;#0398DF00;#0398DF' dur='5.3s' repeatCount='indefinite' />
</path>
<path d="M324.534 284.738L288.259 346.497H360.809L324.534 284.738Z" fill="#0398DF">
  <animate attributeName='fill' values='#0398DF;#0398DF00;#0398DF' dur='5.4s' repeatCount='indefinite' />
</path>
</svg>
