<svg width="420" height="335" viewBox="0 0 420 335" fill="none" xmlns="http://www.w3.org/2000/svg">
<path opacity="0.9" d="M322.5 224L258 335H387L322.5 224Z" fill="#7301D2">
  <animate attributeName='fill' values='#7301D2;#7301D200;#7301D2' dur='3.1s' repeatCount='indefinite' />
</path>
<path d="M290.5 279L323 335H258L290.5 279Z" fill="#6600FF">
  <animate attributeName='fill' values='#6600FF;#6600FF00;#6600FF' dur='3.2s' repeatCount='indefinite' />
</path>
<path opacity="0.9" d="M193 335L225 279H161L193 335Z" fill="#0398DF">
  <animate attributeName='fill' values='#0398DF;#0398DF00;#0398DF' dur='3.3s' repeatCount='indefinite' />
</path>
<path opacity="0.8" d="M354.5 279L387 223.8L322.5 223.8L354.5 279Z" fill="#2B01D4">
  <animate attributeName='fill' values='#2B01D4;#2B01D400;#2B01D4' dur='3.4s' repeatCount='indefinite' />
</path>
<path d="M161.5 279L194 335H129L161.5 279Z" fill="#6600FF">
  <animate attributeName='fill' values='#6600FF;#6600FF00;#6600FF' dur='3.5s' repeatCount='indefinite' />
</path>
<path d="M323 335L354.5 279H291L323 335Z" fill="#5101D7">
  <animate attributeName='fill' values='#5101D7;#5101D700;#5101D7' dur='3.6s' repeatCount='indefinite' />
</path>
<path opacity="0.8" d="M290.711 167L322.5 224H258L290.711 167Z" fill="#0398DF">
  <animate attributeName='fill' values='#0398DF;#0398DF00;#0398DF' dur='3.7s' repeatCount='indefinite' />
</path>
<path opacity="0.7" d="M355 56L387 112H323L355 56Z" fill="#5C01D7">
  <animate attributeName='fill' values='#5C01D7;#5C01D700;#5C01D7' dur='3.8s' repeatCount='indefinite' />
</path>
<path opacity="0.5" d="M129 224L161 167H97L129 224Z" fill="#81CBEF">
  <animate attributeName='fill' values='#81CBEF;#81CBEF00;#81CBEF' dur='3.9s' repeatCount='indefinite' />
</path>
<path opacity="0.5" d="M258 112L291 56H225L258 112Z" fill="#81CBEF">
  <animate attributeName='fill' values='#81CBEF;#81CBEF00;#81CBEF' dur='4s' repeatCount='indefinite' />
</path>
<path opacity="0.8" d="M258 224L291 279H225L258 224Z" fill="#5C01D7">
  <animate attributeName='fill' values='#5C01D7;#5C01D700;#5C01D7' dur='4.1s' repeatCount='indefinite' />
</path>
<path opacity="0.8" d="M32 167L64 224H0L32 167Z" fill="#0398DF">
  <animate attributeName='fill' values='#0398DF;#0398DF00;#0398DF' dur='4.2s' repeatCount='indefinite' />
</path>
<path d="M387.5 112L420 167H355L387.5 112Z" fill="#5C01D7">
  <animate attributeName='fill' values='#5C01D7;#5C01D700;#5C01D7' dur='4.3s' repeatCount='indefinite' />
</path>
<path d="M387.5 0L420 56H355L387.5 0Z" fill="#7101CC">
  <animate attributeName='fill' values='#7101CC;#7101CC00;#7101CC' dur='4.4s' repeatCount='indefinite' />
</path>
<path opacity="0.4" d="M226 167L258 224H194L226 167Z" fill="#3423F7">
  <animate attributeName='fill' values='#3423F7;#3423F700;#3423F7' dur='4.5s' repeatCount='indefinite' />
</path>
<path opacity="0.4" d="M323 0L355 56H291L323 0Z" fill="#0398DF">
  <animate attributeName='fill' values='#0398DF;#0398DF00;#0398DF' dur='4.6s' repeatCount='indefinite' />
</path>
</svg>
