<svg width="395" height="473" viewBox="0 0 395 473" fill="none" xmlns="http://www.w3.org/2000/svg">
<path opacity="0.9" d="M303.496 420L242.631 315H364.36L303.496 420Z" fill="#0398DF">
  <animate attributeName='fill' values='#0398DF;#0398DF00;#0398DF' dur='3.1s' repeatCount='indefinite' />
</path>
<path d="M273.271 367.913L303.91 315H242.631L273.271 367.913Z" fill="#0398DF">
  <animate attributeName='fill' values='#0398DF;#0398DF00;#0398DF' dur='3.2s' repeatCount='indefinite' />
</path>
<path opacity="0.9" d="M303.496 210L242.631 315H364.36L303.496 210Z" fill="#0398DF">
  <animate attributeName='fill' values='#0398DF;#0398DF00;#0398DF' dur='3.3s' repeatCount='indefinite' />
</path>
<path d="M273.271 262.087L303.91 315H242.631L273.271 262.087Z" fill="#0398DF">
  <animate attributeName='fill' values='#0398DF;#0398DF00;#0398DF' dur='3.4s' repeatCount='indefinite' />
</path>
<path opacity="0.9" d="M181.766 315L211.992 262.087H151.541L181.766 315Z" fill="#0398DF">
  <animate attributeName='fill' values='#0398DF;#0398DF00;#0398DF' dur='3.5s' repeatCount='indefinite' />
</path>
<path opacity="0.8" d="M333.635 261.875L364.361 210H303.479L333.635 261.875Z" fill="#0398DF">
  <animate attributeName='fill' values='#0398DF;#0398DF00;#0398DF' dur='3.6s' repeatCount='indefinite' />
</path>
<path d="M151.541 262.087L182.18 315H120.901L151.541 262.087Z" fill="#0398DF">
  <animate attributeName='fill' values='#0398DF;#0398DF00;#0398DF' dur='3.7s' repeatCount='indefinite' />
</path>
<path d="M303.496 315L333.721 262.087H273.271L303.496 315Z" fill="#0398DF">
  <animate attributeName='fill' values='#0398DF;#0398DF00;#0398DF' dur='3.8s' repeatCount='indefinite' />
</path>
<path opacity="0.8" d="M273.271 157.087L303.516 210H242.631L273.271 157.087Z" fill="#0398DF">
  <animate attributeName='fill' values='#0398DF;#0398DF00;#0398DF' dur='3.9s' repeatCount='indefinite' />
</path>
<path opacity="0.7" d="M334.136 52.9131L364.361 105H303.91L334.136 52.9131Z" fill="#0398DF">
  <animate attributeName='fill' values='#0398DF;#0398DF00;#0398DF' dur='4s' repeatCount='indefinite' />
</path>
<path opacity="0.5" d="M121.316 210L151.541 157.087H91.0903L121.316 210Z" fill="#0398DF">
  <animate attributeName='fill' values='#0398DF;#0398DF00;#0398DF' dur='4.1s' repeatCount='indefinite' />
</path>
<path opacity="0.5" d="M242.631 105L273.271 52.9134H211.992L242.631 105Z" fill="#0398DF">
  <animate attributeName='fill' values='#0398DF;#0398DF00;#0398DF' dur='4.2s' repeatCount='indefinite' />
</path>
<path opacity="0.8" d="M242.631 210L273.271 262.087H211.992L242.631 210Z" fill="#0398DF">
  <animate attributeName='fill' values='#0398DF;#0398DF00;#0398DF' dur='4.3s' repeatCount='indefinite' />
</path>
<path opacity="0.8" d="M30.2254 157.087L60.4507 210H0L30.2254 157.087Z" fill="#0398DF">
  <animate attributeName='fill' values='#0398DF;#0398DF00;#0398DF' dur='4.4s' repeatCount='indefinite' />
</path>
<path d="M364.361 105L395 157.087H333.721L364.361 105Z" fill="#0398DF">
  <animate attributeName='fill' values='#0398DF;#0398DF00;#0398DF' dur='4.5s' repeatCount='indefinite' />
</path>
<path d="M364.361 0L395 52.9134H333.721L364.361 0Z" fill="#0398DF">
  <animate attributeName='fill' values='#0398DF;#0398DF00;#0398DF' dur='4.6s' repeatCount='indefinite' />
</path>
<path opacity="0.4" d="M212.406 157.087L242.631 210H182.18L212.406 157.087Z" fill="#0398DF">
  <animate attributeName='fill' values='#0398DF;#0398DF00;#0398DF' dur='4.7s' repeatCount='indefinite' />
</path>
<path opacity="0.4" d="M303.496 0L333.721 52.9134H273.271L303.496 0Z" fill="#0398DF">
  <animate attributeName='fill' values='#0398DF;#0398DF00;#0398DF' dur='4.8s' repeatCount='indefinite' />
</path>
<path opacity="0.9" d="M181.766 315L211.992 367.913H151.541L181.766 315Z" fill="#0398DF">
  <animate attributeName='fill' values='#0398DF;#0398DF00;#0398DF' dur='4.9s' repeatCount='indefinite' />
</path>
<path opacity="0.8" d="M333.635 368.125L364.361 420H303.479L333.635 368.125Z" fill="#0398DF">
  <animate attributeName='fill' values='#0398DF;#0398DF00;#0398DF' dur='5s' repeatCount='indefinite' />
</path>
<path d="M151.541 367.913L182.18 315H120.901L151.541 367.913Z" fill="#0398DF">
  <animate attributeName='fill' values='#0398DF;#0398DF00;#0398DF' dur='5.1s' repeatCount='indefinite' />
</path>
<path d="M303.496 315L333.721 367.913H273.271L303.496 315Z" fill="#0398DF">
  <animate attributeName='fill' values='#0398DF;#0398DF00;#0398DF' dur='5.2s' repeatCount='indefinite' />
</path>
<path opacity="0.8" d="M273.271 472.913L303.516 420H242.631L273.271 472.913Z" fill="#0398DF">
  <animate attributeName='fill' values='#0398DF;#0398DF00;#0398DF' dur='5.3s' repeatCount='indefinite' />
</path>
<path opacity="0.8" d="M242.631 420L273.271 367.913H211.992L242.631 420Z" fill="#0398DF">
  <animate attributeName='fill' values='#0398DF;#0398DF00;#0398DF' dur='5.4s' repeatCount='indefinite' />
</path>
<path opacity="0.4" d="M212.406 472.913L242.631 420H182.18L212.406 472.913Z" fill="#0398DF">
  <animate attributeName='fill' values='#0398DF;#0398DF00;#0398DF' dur='5.5s' repeatCount='indefinite' />
</path>
</svg>
