<svg width="96" height="22" viewBox="0 0 96 22" fill="none" xmlns="http://www.w3.org/2000/svg">
<path fill-rule="evenodd" clip-rule="evenodd" d="M77.9651 6.62313C78.3296 7.26495 78.4489 7.99517 78.4883 8.81611L78.54 9.9103V17.5616L78.5929 18.657C78.6987 20.4458 79.9915 21.7685 81.7581 21.881L82.8259 21.935V9.9103L82.8788 8.81611C82.9227 8.00436 83.0408 7.26035 83.411 6.61394C83.7882 5.95092 84.3297 5.40083 84.9812 5.0189C85.6326 4.63698 86.3711 4.43666 87.1224 4.43805C87.8737 4.43945 88.6115 4.64251 89.2615 5.02686C89.9116 5.4112 90.4512 5.9633 90.826 6.62772C91.1906 7.26954 91.3042 8.01355 91.3481 8.81611L91.401 9.90686V17.5616L91.4539 18.657C91.5641 20.455 92.8469 21.7777 94.6191 21.881L95.6869 21.935V8.81611C95.6869 6.49634 94.784 4.27153 93.1768 2.63088C91.5696 0.990228 89.3896 0.0680621 87.1163 0.0671488C85.8995 0.0658394 84.6965 0.329508 83.5875 0.84054C82.4786 1.35157 81.4893 2.0982 80.6858 3.03054C79.8819 2.09857 78.8925 1.35212 77.7837 0.840937C76.6749 0.329754 75.472 0.0655737 74.2553 0.0660006C72.4752 0.0660006 70.8234 0.617116 69.4552 1.56894C68.6203 0.618264 66.7525 0.0660006 65.6802 0.0660006V21.935L66.7525 21.881C68.5461 21.7604 69.8423 20.4733 69.912 18.657L69.9694 17.5616V9.9103L70.0223 8.81611C70.0673 7.99058 70.1798 7.26495 70.5455 6.61853C70.9231 5.95592 71.4643 5.40597 72.1153 5.02357C72.7663 4.64118 73.5042 4.43973 74.2553 4.43933C75.007 4.4395 75.7454 4.64135 76.3966 5.02464C77.0477 5.40794 77.5886 5.95919 77.9651 6.62313ZM4.59904 21.8821L5.67135 21.935H21.7447L21.6919 20.8442C21.5467 19.0462 20.2989 17.7327 18.5312 17.6156L17.4589 17.5616H7.81596L20.6724 4.43818L20.6195 3.34858C20.5363 1.5322 19.2356 0.219854 17.4589 0.119964L16.3866 0.0705933L0.313171 0.0660006L0.366055 1.16019C0.506705 2.94099 1.77255 4.28203 3.5256 4.38537L4.59904 4.43933H14.2419L1.38548 17.5628L1.43837 18.657C1.54413 20.4596 2.81898 21.765 4.59904 21.881V21.8821ZM61.4731 3.26706C62.4683 4.2824 63.2578 5.48785 63.7964 6.81456C64.3351 8.14128 64.6123 9.56327 64.6123 10.9993C64.6123 12.4354 64.3351 13.8574 63.7964 15.1841C63.2578 16.5108 62.4683 17.7163 61.4731 18.7316C59.4624 20.7817 56.7362 21.9333 53.8938 21.9333C51.0513 21.9333 48.3252 20.7817 46.3145 18.7316C42.1299 14.4616 42.1299 7.53706 46.3145 3.26706C47.3088 2.25206 48.4893 1.44686 49.7886 0.897421C51.0879 0.347984 52.4806 0.0650763 53.887 0.0648525C55.2958 0.0638544 56.6909 0.346264 57.9926 0.895926C59.2943 1.44559 60.477 2.25172 61.4731 3.26821V3.26706ZM58.4407 6.36364C59.646 7.59449 60.3231 9.26332 60.3231 11.0033C60.3231 12.7434 59.646 14.4122 58.4407 15.6431C57.2345 16.873 55.599 17.5639 53.8938 17.5639C52.1886 17.5639 50.5531 16.873 49.3469 15.6431C48.1416 14.4122 47.4645 12.7434 47.4645 11.0033C47.4645 9.26332 48.1416 7.59449 49.3469 6.36364C50.5531 5.13373 52.1886 4.44284 53.8938 4.44284C55.599 4.44284 57.2345 5.13373 58.4407 6.36364ZM31.3967 0.0648525C32.8032 0.0652271 34.1959 0.348316 35.4952 0.897952C36.7945 1.44759 37.975 2.25301 38.9692 3.26821C43.1549 7.53706 43.1549 14.4627 38.9692 18.7316C36.9585 20.7817 34.2323 21.9333 31.3899 21.9333C28.5475 21.9333 25.8213 20.7817 23.8106 18.7316C19.626 14.4616 19.626 7.53706 23.8106 3.26706C24.8049 2.25206 25.9854 1.44686 27.2848 0.897421C28.5841 0.347984 29.9767 0.0650763 31.3832 0.0648525H31.3967ZM35.9368 6.36135C37.1425 7.59224 37.8198 9.26132 37.8198 11.0016C37.8198 12.7419 37.1425 14.411 35.9368 15.6419C34.7306 16.8718 33.0951 17.5627 31.3899 17.5627C29.6847 17.5627 28.0492 16.8718 26.843 15.6419C25.6377 14.4111 24.9606 12.7422 24.9606 11.0022C24.9606 9.26217 25.6377 7.59334 26.843 6.36249C28.0492 5.13258 29.6847 4.4417 31.3899 4.4417C33.0951 4.4417 34.7306 5.13258 35.9368 6.36249V6.36135Z" fill="#2D8CFF"/>
</svg>
