<svg xmlns="http://www.w3.org/2000/svg" width="236" height="236.72" viewBox="0 0 236 236.72">
  <defs>
    <style>
      .cls-1 {
        fill: #0398df;
      }

      .cls-2 {
        fill: #fff;
        fill-rule: evenodd;
      }
    </style>
  </defs>
  <circle class="cls-1" cx="118" cy="118.72" r="118"/>
  <path class="cls-2" d="M332,1252l3,12,18,1,5-5,2,3,22,1,4,8-9,11-3,17-7-1-3-8-11-1-8-8-13,5v8l10,1,3,10,13-4,4,11-16,16-8-2-15,16H312l-2,15,6,19,13,8,12-8,18,4,26-12,38,19,33-42-3-39,5-11-4-13,5-7-10-3-3-7,4-5v-9l5,1,1,10,10,4-5,6,3,3,11-1,7-10,10,5,2-5-4-13-15-7-10-10-16-2-26-13s-18.42-3.24-44,4C348.687,1232.57,332,1252,332,1252Z" transform="translate(-295 -1219.28)"/>
  <path class="cls-2" d="M470,1305l15-9,9,11,10,2-10-13,10-12,9,9-1,11,7,6v-14l6,4,4,16-15,32-30,9-16-24Z" transform="translate(-295 -1219.28)"/>
</svg>
