<svg xmlns="http://www.w3.org/2000/svg" width="274.969" height="275.97" viewBox="0 0 274.969 275.97">
  <defs>
    <style>
      .cls-1 {
        fill: #ff6000;
      }

      .cls-1, .cls-2, .cls-3, .cls-4 {
        fill-rule: evenodd;
      }

      .cls-2 {
        fill: #0398df;
      }

      .cls-3 {
        fill: #9d67ee;
      }

      .cls-4 {
        fill: none;
        stroke: #ff6000;
        stroke-width: 2px;
        stroke-dasharray: 12 12;
      }
    </style>
  </defs>
  <path id="Polygon_1_copy_2" data-name="Polygon 1 copy 2" class="cls-1" d="M683.948,1330.92a91.126,91.126,0,0,0,44.627,53.62l-16.921,31.35a126.826,126.826,0,0,1-61.774-74.57Zm55.99,58.64a91.039,91.039,0,0,0,50.831,3.14l7.383,34.86a127.063,127.063,0,0,1-70.725-4.65Zm56.83,1.58a90.888,90.888,0,0,0,64.789-84l35.605,1.21a126.532,126.532,0,0,1-90.646,117.06ZM861.556,1301a90.854,90.854,0,0,0-2.78-19.63l34.457-9.01a126.452,126.452,0,0,1,3.929,27.42Zm-4.535-25.51c-0.531-1.6-1.107-3.19-1.724-4.75l33.557-12.03q1.032,2.685,1.947,5.42Zm-2.677-7.12a90.863,90.863,0,0,0-16.6-25.69l26.027-24.31a126.6,126.6,0,0,1,23.772,37.06Zm-20.924-30.08a90.484,90.484,0,0,0-61.512-25.05l1.749-35.6a125.973,125.973,0,0,1,84.081,34.61Zm-67.612-24.94a90.849,90.849,0,0,0-16.192,2.36l-8.751-34.54a126.533,126.533,0,0,1,24.251-3.44Zm-18.615,2.97a90.225,90.225,0,0,0-28.533,13.34L697.9,1200.7a125.754,125.754,0,0,1,39.6-18.67Zm-43.829,26.83c-1.582,1.75-3.083,3.57-4.527,5.44l-28.085-21.92q3.057-3.945,6.406-7.64Zm-5.964,7.34a90.44,90.44,0,0,0-17.458,52.32l-35.618-.49a125.827,125.827,0,0,1,24.407-72.96Zm-53.076,55.33,35.618-.49a91.007,91.007,0,0,0,2.381,19.51l-34.722,8.04A126.783,126.783,0,0,1,644.324,1305.82Zm70.427,111.66,16.053-31.8q3.323,1.62,6.8,2.98l-13.426,33.02Q719.363,1419.76,714.751,1417.48ZM705,1241.41l-25.549-24.83a127,127,0,0,1,15.626-13.84l21.535,28.37A92.371,92.371,0,0,0,705,1241.41Z" transform="translate(-633 -1166.03)"/>
  <path id="Polygon_1_copy_3" data-name="Polygon 1 copy 3" class="cls-2" d="M765.808,1213.35a90.849,90.849,0,0,0-16.192,2.36l-8.751-34.54a126.533,126.533,0,0,1,24.251-3.44Zm-18.615,2.97a90.225,90.225,0,0,0-28.533,13.34L697.9,1200.7a125.754,125.754,0,0,1,39.6-18.67Zm-43.829,26.83c-1.582,1.75-3.083,3.57-4.527,5.44l-28.085-21.92q3.057-3.945,6.406-7.64Zm1.639-1.74-25.549-24.83a127,127,0,0,1,15.626-13.84l21.535,28.37A92.371,92.371,0,0,0,705,1241.41Z" transform="translate(-633 -1166.03)"/>
  <path id="Polygon_1_copy_4" data-name="Polygon 1 copy 4" class="cls-3" d="M861.556,1301a90.854,90.854,0,0,0-2.78-19.63l34.457-9.01a126.452,126.452,0,0,1,3.929,27.42Zm-4.535-25.51c-0.531-1.6-1.107-3.19-1.724-4.75l33.557-12.03q1.032,2.685,1.947,5.42Zm-2.677-7.12a90.863,90.863,0,0,0-16.6-25.69l26.027-24.31a126.6,126.6,0,0,1,23.772,37.06Zm-20.924-30.08a90.484,90.484,0,0,0-61.512-25.05l1.749-35.6a125.973,125.973,0,0,1,84.081,34.61Z" transform="translate(-633 -1166.03)"/>
  <path id="Ellipse_1_copy_2" data-name="Ellipse 1 copy 2" class="cls-4" d="M770.5,1167c75.387,0,136.5,61.34,136.5,137s-61.113,137-136.5,137S634,1379.66,634,1304,695.113,1167,770.5,1167Z" transform="translate(-633 -1166.03)"/>
</svg>
