<svg xmlns="http://www.w3.org/2000/svg" width="471.625" height="386" viewBox="0 0 471.625 386">
  <defs>
    <style>
      .cls-1, .cls-3 {
        fill: #822fff;
      }

      .cls-1, .cls-2, .cls-5, .cls-6, .cls-7, .cls-8, .cls-9 {
        fill-rule: evenodd;
      }

      .cls-2, .cls-4 {
        fill: #fff;
      }

      .cls-5 {
        fill: #0398df;
      }

      .cls-6 {
        fill: #ff6000;
      }

      .cls-7 {
        fill: #bf95ff;
      }

      .cls-8 {
        fill: #fefefe;
      }

      .cls-9 {
        fill: #9d67ee;
      }
    </style>
  </defs>
  <g>
    <path id="Rounded_Rectangle_2_copy_3" data-name="Rounded Rectangle 2 copy 3" class="cls-1" d="M774.151,1527.19H612.091v47.64h61.974a2,2,0,0,1,2,2V1581a2,2,0,0,1-2,2H517.449a2,2,0,0,1-2-2v-4.17a2,2,0,0,1,2-2h61.974v-47.64H417.363a4,4,0,0,1-4-4V1316.13a4,4,0,0,1,4-4H774.151a4,4,0,0,1,4,4v207.06A4,4,0,0,1,774.151,1527.19Z" transform="translate(-413.375 -1197)"/>
    <path id="Rounded_Rectangle_2_copy" data-name="Rounded Rectangle 2 copy" class="cls-2" d="M420.808,1317.57h349.9a2,2,0,0,1,2,2v193.37a2,2,0,0,1-2,2h-349.9a2,2,0,0,1-2-2V1319.57A2,2,0,0,1,420.808,1317.57Z" transform="translate(-413.375 -1197)"/>
    <rect id="Rounded_Rectangle_2_copy_6" data-name="Rounded Rectangle 2 copy 6" class="cls-3" x="379.625" y="205" width="92" height="173" rx="4" ry="4"/>
    <rect id="Rounded_Rectangle_2_copy_6-2" data-name="Rounded Rectangle 2 copy 6" class="cls-4" x="382.625" y="213" width="86" height="144" rx="2" ry="2"/>
  </g>
  <g>
    <path id="Rounded_Rectangle_2_copy_4" data-name="Rounded Rectangle 2 copy 4" class="cls-5" d="M581.423,1324.38H761.178a2,2,0,0,1,2,2v100.81a2,2,0,0,1-2,2H581.423a2,2,0,0,1-2-2V1326.38A2,2,0,0,1,581.423,1324.38Z" transform="translate(-413.375 -1197)"/>
    <path id="Rounded_Rectangle_2_copy_5" data-name="Rounded Rectangle 2 copy 5" class="cls-6" d="M430.336,1404.69H610.091a2,2,0,0,1,2,2v100.8a2,2,0,0,1-2,2H430.336a2,2,0,0,1-2-2v-100.8A2,2,0,0,1,430.336,1404.69Z" transform="translate(-413.375 -1197)"/>
    <path id="Rounded_Rectangle_3_copy_4" data-name="Rounded Rectangle 3 copy 4" class="cls-7" d="M549.117,1350.24H732.233a1,1,0,0,1,1,1v135.48a1,1,0,0,1-1,1H549.117a1,1,0,0,1-1-1V1351.24A1,1,0,0,1,549.117,1350.24Z" transform="translate(-413.375 -1197)"/>
    <path id="Rounded_Rectangle_3_copy_5" data-name="Rounded Rectangle 3 copy 5" class="cls-1" d="M549.117,1350.24H732.233a1,1,0,0,1,1,1v22.5a1,1,0,0,1-1,1H549.117a1,1,0,0,1-1-1v-22.5A1,1,0,0,1,549.117,1350.24Z" transform="translate(-413.375 -1197)"/>
    <path id="Rounded_Rectangle_3_copy_6" data-name="Rounded Rectangle 3 copy 6" class="cls-8" d="M553.2,1378.82H726.788a1,1,0,0,1,1,1v101.45a1,1,0,0,1-1,1H553.2a1,1,0,0,1-1-1V1379.82A1,1,0,0,1,553.2,1378.82Z" transform="translate(-413.375 -1197)"/>
    <path id="Rounded_Rectangle_3_copy_8" data-name="Rounded Rectangle 3 copy 8" class="cls-5" d="M721.344,1440.08h-162.7a1,1,0,0,1-1-1v-6.17a1,1,0,0,1,1-1h162.7a1,1,0,0,1,1,1v6.17A1,1,0,0,1,721.344,1440.08Zm0-13.62h-162.7a1,1,0,0,1-1-1v-6.16a1,1,0,0,1,1-1h162.7a1,1,0,0,1,1,1v6.16A1,1,0,0,1,721.344,1426.46Z" transform="translate(-413.375 -1197)"/>
    <path id="Rounded_Rectangle_3_copy_10" data-name="Rounded Rectangle 3 copy 10" class="cls-8" d="M716.538,1354.32h8.889a1,1,0,0,1,1,1v8.89a1,1,0,0,1-1,1h-8.889a1,1,0,0,1-1-1v-8.89A1,1,0,0,1,716.538,1354.32Zm-16.334,0h8.889a1,1,0,0,1,1,1v8.89a1,1,0,0,1-1,1H700.2a1,1,0,0,1-1-1v-8.89A1,1,0,0,1,700.2,1354.32Zm-16.333,0h8.889a1,1,0,0,1,1,1v8.89a1,1,0,0,1-1,1h-8.889a1,1,0,0,1-1-1v-8.89A1,1,0,0,1,683.871,1354.32Z" transform="translate(-413.375 -1197)"/>
    <path id="Rounded_Rectangle_3" data-name="Rounded Rectangle 3" class="cls-9" d="M456.559,1350.24h79.669a1,1,0,0,1,1,1v135.48a1,1,0,0,1-1,1H456.559a1,1,0,0,1-1-1V1351.24A1,1,0,0,1,456.559,1350.24Z" transform="translate(-413.375 -1197)"/>
    <path id="Rounded_Rectangle_3_copy" data-name="Rounded Rectangle 3 copy" class="cls-1" d="M456.559,1350.24h79.669a1,1,0,0,1,1,1v22.5a1,1,0,0,1-1,1H456.559a1,1,0,0,1-1-1v-22.5A1,1,0,0,1,456.559,1350.24Z" transform="translate(-413.375 -1197)"/>
    <path id="Rounded_Rectangle_3_copy_3" data-name="Rounded Rectangle 3 copy 3" class="cls-5" d="M463.365,1472.74h67.418a1,1,0,0,1,1,1v7.53a1,1,0,0,1-1,1H463.365a1,1,0,0,1-1-1v-7.53A1,1,0,0,1,463.365,1472.74Z" transform="translate(-413.375 -1197)"/>
    <path id="Rounded_Rectangle_3_copy_9" data-name="Rounded Rectangle 3 copy 9" class="cls-8" d="M530.783,1410.13H462a1,1,0,0,1-1-1v-22.5a1,1,0,0,1,1-1h68.78a1,1,0,0,1,1,1v22.5A1,1,0,0,1,530.783,1410.13Zm0-44.92h-8.889a1,1,0,0,1-1-1v-8.89a1,1,0,0,1,1-1h8.889a1,1,0,0,1,1,1v8.89A1,1,0,0,1,530.783,1365.21Zm-16.334,0H505.56a1,1,0,0,1-1-1v-8.89a1,1,0,0,1,1-1h8.889a1,1,0,0,1,1,1v8.89A1,1,0,0,1,514.449,1365.21Zm-16.333,0h-8.89a1,1,0,0,1-1-1v-8.89a1,1,0,0,1,1-1h8.89a1,1,0,0,1,1,1v8.89A1,1,0,0,1,498.116,1365.21Z" transform="translate(-413.375 -1197)"/>
    <path id="Rounded_Rectangle_3_copy_7" data-name="Rounded Rectangle 3 copy 7" class="cls-5" d="M798.568,1412.85h79.669a1,1,0,0,1,1,1v22.5a1,1,0,0,1-1,1H798.568a1,1,0,0,1-1-1v-22.5A1,1,0,0,1,798.568,1412.85Z" transform="translate(-413.375 -1197)"/>
    <path id="Rounded_Rectangle_3_copy_7-2" data-name="Rounded Rectangle 3 copy 7" class="cls-1" d="M806.374,1535.36h67.418a1,1,0,0,1,1,1v7.52a1,1,0,0,1-1,1H806.374a1,1,0,0,1-1-1v-7.52A1,1,0,0,1,806.374,1535.36Z" transform="translate(-413.375 -1197)"/>
    <path id="Rounded_Rectangle_3_copy_7-3" data-name="Rounded Rectangle 3 copy 7" class="cls-6" d="M805.013,1448.24h68.779a1,1,0,0,1,1,1v22.5a1,1,0,0,1-1,1H805.013a1,1,0,0,1-1-1v-22.5A1,1,0,0,1,805.013,1448.24Z" transform="translate(-413.375 -1197)"/>
    <path id="Rounded_Rectangle_3_copy_12" data-name="Rounded Rectangle 3 copy 12" class="cls-9" d="M805.013,1489.08h68.779a1,1,0,0,1,1,1v22.5a1,1,0,0,1-1,1H805.013a1,1,0,0,1-1-1v-22.5A1,1,0,0,1,805.013,1489.08Z" transform="translate(-413.375 -1197)"/>
    <path id="Rounded_Rectangle_3_copy_11" data-name="Rounded Rectangle 3 copy 11" class="cls-8" d="M873.792,1427.83H864.9a1,1,0,0,1-1-1v-8.89a1,1,0,0,1,1-1h8.889a1,1,0,0,1,1,1v8.89A1,1,0,0,1,873.792,1427.83Zm-16.333,0h-8.89a1,1,0,0,1-1-1v-8.89a1,1,0,0,1,1-1h8.89a1,1,0,0,1,1,1v8.89A1,1,0,0,1,857.459,1427.83Zm-16.334,0h-8.889a1,1,0,0,1-1-1v-8.89a1,1,0,0,1,1-1h8.889a1,1,0,0,1,1,1v8.89A1,1,0,0,1,841.125,1427.83Z" transform="translate(-413.375 -1197)"/>
  </g>
  <path class="cls-1" d="M603.008,1266.89H583V1263h19c12.265,0,21-7.88,21-20,0-11.11-9.152-19.56-20-21-3.265-16.91-14.422-20.42-25-21s-17.5,7.46-22,15c-15.362-8.49-22.116,4.1-24,7-9.708-2.46-22.032,7.94-22,20,0.032,12.12,8.735,20,21,20h20v3.89H529.992a23.96,23.96,0,1,1,0-47.92h0.084a17.969,17.969,0,0,1,16.1-9.99h0.312a17.959,17.959,0,0,1,7.783,1.79A27.929,27.929,0,0,1,578.357,1197h0.486a27.991,27.991,0,0,1,27.392,22.21A23.946,23.946,0,0,1,603.008,1266.89Z" transform="translate(-413.375 -1197)"/>
  <path class="cls-6" d="M581.3,1280.01v-25.3h15.092l-29.159-38.79-29.16,38.79h15.093v25.3H581.3Z" transform="translate(-413.375 -1197)"/>
</svg>
