<svg xmlns="http://www.w3.org/2000/svg" width="467.063" height="469.06" viewBox="0 0 467.063 469.06">
  <defs>
    <style>
      .cls-1 {
        fill: none;
        stroke: #822fff;
        stroke-width: 2px;
        stroke-dasharray: 20 20;
      }

      .cls-1, .cls-2, .cls-3 {
        fill-rule: evenodd;
      }

      .cls-2 {
        fill: #9d67ee;
      }

      .cls-3 {
        fill: #0398df;
      }
    </style>
  </defs>
  <path id="Ellipse_1_copy_3" data-name="Ellipse 1 copy 3" class="cls-1" d="M578.527,1089.95c128.42,0,232.526,104.55,232.526,233.52S706.947,1557,578.527,1557,346,1452.45,346,1323.47,450.106,1089.95,578.527,1089.95Z" transform="translate(-345 -1088.94)"/>
  <g>
    <path id="Shape_7_copy" data-name="Shape 7 copy" class="cls-2" d="M626.012,1169.6l2.911-.61a44.325,44.325,0,0,0,41.776,29.09,44.878,44.878,0,0,0,10.176-1.17l1.118,2.74A47.505,47.505,0,0,1,626.012,1169.6Z" transform="translate(-345 -1088.94)"/>
    <path id="Shape_7_copy_2" data-name="Shape 7 copy 2" class="cls-2" d="M638.994,1165.45l2.081-.45a31.736,31.736,0,0,0,37.125,20.05l0.8,1.97A33.916,33.916,0,0,1,638.994,1165.45Z" transform="translate(-345 -1088.94)"/>
  </g>
  <path id="Rounded_Rectangle_4_copy_5" data-name="Rounded Rectangle 4 copy 5" class="cls-3" d="M713.948,1157.26l-10.334.34,8.158-14.13,10.334-.34Zm-15.13-9.16,8.158-14.13,3.334,8.66-8.158,14.13Zm-10.8.5,8.158-14.13,9.334-1.34-8.158,14.13Zm-8.859,6.9-13.156-7.59,17.442-30.21a2.238,2.238,0,0,1,3.074-.82l9.258,5.34a2.246,2.246,0,0,1,.823,3.07Zm-15.94-26.37,8.158-14.13,4.334,7.65-8.158,14.13Zm-9.8-.5,8.158-14.13,8.334-.35-8.158,14.13Zm-6.8-7.5,8.158-14.14,5.334,6.66-8.158,14.13Zm19.913,31.79,7.363,4.28c6.777,3.95,10.219,10.44,7.187,15.5l-0.177.31-31.906-18.55,0.177-.31C651.633,1149.74,659.767,1148.98,666.544,1152.92Zm-2.574,14.28a2.247,2.247,0,1,1-3.075.82A2.245,2.245,0,0,1,663.97,1167.2Z" transform="translate(-345 -1088.94)"/>
</svg>
