<svg xmlns="http://www.w3.org/2000/svg" width="118" height="494" viewBox="0 0 118 494">
  <defs>
    <style>
      .cls-1 {
        fill: #822fff;
      }

      .cls-1, .cls-2 {
        fill-rule: evenodd;
      }

      .cls-2 {
        fill: #ff6000;
      }
    </style>
  </defs>
  <g id="Group_1_copy" data-name="Group 1 copy">
    <path id="Shape_1_copy" data-name="Shape 1 copy" class="cls-1" d="M59,166c-4.215,0-19.729,20.4-18.149,18.275C20.88,211.149.626,264.31,33,344a29.628,29.628,0,0,1,16-7V325.033A59.571,59.571,0,0,0,38,329c-29.065-71.518.5-135.518,21-149.131V166Zm0,0c4.215,0,19.729,20.4,18.149,18.275C97.12,211.149,117.374,264.31,85,344a29.628,29.628,0,0,0-16-7V325.033A59.575,59.575,0,0,1,80,329c29.065-71.518-.5-135.518-21-149.131V166Z"/>
    <path id="Shape_1_copy_2" data-name="Shape 1 copy 2" class="cls-1" d="M59,375c-3.276,0-8-34.54-8-50,0-7.006,2.115-27,8-27v77Zm0,0c3.276,0,8-34.54,8-50,0-7.006-2.115-27-8-27v77Z"/>
    <path class="cls-1" d="M30,346c-6.014,4.254-16.781,17.966-19,29-5.844-8.746-22.324-41.771,6-72C18.887,317.937,25.968,338.463,30,346Z"/>
    <path id="Shape_1_copy_3" data-name="Shape 1 copy 3" class="cls-1" d="M88,346c6,4.254,16.745,17.966,18.959,29,5.832-8.746,22.276-41.771-5.987-72C99.089,317.937,92.024,338.463,88,346ZM59,243a16,16,0,1,1-16,16A16,16,0,0,1,59,243Z"/>
    <path id="Shape_2_copy_5" data-name="Shape 2 copy 5" class="cls-2" d="M50.621,368C38.361,368,35.88,378.8,36,388c0.142,10.856,7.832,25.881,10,28,0.979,0.957.361-7.383,3-9,0.492-.3.463,9.368,4,17,2.883,6.22,8.3,15,10,15,2.414,0-1.2-17.286,7-28,4.027-5.262,13-14.008,13-24,0-3.562,1.354-19-14.725-19,0,10.243-5.351,21.412-9.211,21.412C54.907,389.412,50.621,378.605,50.621,368Z"/>
    <path class="cls-2" d="M70,454c7.719,4.767,8.166,16.259,0,20-4.1,1.878-4.362,2.234-4,7,0.507,6.674,8.237,1.811,9,3,1.261,1.965-6.325,11-10,4-3.747-7.137-6.861-1.039-7-2-1.564-10.811,5.5-12.278,9-15C79.748,461.092,68.2,452.886,70,454Z"/>
  </g>
</svg>
