<svg xmlns="http://www.w3.org/2000/svg" width="118" height="494" viewBox="0 0 118 494">
  <defs>
    <style>
      .cls-1 {
        fill: #822fff;
      }

      .cls-1, .cls-2 {
        fill-rule: evenodd;
      }

      .cls-2 {
        fill: #ff6000;
      }
    </style>
  </defs>
  <g id="Group_1_copy_2" data-name="Group 1 copy 2">
    <path id="Shape_1_copy" data-name="Shape 1 copy" class="cls-1" d="M59,46c-4.215,0-19.729,20.4-18.149,18.276C20.88,91.149.626,144.31,33,224a29.628,29.628,0,0,1,16-7V205.033A59.571,59.571,0,0,0,38,209C8.935,137.482,38.5,73.482,59,59.869V46Zm0,0c4.215,0,19.729,20.4,18.149,18.276C97.12,91.149,117.374,144.31,85,224a29.628,29.628,0,0,0-16-7V205.033A59.575,59.575,0,0,1,80,209c29.065-71.518-.5-135.518-21-149.131V46Z"/>
    <path id="Shape_1_copy_2" data-name="Shape 1 copy 2" class="cls-1" d="M59,255c-3.276,0-8-34.54-8-50,0-7.006,2.115-27,8-27v77Zm0,0c3.276,0,8-34.54,8-50,0-7.006-2.115-27-8-27v77Z"/>
    <path class="cls-1" d="M30,226c-6.014,4.254-16.781,17.966-19,29-5.844-8.747-22.324-41.771,6-72C18.887,197.937,25.968,218.463,30,226Z"/>
    <path id="Shape_1_copy_3" data-name="Shape 1 copy 3" class="cls-1" d="M88,226c6,4.254,16.745,17.966,18.959,29,5.832-8.747,22.276-41.771-5.987-72C99.089,197.937,92.024,218.463,88,226ZM59,123a16,16,0,1,1-16,16A16,16,0,0,1,59,123Z"/>
    <path id="Shape_2_copy_7" data-name="Shape 2 copy 7" class="cls-2" d="M50.621,248C42.849,249.122,37.88,257.8,38,267c0.142,10.856,5.832,21,8,21,1.369,0-.308-2.506,3-4,0.486-.22,1.774,1.287,1,12-0.854,11.825,7.534,23.128,11,26,1.895,1.57-3.527-10.5,8-29,1.826-2.931,2.754,4.242,3,4,5.34-5.246,9-18.912,9-27,0-3.562-4.446-20.205-12.724-22,0,10.243-5.351,21.412-9.211,21.412C54.907,269.412,50.621,258.605,50.621,248Z"/>
    <path id="Shape_8_copy" data-name="Shape 8 copy" class="cls-2" d="M63,461c11.2,2.572,14.185,9.387,5,15-4.315,2.637-7.292,4.325-6,8,0.852,2.425,7,.282,9-6,1.57,7.112-1.9,10.4-5,11-9.107,1.756-12.112-8.2-2-14C78.537,466.666,57.5,459.737,63,461Z"/>
    <path class="cls-2" d="M66,353c6,1.838,11.434,12.235,11,17-0.243,2.666-3.358-3.534-4-2-0.992,2.37-3.764,4.672-6,6-10.631,6.313-2.7,18.431-5,17-6.123-3.81-10.3-9.184-1-15,6.072-3.8,8.676-8.615,8-13C68.024,356.671,64.747,352.616,66,353Z"/>
  </g>
</svg>
