<svg enable-background="new -284 376 42 42" viewBox="-284 376 42 42" xmlns="http://www.w3.org/2000/svg"><path d="m-278 376h30c3.3 0 6 2.7 6 6v30c0 3.3-2.7 6-6 6h-30c-3.3 0-6-2.7-6-6v-30c0-3.3 2.7-6 6-6z" fill="#60f"/><path d="m-267.1 392.3c1.3-1.3 2.9-2 4.8-2s3.5.7 4.7 2c1.3 1.3 2 2.9 2 4.7s-.7 3.5-2 4.8-2.9 1.9-4.7 1.9-3.5-.6-4.8-1.9-1.9-2.9-1.9-4.8.6-3.5 1.9-4.7zm1.7 7.8c.9.9 1.9 1.3 3.1 1.3s2.2-.4 3.1-1.3 1.3-1.9 1.3-3.1-.4-2.2-1.3-3.1-1.9-1.3-3.1-1.3-2.2.4-3.1 1.3-1.3 1.9-1.3 3.1.4 2.2 1.3 3.1zm11.2-11.2c.3.3.5.6.5 1.1s-.2.8-.5 1.1-.6.5-1.1.5c-.4 0-.8-.2-1.1-.5s-.5-.7-.5-1.1.2-.8.5-1.1.7-.5 1.1-.5.8.2 1.1.5zm5 2.7c0 1.1.1 2.9.1 5.4s0 4.3-.1 5.4c-.1 2.4-.8 4.2-2.2 5.6-1.3 1.3-3.1 2-5.5 2.1-1.1.1-2.9.1-5.4.1s-4.3 0-5.4-.1c-2.4-.1-4.2-.8-5.5-2.1-.5-.5-.9-1-1.2-1.6s-.5-1.2-.7-1.8c-.1-.6-.2-1.3-.2-2.1-.1-1.1-.1-2.9-.1-5.4s0-4.4.1-5.4c.1-2.3.8-4.2 2.1-5.4 1.3-1.3 3.1-2.1 5.5-2.2 1.1 0 2.9-.1 5.4-.1s4.3 0 5.4.1c2.4.1 4.2.8 5.5 2.2 1.3 1.1 2 2.9 2.2 5.3zm-2.9 13.1c.1-.3.2-.7.3-1.2s.1-1.1.2-1.8c0-.7.1-1.3.1-1.7s0-1 0-1.8 0-1.2 0-1.3 0-.5 0-1.3 0-1.4 0-1.8 0-1-.1-1.6c0-.7-.1-1.3-.2-1.8s-.2-.9-.3-1.2c-.5-1.2-1.3-2.1-2.5-2.5-.3-.1-.7-.2-1.2-.3s-1.1-.1-1.8-.2c-.7 0-1.2-.1-1.6-.1s-1 0-1.8 0-1.2 0-1.3 0-.5 0-1.3 0-1.4 0-1.8 0-1 0-1.7.1c-.7 0-1.2.1-1.8.2-.5.1-.9.2-1.2.3-1.2.5-2.1 1.3-2.5 2.5-.1.3-.2.7-.3 1.2s-.1 1.1-.2 1.8c0 .7-.1 1.2-.1 1.6v1.8 1.3 1.1 1.4 1.4c0 .6.1 1.1.1 1.5s.1.8.2 1.2.2.8.2 1.1c.5 1.2 1.3 2.1 2.5 2.5.3.1.7.2 1.2.3s1.1.1 1.8.2c.7 0 1.2.1 1.6.1h1.8 1.3 1.3 1.8c.4 0 1 0 1.6-.1.7 0 1.3-.1 1.8-.2s.9-.2 1.2-.3c1.4-.4 2.3-1.2 2.7-2.4z" fill="#fff"/></svg>