<svg enable-background="new 0 0 42 42" viewBox="0 0 42 42" xmlns="http://www.w3.org/2000/svg"><path d="m6 0h30c3.3 0 6 2.7 6 6v30c0 3.3-2.7 6-6 6h-30c-3.3 0-6-2.7-6-6v-30c0-3.3 2.7-6 6-6z" fill="#60f"/><path d="m34 34h-5.8v-9.8c0-.7-.4-1.4-1.1-1.9-.7-.6-1.4-.9-2.2-.9s-1.4.3-1.9.8-.7 1.2-.7 2v9.8h-5.8v-17.3h5.8v2.9c.5-.8 1.2-1.4 2.2-1.8 1-.5 2-.7 2.8-.7 1.8 0 3.3.7 4.6 2s1.9 2.8 1.9 4.5v10.4zm-20.2 0h-5.8v-17.3h5.8zm-2.9-26c.8 0 1.4.3 2 .9.6.5.9 1.2.9 2s-.3 1.4-.9 2c-.5.5-1.2.8-2 .8s-1.4-.3-2-.8c-.5-.6-.8-1.3-.8-2 0-.8.3-1.5.8-2 .5-.6 1.2-.9 2-.9z" fill="#fff"/></svg>