<svg enable-background="new -284 376 42 42" viewBox="-284 376 42 42" xmlns="http://www.w3.org/2000/svg"><path d="m-246.5 376c1.2 0 2.3.4 3.2 1.3s1.3 1.9 1.3 3.2v33c0 1.2-.4 2.3-1.3 3.2s-1.9 1.3-3.2 1.3h-33c-1.2 0-2.3-.4-3.2-1.3s-1.3-1.9-1.3-3.2v-33c0-1.2.4-2.3 1.3-3.2s1.9-1.3 3.2-1.3zm-4.6 14.9c1.2-.9 2.2-1.9 3.1-3.2-1.2.5-2.4.8-3.6.9 1.3-.8 2.2-1.9 2.7-3.4-1.2.7-2.6 1.2-3.9 1.5-1.2-1.3-2.7-2-4.4-2-1.9 0-3.5.8-4.8 2.2s-1.7 3.3-1.2 5.3c-5.2-.3-9.4-2.5-12.8-6.5-.6.9-.8 2-.8 3.1 0 .6.1 1.3.4 2 .2.6.6 1.2 1 1.8s.9 1 1.4 1.4c-1-.1-1.9-.3-2.8-.8v.1c0 1.5.5 2.8 1.4 3.9s2.1 1.8 3.6 2.2c-.9.2-1.8.2-2.8.1.4 1.2 1.1 2.3 2.2 3.1s2.2 1.1 3.6 1.1c-2.2 1.8-4.8 2.6-7.6 2.6-.6 0-1.1 0-1.5-.1 2.9 1.9 6 2.8 9.5 2.8 3.6 0 6.7-.9 9.5-2.7s4.8-4 6-6.7c1.3-2.6 2-5.3 2-8.2-.2-.1-.2-.3-.2-.5z" fill="#60f"/></svg>