<svg enable-background="new -284 376 42 42" viewBox="-284 376 42 42" xmlns="http://www.w3.org/2000/svg"><path d="m-266.5 391.9 8.9 5.1-8.9 5.1zm24.5-11.4v33c0 1.2-.4 2.3-1.3 3.2s-1.9 1.3-3.2 1.3h-33c-1.2 0-2.3-.4-3.2-1.3s-1.3-1.9-1.3-3.2v-33c0-1.2.4-2.3 1.3-3.2s1.9-1.3 3.2-1.3h33c1.2 0 2.3.4 3.2 1.3s1.3 1.9 1.3 3.2zm-3.9 16.5c0-3.7-.2-6.4-.8-8.2-.4-1.6-1.4-2.6-3-3-.8-.2-2.2-.4-4.5-.6-2.2-.1-4.2-.2-6.1-.2h-2.7c-7.1 0-11.6.2-13.3.8-1.6.4-2.6 1.4-3 3-.2.8-.4 1.9-.6 3.3s-.2 2.6-.2 3.6v1.4c0 3.8.2 6.5.8 8.2.4 1.6 1.4 2.6 3 3 .8.2 2.2.4 4.4.6 2.2.1 4.3.2 6.2.2h2.7c7.1 0 11.6-.2 13.3-.8 1.6-.4 2.6-1.4 3-3 .2-.8.4-1.8.6-3.2s.2-2.6.2-3.6z" fill="#60f"/></svg>