<svg xmlns="http://www.w3.org/2000/svg" width="118" height="494" viewBox="0 0 118 494">
  <defs>
    <style>
      .cls-1 {
        fill: #822fff;
        fill-rule: evenodd;
      }
    </style>
  </defs>
  <g>
    <path id="Shape_1_copy" data-name="Shape 1 copy" class="cls-1" d="M59,226c-4.215,0-19.729,20.4-18.149,18.275C20.88,271.149.626,324.31,33,404a29.628,29.628,0,0,1,16-7V385.033A59.571,59.571,0,0,0,38,389c-29.065-71.518.5-135.518,21-149.131V226Zm0,0c4.215,0,19.729,20.4,18.149,18.275C97.12,271.149,117.374,324.31,85,404a29.628,29.628,0,0,0-16-7V385.033A59.575,59.575,0,0,1,80,389c29.065-71.518-.5-135.518-21-149.131V226Z"/>
    <path id="Shape_1_copy_2" data-name="Shape 1 copy 2" class="cls-1" d="M59,435c-3.276,0-8-34.54-8-50,0-7.006,2.115-27,8-27v77Zm0,0c3.276,0,8-34.54,8-50,0-7.006-2.115-27-8-27v77Z"/>
    <path class="cls-1" d="M30,406c-6.014,4.254-16.781,17.966-19,29-5.844-8.746-22.324-41.771,6-72C18.887,377.937,25.968,398.463,30,406Z"/>
    <path id="Shape_1_copy_3" data-name="Shape 1 copy 3" class="cls-1" d="M88,406c6,4.254,16.745,17.966,18.959,29,5.832-8.746,22.276-41.771-5.987-72C99.089,377.937,92.024,398.463,88,406ZM59,303a16,16,0,1,1-16,16A16,16,0,0,1,59,303Z"/>
  </g>
</svg>
