<svg xmlns="http://www.w3.org/2000/svg" width="118" height="494" viewBox="0 0 118 494">
  <defs>
    <style>
      .cls-1 {
        fill: #822fff;
      }

      .cls-1, .cls-2 {
        fill-rule: evenodd;
      }

      .cls-2 {
        fill: #ff6000;
      }
    </style>
  </defs>
  <g id="Group_1_copy_3" data-name="Group 1 copy 3">
    <path id="Shape_1_copy" data-name="Shape 1 copy" class="cls-1" d="M59-134c-4.215,0-19.729,20.4-18.149,18.275C20.88-88.851.626-35.69,33,44a29.629,29.629,0,0,1,16-7V25.033A59.651,59.651,0,0,0,38,29c-29.065-71.517.5-135.518,21-149.131V-134Zm0,0c4.215,0,19.729,20.4,18.149,18.275C97.12-88.851,117.374-35.69,85,44a29.629,29.629,0,0,0-16-7V25.033A59.656,59.656,0,0,1,80,29c29.065-71.517-.5-135.518-21-149.131V-134Z"/>
    <path id="Shape_1_copy_2" data-name="Shape 1 copy 2" class="cls-1" d="M59,75c-3.276,0-8-34.54-8-50,0-7.006,2.115-27,8-27V75Zm0,0c3.276,0,8-34.54,8-50,0-7.006-2.115-27-8-27V75Z"/>
    <path class="cls-1" d="M30,46c-6.014,4.254-16.781,17.966-19,29C5.156,66.254-11.324,33.229,17,3,18.887,17.937,25.968,38.463,30,46Z"/>
    <path id="Shape_1_copy_3" data-name="Shape 1 copy 3" class="cls-1" d="M88,46c6,4.254,16.745,17.966,18.959,29,5.832-8.746,22.276-41.771-5.987-72C99.089,17.937,92.024,38.463,88,46ZM59-57A16,16,0,0,1,75-41,16,16,0,0,1,59-25,16,16,0,0,1,43-41,16,16,0,0,1,59-57Z"/>
    <path id="Shape_2_copy_7" data-name="Shape 2 copy 7" class="cls-2" d="M50.621,68C38.751,70.735,36.706,77.821,36,87c-0.835,10.856,5.832,24,8,24,1.369,0-.245-3.375,3-5,0.516-.258,5.694,5.279,8,15,2.031,8.564-.7,19,1,19,1.075,0,13.49-11.014,16-31,0.157-1.253,3.06,7.1,4,6,4.609-5.381,9-15.912,9-24,0-3.562-4.553-23.2-16.725-23,0,10.243-5.351,21.412-9.211,21.412C54.907,89.412,50.621,78.6,50.621,68Z"/>
  </g>
</svg>
