<svg xmlns="http://www.w3.org/2000/svg" width="118" height="494" viewBox="0 0 118 494">
  <defs>
    <style>
      .cls-1 {
        fill: #822fff;
      }

      .cls-1, .cls-2 {
        fill-rule: evenodd;
      }

      .cls-2 {
        fill: #ff6000;
      }
    </style>
  </defs>
  <g>
    <path id="Shape_1_copy" data-name="Shape 1 copy" class="cls-1" d="M59,226c-4.215,0-19.729,20.4-18.149,18.275C20.88,271.149.626,324.31,33,404a29.628,29.628,0,0,1,16-7V385.033A59.571,59.571,0,0,0,38,389c-29.065-71.518.5-135.518,21-149.131V226Zm0,0c4.215,0,19.729,20.4,18.149,18.275C97.12,271.149,117.374,324.31,85,404a29.628,29.628,0,0,0-16-7V385.033A59.575,59.575,0,0,1,80,389c29.065-71.518-.5-135.518-21-149.131V226Z"/>
    <path id="Shape_1_copy_2" data-name="Shape 1 copy 2" class="cls-1" d="M59,435c-3.276,0-8-34.54-8-50,0-7.006,2.115-27,8-27v77Zm0,0c3.276,0,8-34.54,8-50,0-7.006-2.115-27-8-27v77Z"/>
    <path class="cls-1" d="M30,406c-6.014,4.254-16.781,17.966-19,29-5.844-8.746-22.324-41.771,6-72C18.887,377.937,25.968,398.463,30,406Z"/>
    <path id="Shape_1_copy_3" data-name="Shape 1 copy 3" class="cls-1" d="M88,406c6,4.254,16.745,17.966,18.959,29,5.832-8.746,22.276-41.771-5.987-72C99.089,377.937,92.024,398.463,88,406ZM59,303a16,16,0,1,1-16,16A16,16,0,0,1,59,303Z"/>
    <path id="Shape_2_copy_7" data-name="Shape 2 copy 7" class="cls-2" d="M50.621,428C38.361,428,32.88,436.8,33,446c0.142,10.856,6.832,22,9,22,1.369,0,.754-4.375,4-6,0.516-.258,3.463,4.368,7,12,2.883,6.22,3.3,15,5,15,1.075,0,10.6-11.338,16-24,0.5-1.161,1.06,7.1,2,6,4.609-5.381,11-16.912,11-25,0-3.563-2.646-18-18.724-18,0,10.243-5.351,21.412-9.211,21.412C54.907,449.412,50.621,438.605,50.621,428Z"/>
  </g>
</svg>
