<svg width="695" height="492" viewBox="0 0 695 492" fill="none" xmlns="http://www.w3.org/2000/svg">
<g id="Tiny cute children learning coding 3">
<path id="round3" d="M286.004 284.809V284.071C287.88 284.071 289.77 283.982 291.624 283.825L291.691 284.548C289.815 284.72 287.902 284.809 286.004 284.809ZM280.319 284.563C278.433 284.393 276.535 284.132 274.681 283.788L274.814 283.075C276.646 283.414 278.522 283.67 280.386 283.84L280.319 284.563ZM297.328 283.776L297.196 283.062C299.032 282.718 300.874 282.288 302.671 281.776L302.87 282.474C301.051 282.981 299.187 283.419 297.328 283.766V283.776ZM269.137 282.494C267.32 281.98 265.503 281.372 263.738 280.691L264.001 280.014C265.744 280.689 267.539 281.289 269.336 281.796L269.137 282.494ZM308.267 280.666L308.003 279.99C309.744 279.313 311.475 278.548 313.146 277.714L313.471 278.364C311.78 279.21 310.03 279.973 308.267 280.657V280.666ZM258.536 278.396C256.845 277.552 255.171 276.622 253.563 275.626L253.945 275.008C255.535 275.992 257.189 276.912 258.868 277.744L258.536 278.396ZM318.447 275.589L318.065 274.974C319.651 273.99 321.212 272.917 322.701 271.791L323.142 272.369C321.625 273.5 320.05 274.585 318.439 275.579L318.447 275.589ZM248.866 272.411C247.359 271.272 245.884 270.051 244.486 268.777L244.978 268.241C246.362 269.498 247.819 270.701 249.309 271.83L248.866 272.411ZM327.517 268.721L327.024 268.184C328.405 266.925 329.732 265.587 331.003 264.207L331.539 264.699C330.262 266.096 328.912 267.449 327.509 268.723L327.517 268.721ZM240.456 264.745C239.18 263.35 237.954 261.879 236.814 260.376L237.393 259.936C238.521 261.412 239.732 262.888 240.992 264.256L240.456 264.745ZM335.18 260.317L334.599 259.879C335.727 258.389 336.798 256.829 337.783 255.242L338.401 255.626C337.396 257.237 336.313 258.817 335.173 260.325L335.18 260.317ZM233.587 255.683C232.602 254.079 231.654 252.408 230.81 250.718L231.46 250.394C232.294 252.064 233.218 253.712 234.205 255.299L233.587 255.683ZM341.173 250.657L340.523 250.332C341.355 248.662 342.121 246.93 342.795 245.191L343.475 245.454C342.785 247.23 342.012 248.972 341.168 250.674L341.173 250.657ZM228.496 245.528C227.809 243.766 227.198 241.951 226.681 240.135L227.38 239.936C227.892 241.732 228.496 243.523 229.173 245.264L228.496 245.528ZM345.277 240.067L344.578 239.867C345.087 238.074 345.518 236.231 345.86 234.396L346.574 234.529C346.23 236.386 345.791 238.251 345.277 240.067ZM225.381 234.598C225.034 232.746 224.771 230.849 224.596 228.967L225.32 228.898C225.492 230.76 225.753 232.635 226.095 234.465L225.381 234.598ZM347.36 228.896L346.636 228.829C346.803 226.974 346.882 225.085 346.882 223.213V223.073H347.621V223.216C347.623 225.107 347.525 227.019 347.355 228.896H347.36ZM225.051 223.284H224.313V223.213C224.313 221.343 224.399 219.457 224.559 217.604L225.283 217.668C225.115 219.501 225.037 221.358 225.037 223.213L225.051 223.284ZM346.616 217.464C346.441 215.602 346.178 213.73 345.833 211.897L346.547 211.764C346.897 213.617 347.163 215.511 347.34 217.395L346.616 217.464ZM226.066 212.101L225.352 211.968C225.694 210.111 226.127 208.246 226.642 206.431L227.341 206.628C226.834 208.424 226.405 210.264 226.066 212.101ZM344.538 206.424C344.024 204.628 343.418 202.837 342.741 201.098L343.418 200.834C344.105 202.593 344.718 204.406 345.237 206.224L344.538 206.424ZM229.121 201.294L228.444 201.034C229.123 199.272 229.896 197.521 230.738 195.828L231.391 196.151C230.556 197.823 229.793 199.555 229.121 201.294ZM340.454 195.964C339.617 194.296 338.691 192.645 337.704 191.061L338.319 190.677C339.321 192.281 340.257 193.949 341.104 195.636L340.454 195.964ZM234.129 191.238L233.511 190.857C234.495 189.25 235.586 187.659 236.726 186.161L237.304 186.598C236.177 188.089 235.113 189.651 234.129 191.238ZM334.513 186.434C333.383 184.945 332.17 183.482 330.907 182.116L331.443 181.624C332.721 183.017 333.947 184.488 335.092 185.991L334.513 186.434ZM240.894 182.269L240.355 181.777C241.628 180.377 242.982 179.024 244.375 177.747L244.867 178.284C243.484 179.548 242.152 180.889 240.894 182.269ZM326.918 178.148C325.535 176.894 324.077 175.688 322.585 174.564L323.024 173.984C324.533 175.12 326.007 176.34 327.408 177.612L326.918 178.148ZM249.188 174.69L248.747 174.111C250.254 172.968 251.832 171.883 253.437 170.884L253.821 171.501C252.236 172.488 250.675 173.56 249.188 174.69ZM317.94 171.391C316.349 170.407 314.695 169.492 313.016 168.66L313.341 168.011C315.032 168.849 316.706 169.779 318.316 170.773L317.94 171.391ZM258.728 168.756L258.403 168.109C260.094 167.263 261.85 166.485 263.605 165.799L263.869 166.476C262.128 167.152 260.4 167.92 258.728 168.756ZM307.87 166.399C306.127 165.728 304.333 165.132 302.535 164.626L302.732 163.927C304.552 164.439 306.369 165.044 308.134 165.723L307.87 166.399ZM269.199 164.677L268.999 163.979C270.816 163.46 272.692 163.022 274.541 162.672L274.674 163.386C272.837 163.733 270.996 164.168 269.199 164.68V164.677ZM297.055 163.344C295.221 163.007 293.348 162.751 291.481 162.584L291.548 161.861C293.434 162.028 295.332 162.289 297.188 162.628L297.055 163.344ZM280.245 162.606L280.176 161.883C282.052 161.708 283.965 161.617 285.861 161.615V162.353C283.99 162.36 282.099 162.436 280.245 162.606Z" fill="#9BC1F9"/>
<path id="round4" d="M449.463 225.272V224.534C451.336 224.534 453.227 224.446 455.081 224.288L455.147 225.011C453.271 225.184 451.358 225.272 449.463 225.272ZM443.778 225.026C441.89 224.854 439.994 224.593 438.138 224.251L438.271 223.535C440.105 223.875 441.979 224.133 443.842 224.303L443.778 225.026ZM460.785 224.236L460.652 223.523C462.489 223.181 464.345 222.748 466.128 222.239L466.327 222.938C464.51 223.447 462.646 223.882 460.785 224.229V224.236ZM432.596 222.957C430.777 222.441 428.96 221.835 427.197 221.154L427.458 220.475C429.201 221.149 430.996 221.749 432.793 222.259L432.596 222.957ZM471.724 221.127L471.46 220.45C473.203 219.774 474.934 219.009 476.603 218.175L476.928 218.824C475.237 219.663 473.486 220.436 471.724 221.12V221.127ZM421.993 218.856C420.299 218.015 418.627 217.083 417.017 216.086L417.401 215.469C418.989 216.453 420.644 217.375 422.325 218.207L421.993 218.856ZM481.904 216.052L481.52 215.435C483.105 214.451 484.666 213.38 486.158 212.251L486.596 212.832C485.082 213.966 483.504 215.048 481.899 216.045L481.904 216.052ZM412.317 212.864C410.808 211.727 409.333 210.505 407.935 209.233L408.427 208.694C409.809 209.954 411.266 211.154 412.756 212.286L412.317 212.864ZM490.968 209.186L490.476 208.65C491.857 207.39 493.184 206.055 494.452 204.674L494.989 205.166C493.718 206.559 492.364 207.912 490.968 209.186ZM403.907 205.213C402.63 203.818 401.406 202.347 400.264 200.842L400.842 200.404C401.97 201.88 403.181 203.356 404.442 204.724L403.907 205.213ZM397.039 196.156C396.039 194.549 395.104 192.879 394.259 191.191L394.909 190.867C395.744 192.534 396.669 194.185 397.654 195.772L397.039 196.156ZM504.625 191.127L503.975 190.805C504.809 189.132 505.575 187.403 506.25 185.661L506.927 185.924C506.245 187.698 505.469 189.437 504.625 191.127ZM391.952 185.991C391.268 184.229 390.657 182.416 390.138 180.598L390.837 180.399C391.349 182.195 391.952 183.988 392.629 185.728L391.952 185.991ZM508.734 180.53L508.034 180.333C508.544 178.537 508.977 176.697 509.317 174.859L510.031 174.992C509.686 176.852 509.251 178.714 508.734 180.53ZM388.838 175.063C388.493 173.209 388.227 171.314 388.053 169.43L388.776 169.364C388.949 171.226 389.212 173.098 389.554 174.931L388.838 175.063ZM510.816 169.359L510.093 169.292C510.262 167.44 510.339 165.551 510.339 163.679V163.536H511.077V163.676C511.07 165.573 510.984 167.484 510.811 169.359H510.816ZM388.515 163.75H387.789V163.679C387.789 161.809 387.873 159.92 388.035 158.067L388.759 158.134C388.594 159.964 388.513 161.824 388.513 163.679L388.515 163.75ZM510.075 157.932C509.901 156.07 509.637 154.198 509.292 152.368L510.006 152.232C510.356 154.087 510.622 155.981 510.799 157.863L510.075 157.932ZM389.522 152.574L388.808 152.444C389.151 150.584 389.586 148.719 390.101 146.904L390.8 147.101C390.29 148.887 389.862 150.729 389.522 152.564V152.574ZM507.997 146.896C507.483 145.103 506.877 143.31 506.198 141.573L506.875 141.307C507.562 143.069 508.175 144.882 508.694 146.697L507.997 146.896ZM392.58 141.77L391.901 141.509C392.583 139.745 393.353 137.994 394.198 136.301L394.847 136.624C394.015 138.286 393.252 140.018 392.58 141.76V141.77ZM397.583 131.711L396.965 131.33C397.95 129.723 399.04 128.132 400.18 126.636L400.761 127.071C399.633 128.555 398.565 130.114 397.583 131.701V131.711ZM497.968 126.907C496.838 125.431 495.626 123.955 494.363 122.592L494.898 122.1C496.175 123.494 497.404 124.963 498.546 126.466L497.968 126.907ZM404.351 122.744L403.814 122.252C405.087 120.855 406.438 119.499 407.834 118.225L408.327 118.759C406.955 120.014 405.609 121.352 404.351 122.734V122.744ZM490.377 118.624C488.994 117.367 487.534 116.164 486.042 115.037L486.48 114.459C487.989 115.593 489.464 116.816 490.865 118.085L490.377 118.624ZM412.645 115.153L412.207 114.575C413.713 113.433 415.291 112.348 416.884 111.349L417.268 111.964C415.693 112.951 414.134 114.023 412.645 115.153ZM481.399 111.856C479.806 110.872 478.152 109.955 476.475 109.126L476.798 108.474C478.491 109.315 480.165 110.245 481.776 111.239L481.399 111.856ZM422.187 109.224L421.86 108.575C423.551 107.728 425.306 106.951 427.062 106.267L427.328 106.944C425.587 107.615 423.856 108.383 422.187 109.224ZM471.33 106.867C469.587 106.196 467.789 105.598 465.992 105.091L466.189 104.393C468.008 104.904 469.825 105.509 471.591 106.188L471.33 106.867ZM432.658 105.145L432.458 104.447C434.275 103.928 436.151 103.487 437.998 103.14L438.131 103.854C436.294 104.198 434.452 104.631 432.658 105.145ZM460.514 103.812C458.68 103.475 456.804 103.219 454.941 103.052L455.005 102.329C456.89 102.498 458.789 102.757 460.645 103.099L460.514 103.812ZM443.702 103.074L443.635 102.351C445.511 102.176 447.424 102.085 449.32 102.083V102.808C447.446 102.813 445.556 102.902 443.702 103.074Z" fill="#9BC1F9"/>
<path id="round1" d="M131.009 393.846V392.616C134.185 392.616 137.385 392.466 140.524 392.178L140.637 393.408C137.459 393.693 134.219 393.846 131.009 393.846ZM121.373 393.413C118.172 393.123 114.972 392.675 111.825 392.099L112.049 390.892C115.154 391.465 118.327 391.903 121.483 392.188L121.373 393.413ZM150.177 392.077L149.951 390.869C153.063 390.291 156.182 389.558 159.222 388.692L159.56 389.876C156.487 390.751 153.328 391.492 150.177 392.077ZM102.448 389.91C99.368 389.039 96.2931 388.011 93.3043 386.857L93.7475 385.711C96.7018 386.85 99.7398 387.866 102.783 388.727L102.448 389.91ZM168.703 386.813L168.257 385.666C171.212 384.523 174.137 383.229 176.965 381.814L177.514 382.916C174.651 384.345 171.687 385.657 168.703 386.813ZM84.4833 382.968C81.6201 381.541 78.7864 379.964 76.061 378.279L76.7085 377.234C79.4019 378.899 82.2011 380.459 85.0323 381.866L84.4833 382.968ZM185.929 378.218L185.282 377.172C187.965 375.509 190.607 373.694 193.133 371.785L193.871 372.769C191.321 374.697 188.647 376.533 185.929 378.218ZM68.109 372.835C65.556 370.909 63.0596 368.838 60.6913 366.685L61.5185 365.777C63.8598 367.905 66.3266 369.959 68.8501 371.856L68.109 372.835ZM201.299 366.606L200.469 365.699C202.808 363.566 205.073 361.303 207.205 358.966L208.114 359.795C205.945 362.159 203.652 364.449 201.287 366.606H201.299ZM53.8816 359.878C51.72 357.514 49.6446 355.025 47.712 352.476L48.6968 351.738C50.6048 354.257 52.658 356.717 54.7925 359.054L53.8816 359.878ZM214.276 352.385L213.291 351.647C215.199 349.126 217.013 346.481 218.68 343.797L219.726 344.447C218.03 347.158 216.194 349.832 214.263 352.385H214.276ZM42.2515 344.54C40.5602 341.834 38.9771 338.993 37.5468 336.134L38.6472 335.583C40.0604 338.41 41.6237 341.204 43.2954 343.891L42.2515 344.54ZM224.434 336.029L223.331 335.48C224.744 332.649 226.039 329.719 227.184 326.772L228.331 327.217C227.154 330.198 225.842 333.163 224.414 336.036L224.434 336.029ZM33.6471 327.33C32.4875 324.349 31.4535 321.276 30.5771 318.201L31.7588 317.864C32.6254 320.902 33.6471 323.938 34.7943 326.885L33.6471 327.33ZM231.371 318.078L230.187 317.743C231.051 314.705 231.78 311.593 232.359 308.477L233.57 308.7C232.984 311.854 232.245 315.008 231.371 318.078ZM28.3466 308.821C27.7606 305.682 27.3126 302.472 27.0171 299.284L28.2481 299.17C28.5386 302.322 28.9867 305.493 29.5628 308.595L28.3466 308.821ZM234.887 299.161L233.656 299.05C233.942 295.911 234.087 292.713 234.087 289.542V289.296H235.318V289.542C235.325 292.755 235.177 295.992 234.887 299.166V299.161ZM27.7976 289.663H26.5666V289.542C26.5666 286.376 26.7119 283.18 26.995 280.044L28.2259 280.155C27.9453 283.254 27.8025 286.413 27.8025 289.542L27.7976 289.663ZM233.636 279.803C233.338 276.649 232.898 273.481 232.309 270.379L233.518 270.15C234.109 273.289 234.562 276.497 234.86 279.687L233.636 279.803ZM29.5086 270.73L28.2973 270.507C28.8783 267.36 29.6145 264.204 30.486 261.127L31.6702 261.461C30.8159 264.502 30.0871 267.621 29.5135 270.73H29.5086ZM230.116 261.117C229.247 258.079 228.22 255.045 227.07 252.101L228.22 251.658C229.384 254.637 230.421 257.707 231.302 260.785L230.116 261.117ZM34.6836 252.433L33.5363 251.99C34.6885 249.006 35.9982 246.042 37.4212 243.176L38.5241 243.722C37.1209 246.554 35.8283 249.486 34.6885 252.433H34.6836ZM223.2 243.405C221.785 240.581 220.216 237.789 218.542 235.105L219.586 234.453C221.28 237.159 222.868 239.995 224.301 242.854L223.2 243.405ZM43.1599 235.405L42.1136 234.758C43.7976 232.037 45.6292 229.363 47.5594 226.807L48.5442 227.545C46.6337 230.074 44.8242 232.716 43.1599 235.405ZM213.141 227.267C211.228 224.751 209.175 222.291 207.035 219.958L207.944 219.129C210.105 221.489 212.186 223.976 214.121 226.524L213.141 227.267ZM54.6202 220.219L53.7117 219.39C55.8659 217.024 58.1555 214.716 60.5165 212.571L61.3486 213.476C59.0147 215.612 56.7497 217.88 54.6202 220.219ZM200.287 213.24C197.943 211.115 195.474 209.058 192.948 207.169L193.687 206.185C196.242 208.109 198.741 210.177 201.112 212.335L200.287 213.24ZM68.6654 207.378L67.9269 206.394C70.4774 204.46 73.1486 202.623 75.8666 200.933L76.5165 201.978C73.8256 203.654 71.1864 205.472 68.6654 207.378ZM185.082 201.794C182.389 200.131 179.587 198.576 176.754 197.171L177.303 196.069C180.168 197.491 183.004 199.066 185.73 200.743L185.082 201.794ZM84.8206 197.334L84.2691 196.234C87.1348 194.802 90.0965 193.486 93.0778 192.325L93.5259 193.472C90.579 194.618 87.6444 195.917 84.8206 197.334ZM168.033 193.344C165.079 192.205 162.041 191.194 158.996 190.335L159.331 189.152C162.41 190.02 165.485 191.044 168.477 192.195L168.033 193.344ZM102.546 190.434L102.209 189.253C105.286 188.375 108.443 187.629 111.589 187.039L111.816 188.249C108.711 188.83 105.592 189.568 102.551 190.434H102.546ZM149.719 188.19C146.615 187.619 143.439 187.186 140.283 186.903L140.393 185.673C143.594 185.961 146.794 186.411 149.943 186.975L149.719 188.19ZM121.252 186.935L121.139 185.705C124.317 185.408 127.555 185.255 130.765 185.25V186.48C127.594 186.485 124.393 186.635 121.252 186.928V186.935Z" fill="#9BC1F9"/>
<path id="round5" d="M490.926 447.528V446.298C494.1 446.298 497.3 446.148 500.437 445.86L500.55 447.09C497.374 447.378 494.137 447.526 490.926 447.528ZM481.305 447.098C478.105 446.807 474.904 446.36 471.763 445.784L471.985 444.576C475.089 445.149 478.26 445.587 481.416 445.873L481.305 447.098ZM510.09 445.762L509.864 444.554C512.973 443.976 516.09 443.245 519.13 442.379L519.468 443.563C516.39 444.436 513.236 445.176 510.09 445.752V445.762ZM462.381 443.595C459.303 442.726 456.226 441.698 453.244 440.544L453.688 439.398C456.642 440.539 459.675 441.553 462.715 442.414L462.381 443.595ZM528.606 440.5L528.161 439.356C531.115 438.212 534.035 436.918 536.863 435.506L537.412 436.606C534.547 438.033 531.583 439.356 528.601 440.5H528.606ZM444.428 436.65C441.565 435.226 438.731 433.649 436.011 431.976L436.658 430.931C439.349 432.596 442.146 434.156 444.977 435.563L444.428 436.65ZM545.817 431.902L545.17 430.859C547.853 429.194 550.493 427.383 553.019 425.474L553.757 426.458C551.207 428.392 548.533 430.225 545.808 431.91L545.817 431.902ZM428.061 426.522C425.508 424.596 423.014 422.527 420.649 420.372L421.476 419.464C423.815 421.592 426.281 423.646 428.802 425.541L428.061 426.522ZM561.168 420.298L560.338 419.391C562.674 417.26 564.939 414.995 567.069 412.66L567.977 413.489C565.823 415.858 563.533 418.151 561.168 420.306V420.298ZM413.829 413.573C411.67 411.211 409.597 408.722 407.674 406.176L408.659 405.438C410.569 407.957 412.618 410.414 414.752 412.749L413.829 413.573ZM574.134 406.085L573.15 405.347C575.058 402.823 576.87 400.181 578.536 397.499L579.58 398.146C577.901 400.869 576.067 403.538 574.134 406.092V406.085ZM402.206 398.242C400.515 395.536 398.934 392.7 397.504 389.841L398.602 389.293C400.018 392.117 401.581 394.909 403.25 397.595L402.206 398.242ZM584.28 389.738L583.18 389.189C584.593 386.358 585.888 383.43 587.028 380.486L588.175 380.931C587.02 383.917 585.708 386.882 584.28 389.745V389.738ZM393.599 381.054C392.44 378.073 391.406 375.002 390.529 371.927L391.714 371.59C392.58 374.629 393.599 377.662 394.747 380.609L393.599 381.054ZM591.235 371.812L590.051 371.475C590.912 368.439 591.644 365.325 592.222 362.215L593.431 362.439C592.845 365.583 592.106 368.737 591.235 371.809V371.812ZM388.321 362.56C387.735 359.421 387.287 356.215 386.994 353.027L388.225 352.912C388.516 356.063 388.964 359.234 389.54 362.333L388.321 362.56ZM387.775 343.411H386.544V343.291C386.544 340.127 386.686 336.934 386.969 333.797L388.2 333.908C387.92 337.008 387.779 340.164 387.779 343.291L387.775 343.411ZM593.502 333.551C593.207 330.4 592.764 327.232 592.178 324.132L593.387 323.906C593.978 327.042 594.428 330.248 594.726 333.436L593.502 333.551ZM389.488 324.474L388.279 324.253C388.858 321.106 389.594 317.953 390.463 314.878L391.647 315.212C390.788 318.258 390.062 321.372 389.488 324.474ZM589.984 314.88C589.115 311.844 588.091 308.811 586.941 305.869L588.089 305.421C589.251 308.4 590.287 311.468 591.168 314.543L589.984 314.88ZM394.661 306.204L393.513 305.761C394.665 302.777 395.975 299.813 397.398 296.949L398.499 297.495C397.09 300.319 395.798 303.249 394.661 306.196V306.204ZM583.074 297.168C581.658 294.346 580.09 291.554 578.418 288.873L579.462 288.221C581.153 290.927 582.739 293.761 584.174 296.617L583.074 297.168ZM403.127 289.173L402.081 288.526C403.765 285.808 405.594 283.134 407.522 280.58L408.506 281.318C406.598 283.847 404.791 286.489 403.127 289.176V289.173ZM573.014 281.04C571.101 278.524 569.048 276.066 566.914 273.737L567.82 272.905C569.981 275.264 572.059 277.751 573.994 280.285L573.014 281.04ZM414.587 273.997L413.676 273.171C415.831 270.804 418.108 268.512 420.479 266.354L421.311 267.259C418.972 269.392 416.709 271.658 414.587 273.997ZM428.62 261.168L427.882 260.184C430.432 258.251 433.101 256.416 435.816 254.726L436.466 255.769C433.776 257.444 431.139 259.257 428.62 261.168ZM544.971 255.594C542.28 253.931 539.478 252.376 536.647 250.972L537.196 249.872C540.059 251.292 542.893 252.866 545.618 254.546L544.971 255.594ZM444.77 251.129L444.219 250.032C447.082 248.6 450.044 247.284 453.023 246.126L453.468 247.272C450.531 248.411 447.594 249.71 444.766 251.124L444.77 251.129ZM527.937 247.141C524.982 246.005 521.947 244.994 518.904 244.138L519.239 242.955C522.318 243.82 525.393 244.844 528.38 245.995L527.937 247.141ZM462.486 244.229L462.149 243.048C465.224 242.17 468.378 241.427 471.524 240.834L471.751 242.042C468.641 242.627 465.524 243.363 462.486 244.229ZM509.617 241.978C506.513 241.41 503.339 240.977 500.186 240.694L500.297 239.464C503.497 239.752 506.698 240.19 509.841 240.765L509.617 241.978ZM481.167 240.726L481.052 239.496C484.228 239.201 487.453 239.046 490.675 239.041V240.271C487.514 240.283 484.316 240.433 481.177 240.726H481.167Z" fill="#9BC1F9"/>
<path id="round2" d="M256.465 253.077V252.093C258.979 252.093 261.515 251.975 264.001 251.747L264.09 252.716C261.576 252.957 259.009 253.075 256.465 253.077ZM248.833 252.735C246.305 252.507 243.759 252.155 241.27 251.695L241.448 250.738C243.91 251.193 246.421 251.537 248.922 251.766L248.833 252.735ZM271.643 251.678L271.466 250.721C273.928 250.261 276.39 249.683 278.81 248.999L279.076 249.936C276.646 250.627 274.144 251.213 271.65 251.678H271.643ZM233.838 249.956C231.398 249.267 228.963 248.453 226.597 247.537L226.947 246.63C229.286 247.533 231.694 248.337 234.104 249.018L233.838 249.956ZM286.314 247.496L285.962 246.588C288.296 245.683 290.617 244.657 292.855 243.537L293.288 244.408C291.033 245.552 288.684 246.59 286.321 247.508L286.314 247.496ZM219.618 244.462C217.348 243.333 215.105 242.084 212.946 240.748L213.461 239.921C215.593 241.24 217.811 242.475 220.051 243.589L219.618 244.462ZM299.965 240.701L299.453 239.872C301.578 238.554 303.67 237.117 305.672 235.604L306.26 236.381C304.236 237.911 302.119 239.358 299.965 240.701ZM206.658 236.435C204.635 234.91 202.658 233.272 200.782 231.565L201.439 230.844C203.293 232.531 205.245 234.15 207.244 235.661L206.658 236.435ZM312.139 231.515L311.482 230.797C313.333 229.107 315.128 227.314 316.817 225.464L317.536 226.121C315.82 227.98 314.003 229.796 312.129 231.503L312.139 231.515ZM195.37 226.175C193.647 224.303 192.015 222.33 190.483 220.313L191.261 219.722C192.773 221.72 194.398 223.658 196.089 225.518L195.37 226.175ZM322.405 220.239L321.63 219.653C323.142 217.653 324.584 215.562 325.896 213.434L326.726 213.949C325.389 216.101 323.937 218.217 322.405 220.239ZM186.158 214.02C184.819 211.867 183.565 209.629 182.43 207.363L183.302 206.928C184.422 209.166 185.663 211.378 186.995 213.506L186.158 214.02ZM330.446 207.28L329.575 206.844C330.692 204.603 331.719 202.283 332.625 199.956L333.533 200.308C332.617 202.667 331.579 205.016 330.446 207.284V207.28ZM179.338 200.392C178.418 198.027 177.6 195.595 176.906 193.159L177.841 192.893C178.528 195.299 179.338 197.703 180.247 200.027L179.338 200.392ZM335.956 193.066L335.02 192.8C335.702 190.394 336.281 187.924 336.744 185.462L337.701 185.639C337.234 188.138 336.648 190.635 335.956 193.071V193.066ZM175.156 185.73C174.69 183.243 174.336 180.702 174.102 178.175L175.072 178.084C175.303 180.581 175.655 183.093 176.113 185.55L175.156 185.73ZM338.743 178.079L337.773 177.991C337.999 175.506 338.115 172.972 338.115 170.461V170.271H339.1V170.478C339.09 173.012 338.972 175.575 338.743 178.089V178.079ZM174.72 170.567H173.735V170.478C173.735 167.971 173.848 165.44 174.072 162.955L175.042 163.041C174.821 165.501 174.707 167.998 174.707 170.478L174.72 170.567ZM337.753 162.751C337.507 160.254 337.167 157.745 336.704 155.287L337.662 155.108C338.13 157.592 338.487 160.134 338.725 162.66L337.753 162.751ZM176.079 155.568L175.121 155.391C175.581 152.896 176.165 150.397 176.844 147.962L177.782 148.225C177.11 150.633 176.534 153.103 176.079 155.568ZM334.966 147.942C334.277 145.536 333.467 143.133 332.556 140.808L333.462 140.454C334.385 142.815 335.205 145.246 335.904 147.681L334.966 147.942ZM180.178 141.076L179.269 140.724C180.183 138.36 181.217 136.011 182.347 133.743L183.221 134.176C182.103 136.419 181.081 138.744 180.178 141.076ZM329.491 133.925C328.368 131.686 327.125 129.475 325.798 127.349L326.625 126.835C327.967 128.985 329.222 131.224 330.36 133.477L329.491 133.925ZM186.889 127.588L186.059 127.074C187.394 124.921 188.844 122.803 190.373 120.779L191.151 121.364C189.639 123.364 188.206 125.46 186.889 127.588ZM321.527 121.143C320.012 119.148 318.385 117.207 316.691 115.354L317.413 114.697C319.136 116.565 320.771 118.535 322.304 120.552L321.527 121.143ZM195.969 115.558L195.247 114.904C196.953 113.03 198.768 111.214 200.639 109.492L201.296 110.21C199.445 111.91 197.653 113.706 195.969 115.558ZM311.339 110.033C309.483 108.348 307.528 106.732 305.526 105.224L306.112 104.447C308.139 105.972 310.118 107.608 311.994 109.313L311.339 110.033ZM207.089 105.394L206.501 104.616C208.519 103.084 210.637 101.63 212.788 100.292L213.303 101.118C211.176 102.439 209.086 103.878 207.089 105.394ZM299.295 100.966C297.161 99.6497 294.943 98.4172 292.7 97.3028L293.133 96.432C295.403 97.5562 297.648 98.8034 299.807 100.137L299.295 100.966ZM219.884 97.4332L219.448 96.5624C221.715 95.4283 224.064 94.3877 226.425 93.4677L226.78 94.3754C224.446 95.2832 222.126 96.3115 219.884 97.4332ZM285.792 94.2721C283.453 93.3718 281.045 92.5723 278.635 91.8908L278.898 90.9536C281.338 91.6424 283.775 92.4517 286.141 93.3644L285.792 94.2721ZM233.929 91.9696L233.661 91.0323C236.098 90.3361 238.584 89.7482 241.091 89.2808L241.27 90.2377C238.806 90.7002 236.344 91.2832 233.929 91.9696ZM271.286 90.1861C268.824 89.7334 266.311 89.3915 263.812 89.1676L263.9 88.1984C266.429 88.4247 268.974 88.7716 271.463 89.2291L271.286 90.1861ZM248.74 89.2021L248.649 88.2328C251.167 87.9991 253.733 87.8786 256.281 87.8737V88.8577C253.762 88.8429 251.226 88.961 248.74 89.1922V89.2021Z" fill="#9BC1F9"/>
<path id="round_gear" d="M548.228 117.804C509.448 116.983 477.226 147.841 476.404 186.593C475.582 225.346 506.461 257.54 545.244 258.361C584.027 259.183 616.248 228.327 617.07 189.575C617.893 150.823 587.01 118.629 548.228 117.804ZM547.915 241.08C518.618 241.729 494.344 218.527 493.694 189.255C493.041 159.981 516.262 135.726 545.557 135.074C574.853 134.424 599.128 157.625 599.78 186.898C600.433 216.177 577.212 240.435 547.915 241.08Z" fill="#FBB33F"/>
<path id="gear_violet" d="M663.293 169.927C662.165 167.865 660.218 167.693 654.969 167.282C648.482 166.776 641.973 166.498 635.5 165.861C634.319 165.745 632.708 164.631 632.228 163.578C629.136 156.709 626.44 149.661 623.301 142.815C622.388 140.823 622.255 139.585 623.676 137.839C628.676 131.689 633.511 125.408 638.403 119.17C639.196 118.159 639.954 117.121 641.298 115.337L615.48 91.1405C608.193 97.4185 601.474 103.02 594.997 108.887C592.712 110.956 591.114 111.463 588.054 109.992C581.803 106.985 575.136 104.855 568.718 102.174C567.733 101.763 566.65 100.422 566.502 99.3815C565.323 91.4284 564.129 83.4653 563.437 75.463C563.107 71.6229 561.468 70.3757 557.94 70.5061C556.581 70.5553 555.202 70.1149 553.831 69.8984L535.367 70.3093C534.707 70.5257 534.059 70.8578 533.385 70.9464C526.292 71.8517 527.427 71.2711 526.883 77.9254C526.216 86.0434 525.686 94.1614 525.177 101.192L498.246 113.288L474.537 94.7321C464.936 102.011 457.247 110.688 450.411 120.432C456.607 127.583 462.629 134.572 468.703 141.516C469.793 142.761 470.18 143.664 469.394 145.482C466.273 152.596 463.331 159.802 460.706 167.113C459.951 169.218 459.005 169.765 457.038 169.996C448.929 170.953 440.841 172.097 432.734 173.088C430.718 173.334 429.691 173.981 429.388 176.257C428.015 186.468 428.866 196.554 430.57 206.64C430.907 208.633 432.111 208.898 433.825 209.004C441.742 209.484 449.65 210.158 457.57 210.583C459.852 210.706 460.886 211.341 461.78 213.693C464.86 221.811 468.427 229.766 472.061 238.426L454.244 261.156C461.63 270.952 470.015 279.136 479.998 285.815C487.778 279.023 495.343 272.413 502.195 266.428C510.193 269.262 517.559 272.086 525.091 274.423C527.932 275.306 529.052 276.548 529.337 279.466C530.098 287.235 531.159 294.964 532.181 302.715C532.383 304.245 532.21 306.258 534.736 306.181C545.009 305.875 555.283 305.571 565.56 305.269C567.743 305.205 568.482 304.039 568.602 301.881C569.051 293.849 569.848 285.835 570.158 277.8C570.279 274.701 571.759 273.746 574.324 272.718C580.659 270.177 586.976 267.493 592.978 264.27C595.568 262.883 596.88 263.018 599.032 264.799C605.94 270.526 613.065 275.98 619.973 281.424C626.303 277.835 640.491 262.667 644.516 255.286C638.484 248.443 632.452 241.461 626.238 234.652C624.683 232.947 624.786 231.779 625.616 229.752C628.282 223.208 630.498 216.48 633.11 209.922C633.548 208.817 634.983 207.533 636.108 207.371C643.248 206.347 650.439 205.572 657.618 204.797C661.631 204.365 663.253 204.205 664.019 202.674L663.293 169.927ZM597.139 240.63C584.972 252.281 569.139 259.357 552.337 260.651C535.534 261.946 518.803 257.379 504.993 247.729C491.183 238.078 481.149 223.942 476.6 207.728C472.051 191.514 473.27 174.226 480.048 158.809C486.826 143.392 498.744 130.8 513.771 123.18C528.798 115.559 546.006 113.38 562.46 117.015C578.915 120.649 593.6 129.873 604.012 143.113C614.424 156.353 619.919 172.792 619.562 189.627C619.385 199.187 617.312 208.618 613.463 217.373C609.614 226.127 604.066 234.032 597.139 240.63Z" fill="#B584FF"/>
<animateTransform href="#gear_violet" attributeName="transform" type="rotate" from="0, 546.355, 188.04" to="-360, 546.355, 188.04" dur="5s" repeatCount="indefinite" />
<g id="plane">
<path id="Vector" d="M438.899 65.4901L436.854 78.6068L446.361 71.9944L475.316 58.0265L453.129 59.5517C453.129 59.5517 441.787 62.0363 441.164 62.575C440.541 63.1138 438.899 65.4901 438.899 65.4901Z" fill="#0398DF"/>
<path id="Vector_2" d="M429.272 57.3254L475.315 58.0265L438.899 65.4901L429.272 57.3254Z" fill="#AAE1FB"/>
<path id="Vector_3" d="M453.397 79.0595L441.555 69.1063L475.315 58.0265L453.397 79.0595Z" fill="#AAE1FB"/>
</g>
<path id="Vector_4" d="M373.668 111.335C373.835 110.281 374.058 109.236 374.335 108.206C374.581 107.254 374.904 106.297 375.261 105.362L376.275 105.746C375.931 106.644 375.634 107.56 375.384 108.488C375.113 109.48 374.899 110.486 374.741 111.502C374.694 111.797 374.653 112.092 374.616 112.39L373.54 112.257C373.579 111.942 373.621 111.632 373.668 111.335ZM378.476 99.0347C379.764 97.0522 381.22 95.1839 382.829 93.4505L383.626 94.1885C382.057 95.8764 380.637 97.697 379.382 99.63L378.476 99.0347ZM412.903 97.662L412.719 97.5341L413.342 96.6485L413.492 96.7518C413.527 96.767 413.563 96.7794 413.6 96.7887C414.186 96.9461 415.737 96.9806 416.621 96.4812C417.399 96.0241 418.025 95.347 418.418 94.5353L419.383 95.0273C418.891 96.0217 418.121 96.8528 417.168 97.4209C415.937 98.1122 414.066 98.0285 413.329 97.8293C413.179 97.7969 413.035 97.7404 412.903 97.662ZM387.999 88.6215C389.829 87.1362 391.751 85.7682 393.755 84.5256L394.328 85.4456C392.365 86.6651 390.479 88.0059 388.683 89.4604L387.999 88.6215ZM408.775 89.1135C408.8 88.0407 408.956 86.975 409.24 85.9401C409.401 85.3552 409.596 84.7803 409.824 84.2181L410.831 84.624C410.618 85.1493 410.436 85.6864 410.286 86.2328C410.026 87.1819 409.882 88.1592 409.858 89.143C409.845 89.8234 409.901 90.5034 410.025 91.1725L408.959 91.3693C408.817 90.6227 408.752 89.8635 408.765 89.1037L408.775 89.1135ZM414.095 83.704L413.96 83.6351L414.452 82.6511L414.6 82.7273C416.815 83.8589 418.618 85.699 419.553 87.7753L418.568 88.2205C417.719 86.3755 416.094 84.7249 414.095 83.704ZM400.387 81.918C401.598 81.5785 403.804 81.0029 404.956 80.9734C405.853 80.9512 406.68 80.9611 407.465 81.0029L407.408 82.0853C406.645 82.0459 405.853 82.0361 404.983 82.0582C404.228 82.0754 402.659 82.4051 400.68 82.961L400.387 81.918ZM413.657 78.164C415.25 76.3829 417.099 74.8468 419.142 73.6057L419.706 74.5331C417.753 75.717 415.987 77.1835 414.464 78.8848L413.657 78.164Z" fill="#9BC1F9"/>
<path id="Vector_5" d="M425.986 71.9058C427.117 71.6203 428.27 71.4302 429.433 71.3375L429.347 70.2576C428.127 70.3557 426.917 70.5557 425.73 70.8553L425.986 71.9058Z" fill="#9BC1F9"/>
<path id="Gear_green" d="M670.245 351.566C667.357 350.54 664.43 349.613 661.564 348.528C661.27 348.391 661.009 348.19 660.801 347.941C660.592 347.692 660.441 347.4 660.358 347.086C659.799 343.583 659.44 340.046 658.854 336.548C658.684 335.529 658.778 334.949 659.637 334.334C662.67 332.154 665.641 329.888 668.633 327.655C669.125 327.291 669.59 326.917 670.422 326.265C667.505 321.544 664.622 316.875 661.663 312.09C657.576 314.058 653.832 315.78 650.163 317.643C648.871 318.304 648.081 318.336 646.869 317.291C644.407 315.156 641.625 313.355 639.038 311.36C638.822 311.165 638.651 310.927 638.536 310.66C638.421 310.393 638.364 310.105 638.371 309.815C638.814 306.056 639.252 302.287 639.924 298.56C640.244 296.774 639.658 296.007 638.034 295.63C637.408 295.488 636.835 295.116 636.239 294.851L627.787 292.767C627.461 292.813 627.131 292.827 626.802 292.811C623.466 292.354 624.055 292.228 622.986 295.188C621.686 298.792 620.446 302.42 619.348 305.559L605.61 307.751L597.111 296.398C591.85 298.528 587.283 301.527 582.968 305.119C584.905 309.133 586.784 313.052 588.692 316.956C589.034 317.657 589.105 318.115 588.517 318.845C586.222 321.697 583.997 324.612 581.904 327.613C581.301 328.479 580.804 328.612 579.88 328.474C576.074 327.913 572.249 327.438 568.445 326.892C567.499 326.757 566.953 326.927 566.534 327.923C564.658 332.4 563.799 337.091 563.334 341.883C563.243 342.833 563.757 343.113 564.523 343.359C568.063 344.55 571.576 345.819 575.127 346.998C576.151 347.332 576.542 347.736 576.66 348.926C577.059 353.003 577.699 357.044 578.29 361.44L567.389 369.588C569.538 374.951 572.347 379.703 576.067 383.969L588.549 377.881C591.836 380.151 594.839 382.343 597.971 384.328C599.155 385.066 599.512 385.782 599.28 387.145C598.67 390.771 598.202 394.422 597.712 398.067C597.616 398.788 597.291 399.684 598.451 399.959L612.58 403.334C613.582 403.58 614.057 403.132 614.382 402.166C615.573 398.567 616.925 395.032 618.055 391.406C618.491 390.011 619.286 389.757 620.574 389.605C623.775 389.265 626.955 388.749 630.099 388.058C631.448 387.743 632.029 387.967 632.787 389.042C635.224 392.486 637.797 395.851 640.264 399.177C643.585 398.323 651.904 393.167 654.644 390.306C652.743 386.451 650.863 382.535 648.873 378.673C648.381 377.708 648.566 377.197 649.193 376.37C651.215 373.726 653.049 370.941 655.045 368.277C655.383 367.829 656.193 367.421 656.724 367.487C660.1 367.898 663.463 368.429 666.818 368.963C668.697 369.258 669.455 369.386 669.992 368.783L673.685 353.8C673.446 352.717 672.582 352.4 670.245 351.566ZM642.728 353.709C641.942 356.893 640.536 359.892 638.589 362.533C636.643 365.174 634.195 367.407 631.386 369.103C628.576 370.799 625.46 371.926 622.214 372.418C618.969 372.911 615.658 372.76 612.471 371.974C609.284 371.188 606.283 369.783 603.639 367.838C600.995 365.893 598.761 363.447 597.063 360.64C595.366 357.832 594.238 354.718 593.745 351.475C593.252 348.231 593.403 344.923 594.189 341.738C595.778 335.307 599.858 329.769 605.533 326.344C611.208 322.918 618.012 321.886 624.449 323.473C630.885 325.06 636.427 329.138 639.855 334.808C643.283 340.478 644.317 347.277 642.728 353.709Z" fill="#B0EC74"/>
<animateTransform href="#Gear_green" attributeName="transform" type="rotate" from="0, 618.5, 347.98" to="360, 618.5, 347.98" dur="5s" repeatCount="indefinite" />
<g id="lamp">
<path id="Vector_6" d="M146.954 293.81C156.994 293.81 165.133 288.773 165.133 282.561C165.133 276.348 156.994 271.311 146.954 271.311C136.914 271.311 128.775 276.348 128.775 282.561C128.775 288.773 136.914 293.81 146.954 293.81Z" fill="#ADAEB5"/>
<path id="Vector_7" d="M146.955 43.542C101.69 43.542 64.9952 80.196 64.9952 125.435C64.9825 137.174 67.5018 148.778 72.3815 159.457C77.2612 170.135 84.3867 179.638 93.2728 187.317C93.3343 187.383 106.075 201.144 108.177 215.555L108.571 224.377C108.693 227.268 109.826 230.026 111.772 232.17C111.944 232.359 112.124 232.541 112.306 232.718H181.604C181.786 232.541 181.966 232.359 182.138 232.17C184.084 230.026 185.217 227.268 185.339 224.377L185.72 215.555C187.845 201.144 200.573 187.383 200.647 187.317C209.53 179.636 216.653 170.133 221.53 159.455C226.407 148.777 228.924 137.173 228.91 125.435C228.91 80.196 192.217 43.542 146.955 43.542Z" fill="#F7CC7F"/>
<path id="Vector_8" d="M112.131 232.716H181.779V268.509C181.779 270.519 181.382 272.509 180.613 274.366C179.843 276.223 178.714 277.911 177.292 279.332C175.87 280.753 174.181 281.881 172.322 282.65C170.464 283.419 168.472 283.815 166.461 283.815H127.449C123.386 283.815 119.49 282.203 116.617 279.332C113.745 276.462 112.131 272.568 112.131 268.509V232.716Z" fill="#544C60"/>
<path id="Vector_9" opacity="0.5" d="M167.5 188.047C122.2 188.047 85.4956 151.364 85.4956 106.11C85.468 88.4464 91.1786 71.2514 101.769 57.1089C79.6116 71.7656 64.9952 96.8945 64.9952 125.435C64.9825 137.174 67.5018 148.778 72.3815 159.457C77.2612 170.135 84.3867 179.638 93.2728 187.317C93.3343 187.383 106.075 201.144 108.177 215.555L108.571 224.377C108.693 227.268 109.826 230.026 111.772 232.17C111.944 232.359 112.124 232.541 112.306 232.718H181.604C181.786 232.541 181.966 232.359 182.138 232.17C184.084 230.026 185.217 227.268 185.339 224.377L185.72 215.555C187.845 201.144 200.573 187.383 200.647 187.317C205.033 183.514 209.003 179.26 212.494 174.623C199.136 183.406 183.49 188.074 167.5 188.047Z" fill="#FF9900"/>
<path id="Vector_10" d="M146.376 165.152L130.092 94.1786L115.801 135.46L111.608 134.011L130.959 78.1198L147.575 150.54L164.594 109.027L180.358 135.62L176.542 137.878L165.32 118.948L146.376 165.152Z" fill="white"/>
<path id="Vector_11" d="M125.851 243.388L125.459 243.429C124.472 243.532 123.484 243.238 122.713 242.613C121.942 241.988 121.451 241.083 121.348 240.096L109.959 130.2C109.857 129.213 110.152 128.226 110.778 127.455C111.405 126.685 112.312 126.195 113.3 126.092L113.691 126.053C114.181 126.002 114.676 126.048 115.148 126.189C115.62 126.33 116.059 126.562 116.441 126.872C116.823 127.183 117.14 127.566 117.373 127.999C117.607 128.432 117.753 128.907 117.803 129.396L129.192 239.287C129.292 240.273 128.997 241.259 128.37 242.028C127.744 242.797 126.838 243.286 125.851 243.388Z" fill="#544C60"/>
<path id="Vector_12" d="M168.294 243.41C168.809 243.463 169.33 243.415 169.827 243.268C170.323 243.12 170.785 242.876 171.187 242.55C171.589 242.224 171.923 241.821 172.169 241.366C172.416 240.911 172.569 240.412 172.622 239.897L183.972 130.397C184.026 129.883 183.978 129.363 183.83 128.867C183.683 128.371 183.439 127.909 183.112 127.507C182.786 127.106 182.384 126.772 181.928 126.526C181.473 126.28 180.974 126.126 180.459 126.073C179.944 126.019 179.423 126.067 178.926 126.214C178.43 126.362 177.968 126.606 177.566 126.932C177.164 127.258 176.83 127.661 176.584 128.116C176.337 128.571 176.183 129.071 176.131 129.585L164.781 239.085C164.727 239.599 164.775 240.12 164.923 240.615C165.07 241.111 165.314 241.573 165.641 241.975C165.967 242.377 166.369 242.71 166.824 242.956C167.28 243.202 167.779 243.356 168.294 243.41Z" fill="#544C60"/>
<path id="Vector_13" d="M182.886 232.718H111.062C110.03 232.718 109.193 233.554 109.193 234.586V238.556C109.193 239.587 110.03 240.423 111.062 240.423H182.886C183.918 240.423 184.755 239.587 184.755 238.556V234.586C184.755 233.554 183.918 232.718 182.886 232.718Z" fill="#ADAEB5"/>
<path id="Vector_14" d="M182.886 248.165H111.062C110.03 248.165 109.193 249.001 109.193 250.032V254.002C109.193 255.034 110.03 255.87 111.062 255.87H182.886C183.918 255.87 184.755 255.034 184.755 254.002V250.032C184.755 249.001 183.918 248.165 182.886 248.165Z" fill="#ADAEB5"/>
<path id="Vector_15" d="M182.886 265.446H111.062C110.03 265.446 109.193 266.282 109.193 267.313V271.284C109.193 272.315 110.03 273.151 111.062 273.151H182.886C183.918 273.151 184.755 272.315 184.755 271.284V267.313C184.755 266.282 183.918 265.446 182.886 265.446Z" fill="#ADAEB5"/>
</g>
<animateTransform href="#lamp" attributeName="transform" type="translate" values="0,0; 0,-20; 0,0" dur="2s" repeatCount="indefinite" />
<path id="star_violet" d="M254.388 171.797L257.211 166.618L254.562 161.354C254.494 161.219 254.465 161.068 254.478 160.918C254.491 160.767 254.546 160.623 254.637 160.503C254.728 160.382 254.85 160.289 254.991 160.234C255.132 160.179 255.285 160.165 255.434 160.193L261.22 161.283L265.405 157.123C265.512 157.016 265.647 156.942 265.794 156.908C265.942 156.875 266.096 156.883 266.239 156.932C266.382 156.981 266.508 157.069 266.603 157.187C266.699 157.304 266.759 157.445 266.779 157.595L267.532 163.445L272.768 166.151C272.903 166.22 273.015 166.326 273.092 166.456C273.17 166.586 273.21 166.734 273.207 166.885C273.204 167.037 273.16 167.184 273.078 167.311C272.996 167.438 272.88 167.54 272.744 167.605L267.424 170.129L266.486 175.954C266.461 176.103 266.396 176.242 266.297 176.356C266.197 176.47 266.068 176.554 265.924 176.598C265.779 176.642 265.625 176.645 265.479 176.607C265.333 176.568 265.201 176.489 265.097 176.38L261.057 172.092L255.239 172.995C255.087 173.023 254.93 173.007 254.787 172.949C254.644 172.892 254.52 172.794 254.43 172.668C254.34 172.542 254.289 172.393 254.281 172.238C254.274 172.084 254.311 171.931 254.388 171.797Z" fill="#9C5AFF"/>
<animateTransform href="#star_violet" attributeName="transform" type="rotate" values="0,263.815,166.765;-72,263.815,166.765;0,263.815,166.765;" dur="5s" repeatCount="indefinite" />
<path id="star_left" d="M27.1183 253.338L29.9421 248.157L27.2857 242.891C27.2167 242.756 27.187 242.604 27.1999 242.454C27.2128 242.303 27.2677 242.159 27.3585 242.037C27.4492 241.916 27.5722 241.823 27.7134 241.768C27.8546 241.713 28.0083 241.699 28.1572 241.727L33.9452 242.817L38.1304 238.657C38.2378 238.551 38.3728 238.476 38.5201 238.443C38.6675 238.409 38.8213 238.417 38.9643 238.466C39.1072 238.515 39.2335 238.604 39.3289 238.721C39.4244 238.838 39.4851 238.979 39.5042 239.129L40.2575 244.982L45.4965 247.688C45.6308 247.757 45.743 247.863 45.8206 247.993C45.8982 248.123 45.938 248.271 45.9357 248.423C45.9334 248.574 45.8891 248.721 45.8076 248.849C45.7261 248.976 45.6107 249.078 45.4743 249.144L40.1443 251.658L39.2038 257.486C39.1796 257.635 39.1141 257.774 39.0148 257.888C38.9155 258.002 38.7863 258.085 38.6419 258.13C38.4975 258.174 38.3435 258.177 38.1974 258.138C38.0514 258.1 37.919 258.021 37.8153 257.911L33.7728 253.626L27.9529 254.529C27.8032 254.552 27.6499 254.533 27.5104 254.474C27.3709 254.415 27.2509 254.318 27.164 254.194C27.0771 254.07 27.0267 253.924 27.0186 253.772C27.0105 253.621 27.0451 253.471 27.1183 253.338Z" fill="#FF9900"/>
<animateTransform href="#star_left" attributeName="transform" type="rotate" values="0,35.56,247.29;40,35.56,247.29;0,35.56,247.29;" dur="4s" repeatCount="indefinite" />
<path id="star_red" d="M396.142 135.312L396.113 131.691L393.119 129.659C393.041 129.609 392.978 129.536 392.939 129.451C392.9 129.366 392.886 129.272 392.898 129.179C392.911 129.087 392.95 128.999 393.01 128.928C393.071 128.857 393.15 128.804 393.24 128.776L396.669 127.627L397.671 124.146C397.696 124.056 397.745 123.975 397.814 123.912C397.882 123.849 397.968 123.807 398.06 123.79C398.151 123.774 398.246 123.784 398.332 123.819C398.419 123.854 398.494 123.913 398.548 123.989L400.697 126.904L404.309 126.781C404.402 126.776 404.496 126.797 404.577 126.843C404.659 126.889 404.726 126.958 404.77 127.04C404.815 127.123 404.834 127.217 404.827 127.31C404.82 127.404 404.786 127.493 404.73 127.568L402.63 130.52L403.861 133.925C403.895 134.012 403.903 134.108 403.885 134.2C403.867 134.292 403.822 134.377 403.757 134.444C403.692 134.512 403.609 134.56 403.518 134.582C403.427 134.604 403.331 134.6 403.243 134.569L399.796 133.477L396.945 135.691C396.873 135.75 396.786 135.786 396.694 135.798C396.602 135.809 396.508 135.794 396.424 135.754C396.341 135.714 396.27 135.652 396.22 135.574C396.17 135.496 396.143 135.405 396.142 135.312Z" fill="#F47458"/>
<animateTransform href="#star_red" attributeName="transform" type="rotate" values="0,399,129;50,399,129;0,399,129;" dur="4s" repeatCount="indefinite" />
<path id="star_right" d="M569.25 406.242L571.633 401.767L569.307 397.273C569.247 397.158 569.221 397.028 569.231 396.899C569.241 396.769 569.287 396.645 569.363 396.541C569.44 396.436 569.545 396.355 569.665 396.307C569.786 396.258 569.917 396.244 570.045 396.267L575.028 397.142L578.586 393.531C578.676 393.438 578.791 393.373 578.917 393.342C579.043 393.311 579.176 393.316 579.299 393.357C579.422 393.397 579.532 393.472 579.615 393.571C579.698 393.671 579.752 393.791 579.77 393.92L580.464 398.938L584.989 401.199C585.105 401.257 585.203 401.345 585.272 401.456C585.34 401.566 585.376 401.693 585.376 401.823C585.376 401.952 585.34 402.079 585.272 402.189C585.203 402.3 585.105 402.389 584.989 402.446L580.435 404.66L579.674 409.671C579.655 409.8 579.6 409.92 579.516 410.019C579.432 410.118 579.321 410.191 579.198 410.231C579.074 410.27 578.942 410.275 578.816 410.243C578.69 410.212 578.575 410.146 578.485 410.052L574.976 406.409L569.981 407.246C569.854 407.267 569.723 407.252 569.604 407.204C569.484 407.155 569.381 407.074 569.305 406.97C569.229 406.866 569.184 406.742 569.174 406.614C569.164 406.485 569.191 406.356 569.25 406.242Z" fill="#FF6800"/>
<animateTransform href="#star_right" attributeName="transform" type="rotate" values="0,576,402;-72,576,402;0,576,402;" dur="5s" repeatCount="indefinite" />
<g id="laptop">
<path id="Vector_16" d="M525.164 196.288H168.486C156.594 196.288 146.954 205.921 146.954 217.803V430.751C146.954 442.633 156.594 452.266 168.486 452.266H525.164C537.056 452.266 546.696 442.633 546.696 430.751V217.803C546.696 205.921 537.056 196.288 525.164 196.288Z" fill="#26B1F3"/>
<path id="Vector_17" d="M536.884 210.751H156.766V429.044H536.884V210.751Z" fill="#13375B"/>
<path id="Vector_18" opacity="0.2" d="M536.884 210.751H156.766V233.973H536.884V210.751Z" fill="#3CB4C5"/>
<path id="Vector_19" d="M553.932 452.266H139.723C134.793 452.267 130.064 450.312 126.577 446.83C123.089 443.348 121.129 438.624 121.126 433.698H572.519C572.516 438.623 570.557 443.345 567.072 446.827C563.586 450.308 558.86 452.265 553.932 452.266Z" fill="#0398DF"/>
<path id="Vector_20" d="M571.744 438.849C572.257 437.175 572.518 435.434 572.519 433.683H121.126C121.126 435.434 121.386 437.175 121.899 438.849H571.744Z" fill="#AAE1FB"/>
<path id="Vector_21" opacity="0.6" d="M186.759 248.999H183.78V417.44H186.759V248.999Z" fill="#CAE1F9"/>
<path id="Vector_22" d="M245.983 248.022H196.747V251.557H245.983V248.022Z" fill="#466EB6"/>
<path id="Vector_23" d="M245.983 260.873H196.747V264.408H245.983V260.873Z" fill="#F47458"/>
<path id="Vector_24" d="M244.178 366.223H194.942V369.758H244.178V366.223Z" fill="#466EB6"/>
<path id="Vector_25" d="M244.178 379.074H194.942V382.611H244.178V379.074Z" fill="#F47458"/>
<path id="Vector_26" opacity="0.6" d="M244.179 401.735H200.371V405.27H244.179V401.735Z" fill="#CAE1F9"/>
<path id="Vector_27" opacity="0.6" d="M270.129 260.873H251.492V264.408H270.129V260.873Z" fill="#CAE1F9"/>
<path id="Vector_28" opacity="0.6" d="M270.129 401.735H251.492V405.27H270.129V401.735Z" fill="#CAE1F9"/>
<path id="Vector_29" d="M388.4 401.735H275.627V405.27H388.4V401.735Z" fill="#466EB6"/>
<path id="Vector_30" opacity="0.6" d="M290.142 273.727H251.492V277.262H290.142V273.727Z" fill="#CAE1F9"/>
<path id="Vector_31" d="M406.133 273.727H296.977V277.262H406.133V273.727Z" fill="#466EB6"/>
<path id="Vector_32" d="M503.443 273.727H411.318V277.262H503.443V273.727Z" fill="#F47458"/>
<path id="Vector_33" d="M503.444 260.873H278.867V264.408H503.444V260.873Z" fill="#F7CC7F"/>
<path id="Vector_34" d="M245.983 273.727H196.747V277.262H245.983V273.727Z" fill="#F47458"/>
<path id="Vector_35" opacity="0.6" d="M316.222 288.098H196.747V291.633H316.222V288.098Z" fill="#CAE1F9"/>
<path id="Vector_36" d="M363.047 300.951H196.747V304.487H363.047V300.951Z" fill="#F47458"/>
<path id="Vector_37" opacity="0.6" d="M424.44 313.805H258.14V317.34H424.44V313.805Z" fill="#CAE1F9"/>
<path id="Vector_38" opacity="0.6" d="M346.823 366.223H258.14V369.758H346.823V366.223Z" fill="#CAE1F9"/>
<path id="Vector_39" opacity="0.6" d="M407.595 380.842H258.14V384.378H407.595V380.842Z" fill="#CAE1F9"/>
<path id="Vector_40" d="M330.382 326.656H258.14V330.191H330.382V326.656Z" fill="#466EB6"/>
<path id="Vector_41" opacity="0.6" d="M382.848 326.656H339.075V330.191H382.848V326.656Z" fill="#CAE1F9"/>
<path id="Vector_42" opacity="0.6" d="M356.378 339.509H258.14V343.045H356.378V339.509Z" fill="#CAE1F9"/>
<path id="Vector_43" d="M410.606 352.361H258.14V355.896H410.606V352.361Z" fill="#F7CC7F"/>
<path id="Vector_44" d="M56.3408 453.545C56.3408 454.303 57.3724 454.916 58.6452 454.916H633.011C634.281 454.916 635.313 454.303 635.313 453.545C635.313 452.785 634.281 452.173 633.011 452.173H58.6452C57.3625 452.173 56.3408 452.785 56.3408 453.545Z" fill="#13375B"/>
</g>
<path id="lattice_blue" d="M259.257 121.015L260.708 118.661L259.543 118.188C259.482 118.164 259.426 118.129 259.379 118.083C259.332 118.037 259.295 117.983 259.269 117.923C259.243 117.862 259.23 117.798 259.23 117.732C259.229 117.667 259.242 117.602 259.267 117.541C259.291 117.48 259.327 117.425 259.373 117.378C259.419 117.331 259.474 117.293 259.535 117.268C259.595 117.242 259.66 117.229 259.726 117.229C259.792 117.229 259.857 117.243 259.917 117.268L261.259 117.812L262.556 115.696L261.325 115.192C261.264 115.168 261.209 115.132 261.162 115.087C261.115 115.041 261.077 114.987 261.051 114.926C261.026 114.866 261.012 114.801 261.012 114.736C261.012 114.67 261.025 114.605 261.05 114.545C261.074 114.484 261.109 114.428 261.155 114.381C261.201 114.333 261.256 114.296 261.316 114.27C261.377 114.244 261.442 114.231 261.508 114.231C261.574 114.231 261.639 114.244 261.7 114.269L263.123 114.848L264.627 112.427C264.688 112.326 264.783 112.251 264.895 112.214C265.007 112.178 265.129 112.182 265.237 112.228L265.457 112.316C265.525 112.342 265.587 112.382 265.638 112.434C265.688 112.486 265.727 112.549 265.751 112.618C265.774 112.687 265.782 112.761 265.774 112.833C265.766 112.905 265.741 112.975 265.703 113.037L264.302 115.322L266.365 116.156L267.872 113.736C267.933 113.635 268.029 113.56 268.141 113.524C268.253 113.488 268.374 113.493 268.482 113.539L268.728 113.635C268.797 113.66 268.859 113.701 268.909 113.753C268.96 113.805 268.999 113.868 269.022 113.937C269.046 114.006 269.054 114.079 269.046 114.152C269.037 114.224 269.013 114.294 268.975 114.356L267.574 116.638L268.741 117.111C268.802 117.135 268.858 117.171 268.905 117.217C268.952 117.263 268.989 117.317 269.014 117.378C269.04 117.438 269.053 117.503 269.053 117.569C269.053 117.635 269.04 117.7 269.014 117.76C268.99 117.821 268.954 117.877 268.908 117.924C268.862 117.971 268.807 118.008 268.747 118.034C268.686 118.059 268.621 118.072 268.555 118.072C268.49 118.072 268.425 118.059 268.364 118.033L267.022 117.49L265.745 119.613L266.976 120.105C267.037 120.128 267.092 120.164 267.139 120.21C267.186 120.255 267.224 120.31 267.25 120.37C267.275 120.43 267.289 120.495 267.289 120.561C267.289 120.626 267.276 120.691 267.251 120.752C267.228 120.813 267.192 120.869 267.146 120.916C267.1 120.963 267.045 121.001 266.985 121.027C266.924 121.052 266.859 121.065 266.793 121.066C266.727 121.066 266.662 121.053 266.601 121.027L265.178 120.449L263.642 122.946C263.581 123.048 263.486 123.124 263.373 123.161C263.261 123.198 263.138 123.193 263.029 123.148L262.783 123.044C262.714 123.019 262.652 122.979 262.601 122.926C262.55 122.874 262.511 122.811 262.487 122.741C262.464 122.672 262.456 122.598 262.465 122.526C262.473 122.453 262.498 122.383 262.537 122.321L263.987 119.967L261.924 119.13L260.385 121.627C260.324 121.729 260.229 121.805 260.117 121.842C260.005 121.879 259.884 121.874 259.774 121.829L259.528 121.726C259.459 121.703 259.396 121.664 259.344 121.614C259.291 121.564 259.25 121.502 259.225 121.434C259.199 121.366 259.188 121.293 259.194 121.221C259.2 121.148 259.221 121.078 259.257 121.015ZM264.514 119.13L265.809 117.015L263.748 116.178L262.451 118.294L264.514 119.13Z" fill="#00ADFF"/>
<animateTransform href="#lattice_blue" attributeName="transform" type="translate" values="0,0; 0,20; 0,0" dur="2s" repeatCount="indefinite" />
<path id="lattice_red" d="M668.904 257.124L668.658 257.227C668.549 257.273 668.427 257.278 668.315 257.241C668.203 257.204 668.108 257.129 668.047 257.028L666.508 254.529L664.443 255.365L665.895 257.722C665.934 257.784 665.958 257.853 665.966 257.926C665.975 257.998 665.967 258.072 665.943 258.141C665.92 258.21 665.881 258.272 665.83 258.325C665.779 258.377 665.718 258.417 665.649 258.443L665.403 258.546C665.294 258.591 665.173 258.596 665.061 258.56C664.949 258.523 664.853 258.447 664.792 258.347L663.241 255.84L661.816 256.418C661.755 256.443 661.69 256.456 661.625 256.456C661.559 256.455 661.495 256.442 661.434 256.416C661.374 256.391 661.319 256.353 661.274 256.306C661.228 256.259 661.192 256.204 661.168 256.143C661.143 256.082 661.13 256.017 661.13 255.951C661.13 255.886 661.143 255.821 661.168 255.76C661.194 255.7 661.231 255.645 661.278 255.599C661.325 255.553 661.381 255.517 661.442 255.493L662.687 255.001L661.41 252.878L660.066 253.424C660.005 253.45 659.94 253.463 659.874 253.463C659.808 253.463 659.743 253.449 659.682 253.424C659.622 253.398 659.567 253.36 659.521 253.313C659.475 253.266 659.439 253.21 659.416 253.149C659.39 253.088 659.378 253.023 659.378 252.958C659.378 252.892 659.392 252.828 659.417 252.767C659.443 252.707 659.48 252.653 659.527 252.607C659.575 252.561 659.63 252.526 659.691 252.502L660.856 252.029L659.455 249.742C659.416 249.68 659.392 249.61 659.384 249.538C659.376 249.465 659.384 249.392 659.407 249.323C659.431 249.254 659.469 249.191 659.52 249.139C659.571 249.087 659.633 249.046 659.701 249.021L659.947 248.925C660.056 248.88 660.178 248.875 660.29 248.911C660.402 248.948 660.497 249.023 660.558 249.124L662.065 251.545L664.128 250.708L662.727 248.423C662.688 248.361 662.664 248.292 662.656 248.219C662.648 248.147 662.656 248.073 662.679 248.004C662.703 247.935 662.741 247.873 662.792 247.82C662.843 247.768 662.905 247.728 662.973 247.702L663.19 247.614C663.299 247.568 663.42 247.564 663.532 247.6C663.644 247.637 663.739 247.712 663.8 247.813L665.307 250.236L666.73 249.658C666.791 249.633 666.856 249.619 666.922 249.62C666.987 249.62 667.053 249.633 667.113 249.659C667.174 249.684 667.229 249.722 667.274 249.769C667.32 249.816 667.356 249.872 667.38 249.934C667.405 249.994 667.418 250.059 667.418 250.124C667.417 250.19 667.404 250.255 667.378 250.315C667.352 250.375 667.315 250.43 667.268 250.475C667.221 250.521 667.165 250.557 667.104 250.581L665.861 251.073L667.158 253.188L668.503 252.644C668.563 252.619 668.628 252.606 668.693 252.607C668.759 252.607 668.823 252.62 668.884 252.645C668.944 252.671 668.999 252.708 669.044 252.755C669.09 252.801 669.126 252.857 669.15 252.918C669.176 252.978 669.189 253.043 669.189 253.109C669.189 253.174 669.176 253.239 669.15 253.3C669.125 253.36 669.088 253.415 669.041 253.461C668.994 253.507 668.938 253.543 668.877 253.567L667.71 254.039L669.162 256.396C669.202 256.459 669.227 256.53 669.235 256.604C669.243 256.678 669.235 256.753 669.21 256.823C669.185 256.893 669.144 256.956 669.091 257.008C669.038 257.061 668.974 257.1 668.904 257.124ZM665.95 253.68L664.652 251.567L662.589 252.401L663.886 254.517L665.95 253.68Z" fill="#FF2E00"/>
<path id="lattice_violet" d="M448.237 159.162L447.991 159.265C447.882 159.311 447.76 159.316 447.647 159.279C447.534 159.242 447.439 159.165 447.378 159.064L445.842 156.567L443.779 157.403L445.229 159.757C445.268 159.819 445.293 159.889 445.301 159.962C445.31 160.035 445.302 160.108 445.278 160.178C445.255 160.247 445.216 160.31 445.165 160.362C445.114 160.415 445.051 160.455 444.983 160.481L444.737 160.584C444.628 160.629 444.506 160.633 444.394 160.596C444.282 160.559 444.187 160.483 444.126 160.382L442.587 157.885L441.164 158.463C441.104 158.488 441.039 158.501 440.973 158.501C440.908 158.501 440.843 158.487 440.783 158.462C440.722 158.436 440.668 158.399 440.622 158.352C440.576 158.305 440.541 158.249 440.517 158.188C440.492 158.128 440.479 158.063 440.479 157.997C440.479 157.932 440.492 157.867 440.518 157.807C440.543 157.747 440.58 157.692 440.627 157.647C440.674 157.601 440.729 157.565 440.79 157.541L442.036 157.049L440.758 154.926L439.414 155.47C439.354 155.495 439.289 155.508 439.223 155.508C439.158 155.507 439.093 155.494 439.033 155.469C438.973 155.443 438.918 155.406 438.872 155.359C438.826 155.313 438.79 155.257 438.766 155.196C438.741 155.136 438.728 155.071 438.728 155.005C438.727 154.94 438.741 154.875 438.766 154.814C438.792 154.754 438.829 154.699 438.876 154.653C438.923 154.607 438.979 154.571 439.04 154.547L440.204 154.075L438.803 151.792C438.765 151.73 438.741 151.66 438.732 151.588C438.724 151.515 438.732 151.442 438.756 151.373C438.779 151.304 438.818 151.241 438.869 151.189C438.919 151.137 438.981 151.097 439.05 151.071L439.296 150.975C439.404 150.93 439.525 150.924 439.637 150.961C439.749 150.997 439.845 151.072 439.906 151.172L441.413 153.593L443.476 152.759L442.075 150.473C442.037 150.411 442.012 150.342 442.004 150.269C441.996 150.197 442.004 150.124 442.027 150.055C442.051 149.986 442.09 149.923 442.14 149.871C442.191 149.818 442.253 149.778 442.321 149.753L442.538 149.664C442.647 149.619 442.768 149.614 442.88 149.65C442.992 149.687 443.088 149.762 443.149 149.863L444.623 152.274L446.046 151.698C446.107 151.673 446.172 151.66 446.237 151.66C446.302 151.661 446.367 151.674 446.427 151.699C446.488 151.725 446.542 151.762 446.588 151.808C446.634 151.855 446.67 151.911 446.694 151.971C446.719 152.032 446.732 152.097 446.732 152.162C446.732 152.227 446.719 152.292 446.693 152.352C446.668 152.412 446.63 152.467 446.584 152.513C446.537 152.558 446.481 152.594 446.421 152.618L445.19 153.11L446.485 155.226L447.829 154.682C447.889 154.657 447.954 154.644 448.02 154.644C448.086 154.643 448.151 154.657 448.211 154.682C448.272 154.707 448.327 154.745 448.373 154.792C448.419 154.839 448.455 154.894 448.479 154.955C448.504 155.016 448.517 155.081 448.517 155.147C448.517 155.213 448.504 155.278 448.478 155.338C448.452 155.399 448.415 155.454 448.368 155.499C448.32 155.545 448.264 155.581 448.203 155.605L447.039 156.075L448.489 158.429C448.529 158.492 448.555 158.563 448.565 158.637C448.574 158.711 448.566 158.786 448.542 158.857C448.518 158.927 448.478 158.991 448.425 159.044C448.372 159.097 448.308 159.138 448.237 159.162ZM445.283 155.718L443.986 153.602L441.923 154.439L443.22 156.554L445.283 155.718Z" fill="#6600FF"/>
<path id="curl_green" d="M124.998 323.025C130.075 327.431 126.741 330.698 124.752 329.522C123.898 329.03 123.644 327.903 124.393 327.192C124.735 326.865 125.442 327.138 125.378 327.647C125.321 328.068 125.791 328.085 125.892 327.63C126.032 327.018 125.493 326.4 125.153 325.948C124.351 324.902 123.322 323.537 121.852 323.588C119.656 323.667 117.758 326.245 119.565 329.271C122.167 333.635 129.76 332.097 130.181 326.919C130.41 324.103 128.77 321.401 126.274 320.127C125.781 319.881 126.195 319.215 126.658 319.313C130.171 320.071 132.14 324.058 131.582 327.431C130.998 330.899 127.837 333.121 124.43 333.207C120.855 333.296 117.443 330.808 117.192 327.096C116.894 323.037 121.451 319.943 124.998 323.025Z" fill="#23D940"/>
<animateTransform href="#curl_green" attributeName="transform" type="translate" values="0,0; 0,20; 0,0" dur="2s" repeatCount="indefinite" />
<path id="curl_orange" d="M337.298 74.9808C342.37 79.3867 339.041 82.6511 337.052 81.4752C336.198 80.9832 335.944 79.859 336.692 79.148C337.035 78.8209 337.739 79.0939 337.677 79.6007C337.623 80.0238 338.091 80.0386 338.194 79.5859C338.332 78.9734 337.795 78.3559 337.456 77.9033C336.653 76.8578 335.624 75.4925 334.154 75.5466C331.961 75.6253 330.065 78.2009 331.867 81.2267C334.469 85.5883 342.059 84.0484 342.48 78.875C342.707 76.0607 341.07 73.3597 338.576 72.0878C338.083 71.8418 338.494 71.1727 338.957 71.2736C342.468 72.0288 344.44 76.0165 343.881 79.3916C343.3 82.8602 340.139 85.0791 336.742 85.1652C333.167 85.2538 329.76 82.7667 329.508 79.0595C329.196 74.9956 333.75 71.9009 337.298 74.9808Z" fill="#FF9900"/>
<animateTransform href="#curl_orange" attributeName="transform" type="translate" values="0,0; 0,-20; 0,0" dur="2s" repeatCount="indefinite" />
<path id="ang_line_blue" d="M656.538 307.662L651.798 306.883L651.582 310.071L650.053 309.967L650.385 305.099L655.095 305.874L655.289 302.12L659.603 302.75L660.331 298.917L661.838 299.205L660.834 304.477L656.732 303.876L656.538 307.662Z" fill="#00ADFF"/>
<path id="ang_line" d="M84.4387 240.391L89.1779 239.611L89.397 242.8L90.9258 242.694L90.5935 237.825L85.8814 238.6L85.6893 234.846L81.3736 235.476L80.6449 231.646L79.1406 231.931L80.1426 237.206L84.2442 236.605L84.4387 240.391Z" fill="#FF6800"/>
<animateTransform href="#ang_line" attributeName="transform" type="translate" values="0,0; 0,20; 0,0" dur="2s" repeatCount="indefinite" />
<g id="boy_top">
<path id="Vector_45" d="M354.561 147.408C353.448 146.67 345.787 150.941 346.006 152.151C346.225 153.361 341.68 165.738 341.68 165.738L331.458 158.547C331.458 158.547 329.752 155.696 329.42 155.26C328.79 154.436 327.815 153.686 327.056 153.907C326.298 154.129 327.824 154.958 327.935 155.137C328.236 155.595 327.266 155.875 327.266 155.875C327.266 155.875 324.279 154.591 324.132 153.681C323.984 152.771 323.213 150.911 322.64 151.371C322.342 151.617 322.477 152.968 322.64 153.605C322.393 152.889 322.049 152.087 321.79 152.028C321.318 151.922 321.145 152.52 321.256 152.805C321.367 153.091 322.406 156.124 322.664 156.454C322.923 156.783 327.854 160.023 328.59 160.761C328.59 160.761 342.682 174.045 343.625 174.343C344.45 174.589 346.798 169.329 349.152 165.752C351.506 162.176 358.045 149.723 354.561 147.408Z" fill="#E4A679"/>
<path id="Vector_46" d="M343.438 158.289L353.022 158.348C353.022 158.348 352.709 150.532 352.355 146.823C351.921 142.323 350.981 136.564 350.449 136.737C348.957 137.229 346.983 138.272 345.919 140.07C342.231 146.294 343.438 158.289 343.438 158.289Z" fill="#DD513A"/>
<path id="Vector_47" d="M347.352 146.535C347.283 147.925 347.217 185.568 347.217 185.568C365.3 192.252 374.175 184.483 374.175 184.483C374.175 184.483 371.095 158.35 371.432 154.717C371.654 152.316 371.432 136.759 369.871 136.459C367.855 136.082 364.812 135.541 362.333 135.524C360.218 135.507 352.074 136.161 350.666 136.788C348.665 139.661 347.516 143.039 347.352 146.535Z" fill="#F47458"/>
<path id="Vector_48" d="M355.334 107.662C355.334 107.662 348.736 105.869 347.881 111.49C347.881 111.49 342.465 112.144 344.61 117.421C344.61 117.421 339.885 121.298 344.811 127.44C344.811 127.44 344.792 134.264 352.483 132.965C352.483 132.965 354.135 135.01 357.483 133.703C360.831 132.397 361.511 131.275 361.511 131.275C361.511 131.275 368.064 131.689 368.675 125.726C368.675 125.726 372.673 123.758 368.616 118.985C368.616 118.985 370.723 111.131 363.753 110.479C363.753 110.471 361.378 103.455 355.334 107.662Z" fill="#184655"/>
<path id="Vector_49" d="M362.407 123.216C362.227 124.66 362.875 125.922 363.852 126.048C364.83 126.173 365.765 125.096 365.945 123.654C366.125 122.213 365.475 120.948 364.497 120.82C363.52 120.693 362.584 121.77 362.407 123.216Z" fill="#E4A679"/>
<path id="Vector_50" d="M345.762 123.512C346.008 124.943 346.993 125.972 347.977 125.797C348.962 125.622 349.528 124.321 349.277 122.894C349.026 121.467 348.046 120.434 347.061 120.609C346.077 120.784 345.51 122.077 345.762 123.512Z" fill="#E4A679"/>
<path id="Vector_51" d="M354.137 131.275C354.159 131.376 354.137 135.135 354.117 137.125C354.114 137.484 354.235 137.832 354.459 138.112C354.683 138.392 354.997 138.586 355.348 138.66C357.291 139.066 361.011 139.411 362.914 136.705C362.999 136.582 363.056 136.442 363.082 136.296C363.108 136.149 363.102 135.998 363.064 135.854L360.848 127.391L354.137 131.275Z" fill="#E4A679"/>
<path id="Vector_52" opacity="0.5" d="M354.143 133.376C356.218 133.895 358.574 133.389 360.849 131.256C361.132 130.994 361.4 130.716 361.651 130.424L360.859 127.391L354.138 131.275C354.15 131.322 354.148 132.23 354.143 133.376Z" fill="#B16B38"/>
<path id="Vector_53" d="M355.255 112.196C357.307 112.375 359.228 113.281 360.671 114.749C363.013 117.189 365.792 125.138 360.501 130.077C355.211 135.017 349.534 130.483 348.473 125.229C347.411 119.974 348.236 112.766 355.255 112.196Z" fill="#E4A679"/>
<path id="Vector_54" d="M328.174 156.07L327.778 156.503C327.684 156.609 327.552 156.674 327.41 156.684C327.269 156.693 327.129 156.647 327.022 156.554L318.469 148.798C318.371 148.701 318.314 148.57 318.312 148.432C318.309 148.294 318.36 148.161 318.454 148.06L318.853 147.63C318.947 147.523 319.079 147.458 319.22 147.447C319.362 147.437 319.501 147.483 319.609 147.575L328.174 155.319C328.224 155.368 328.263 155.427 328.29 155.491C328.317 155.556 328.331 155.625 328.331 155.695C328.331 155.764 328.317 155.834 328.29 155.898C328.263 155.962 328.224 156.021 328.174 156.07Z" fill="#13375B"/>
<path id="Vector_55" d="M305.047 225.985C305.047 225.985 303.875 228.372 301.689 228.608C299.503 228.844 294.086 225.968 292.897 226.094C291.708 226.219 291.221 226.819 291.221 226.819L303.555 237.902L306.864 234.162L308.779 231.041L305.047 225.985Z" fill="#E4A679"/>
<path id="Vector_56" d="M300.354 228.502C300.354 228.502 302.259 232.684 304.45 233.358C306.642 234.032 306.792 233.794 306.962 234.477C307.131 235.161 304.064 238.696 304.064 238.696L290.176 226.259C289.255 225.343 289.438 224.204 290.762 224.337C291.542 224.454 292.312 224.631 293.064 224.866C294.706 225.265 300.354 228.502 300.354 228.502Z" fill="#DD513A"/>
<path id="Vector_57" d="M374.175 184.483C372.929 183.019 349.965 184.092 349.965 184.092C349.965 184.092 329.299 182.95 324.686 185.732C323.413 186.5 305.236 223.385 302.698 226.568L308.54 232.192C308.54 232.192 323.691 214.121 327.349 209.752C329.863 206.748 332.556 202.497 334.472 198.529C342.178 201.349 354.556 204.072 370.438 201.467C377.592 200.293 375.423 185.946 374.175 184.483Z" fill="#EDAB5C"/>
<path id="Vector_58" d="M360.063 227.201C360.063 227.201 359.428 234.504 358.261 236.526C357.094 238.549 358.322 241.985 358.384 242.458C358.446 242.93 360.846 243.601 364.655 243.196C368.463 242.79 368.404 241.914 368.101 240.49C367.798 239.065 365.765 237.255 365.639 235.907C365.514 234.558 366.809 229.705 366.809 229.705L360.063 227.201Z" fill="#E4A679"/>
<path id="Vector_59" d="M365.13 243.764C369.054 243.348 368.577 241.429 368.252 239.971C368.055 239.058 366.93 237.983 366.257 236.964C365.905 237.242 365.337 237.734 363.631 238.236C361.86 238.755 359.445 237.727 357.889 237.08C357.487 238.73 357.311 240.426 357.365 242.123C357.427 242.608 361.206 244.182 365.13 243.764Z" fill="#DD513A"/>
<path id="Vector_60" d="M362.964 198.155C362.171 204.123 358.249 233.825 358.249 233.825L367.358 234.95C367.358 234.95 378.547 196.17 377.974 190.239C377.4 184.308 373.212 183.809 373.212 183.809C373.212 183.809 365.059 182.357 362.964 198.155Z" fill="#F7CC7F"/>
<path id="Vector_61" d="M351.708 127.182L357.848 126.316C357.848 126.316 358.035 128.665 355.347 129.125C352.067 129.679 351.708 127.182 351.708 127.182Z" fill="white"/>
<path id="Vector_62" d="M349.433 114.235C349.433 114.235 352.645 113.448 354.699 114.183C356.752 114.919 362.331 121.652 363.542 121.071C364.753 120.491 364.596 115.758 363.963 114.921C363.33 114.085 360.647 111.345 360.383 111.231C360.12 111.118 357.225 110.444 356.69 110.444C356.156 110.444 352.163 111.231 352.163 111.231L349.433 114.235Z" fill="#184655"/>
<path id="Vector_63" d="M402.874 195.762C401.766 195.779 398.809 195.149 397.854 195.14C397.116 195.14 395.53 194.377 394.853 194.402C393.516 191.521 387.059 175.592 385.234 171.019C382.844 165.019 374.857 144.331 374.857 144.331L366.9 147.302C366.9 147.302 373.592 163.292 376.854 171.285C379.656 178.173 390.791 195.85 390.83 195.932C391.948 198.281 395.2 197.324 395.2 197.324C395.2 197.324 400.474 196.766 401.601 196.775C402.089 196.771 403.984 195.745 402.874 195.762Z" fill="#E4A679"/>
<path id="Vector_64" d="M380.536 153.585L370.519 160.392C370.519 160.392 367.648 152.722 365.656 148.016C363.933 143.967 368.212 135.681 370.154 136.441C374.502 138.146 380.536 153.585 380.536 153.585Z" fill="#DD513A"/>
</g>
<path id="hand" fill-rule="evenodd" clip-rule="evenodd" d="M487.951 311.123C487.926 311.068 487.907 311.019 487.893 310.976C487.621 310.119 488.445 307.879 489.148 305.968C489.714 304.43 490.201 303.104 489.976 302.883C489.425 302.696 488.62 303.722 487.992 304.522C487.563 305.069 487.217 305.511 487.091 305.387C486.985 305.283 486.887 304.39 486.762 303.259C486.522 301.079 486.184 298.015 485.508 298.031C484.934 298.045 484.925 299.692 484.917 301.151C484.911 302.301 484.905 303.335 484.624 303.362C483.92 303.433 483.233 303.614 482.586 303.899C481.908 304.184 481.062 304.546 480.697 305.129C480.375 305.65 479.88 306.543 480.97 308.609C481.778 310.137 482.076 310.687 482.311 311.263C482.45 311.602 482.566 311.95 482.751 312.511C484.168 317.538 487.454 327.697 491.591 330.88C496.131 334.373 508.086 341.61 508.086 341.61L509.255 332.007C509.255 332.007 497.054 325.778 495.402 322.683C494.156 320.349 489.946 314.069 487.951 311.123Z" fill="#F7A491"/>
<g id="Girl">
<path id="Vector_65" d="M513.278 333.084C520.457 327.276 539.264 335.298 542.068 339.052C544.823 342.742 550.416 381.635 546.3 384.316C542.184 386.997 529.441 392.454 524.143 387.647C518.845 382.84 513.278 333.084 513.278 333.084Z" fill="#9855FE"/>
<path id="Vector_66" d="M506.552 406.707C506.552 406.707 506.181 414.313 506.181 418.953C506.181 423.592 513.32 441.774 512.68 444.372C512.04 446.97 519.416 446.616 519.416 446.616C519.416 446.616 519.908 432.498 518.018 425.816C516.127 419.135 518.018 405.398 518.018 405.398L506.552 406.707Z" fill="#F7A491"/>
<path id="Vector_67" d="M524.485 403.039C524.485 403.039 526.883 415.612 528.833 418.488C530.783 421.364 541.276 440.94 541.276 443.445C541.276 445.949 547.869 443.907 547.869 443.907C547.869 443.907 542.297 422.478 540.069 415.984C538.734 412.113 537.709 408.142 537.004 404.109L524.485 403.039Z" fill="#F7A491"/>
<path id="Vector_68" d="M504.314 386.444C503.556 391.044 496.872 414.825 496.872 414.825C507.168 417.634 536.716 419.435 547.762 412.318C547.762 412.318 539.04 379.521 533.976 373.45L524.49 371.888L507.668 370.078C507.668 370.078 504.851 383.192 504.314 386.444Z" fill="#CB34AA"/>
<path id="Vector_69" d="M501.447 452.35H521.733C521.733 452.35 522.149 445.021 520.749 443.629C519.348 442.237 519.727 443.806 517.405 444.692C515.084 445.577 513.574 443.44 512.513 442.382C511.452 441.324 512.206 445.764 507.75 445.764C503.293 445.764 500.425 450.308 501.447 452.35Z" fill="#50BFA5"/>
<path id="Vector_70" d="M541.061 442.638C540.012 442.884 536.711 445.57 535.615 448.48C534.52 451.39 534.832 452.431 534.832 452.431C534.832 452.431 538.188 453.922 544.633 453.452C551.078 452.982 550.091 452.276 550.091 452.276C550.091 452.276 549.633 445.651 548.538 443.639C547.442 441.627 542.9 442.214 541.061 442.638Z" fill="#50BFA5"/>
<path id="Vector_71" d="M539.198 359.743C539.198 359.743 543.038 368.845 541.884 372.021C540.729 375.197 537.698 386.847 537.698 386.847C537.698 386.847 540.288 389.083 542.021 388.734C544.36 385.147 550.638 374.973 550.215 369.462C549.791 363.952 547.337 354.978 547.337 354.978L539.198 359.743Z" fill="#F7A491"/>
<path id="Vector_72" d="M544.001 385.327C542.543 384.397 540.475 383.435 538.919 382.761C538.703 383.851 538.501 384.648 538.331 384.936C537.536 386.279 531.218 387.976 531.191 388.658C531.164 389.339 534.638 388.658 534.606 389.071C534.574 389.484 529.914 394.259 530.591 394.975C531.268 395.691 534.798 391.189 535.224 391.644C535.65 392.099 531.371 397.401 532.541 397.661C533.71 397.922 536.014 392.707 536.657 393.01C537.299 393.312 534.892 398.003 535.367 398.51C535.842 399.017 536.305 397.898 536.938 396.655C537.57 395.413 538.336 393.595 538.609 393.89C538.882 394.185 537.885 397.723 538.525 398.072C539.166 398.422 542.167 388.306 543.316 386.628C543.571 386.209 543.799 385.774 544.001 385.327Z" fill="#F7A491"/>
<path id="Vector_73" d="M550.24 358.835C550.24 358.835 546.85 363.814 539.57 366.068C538.831 362.132 538.016 360.292 537.864 360.314C537.46 360.37 535.894 366.619 534.158 373.726C528.343 377.088 507.291 375.43 507.274 371.876C507.259 369.17 510.832 347.972 507.028 345.008C505.647 343.93 495.297 336.152 495.297 336.152C495.297 336.152 498.323 328.548 501.336 325.574L513.318 330.388C520.689 333.34 526.684 334.752 530.798 336.619C544.823 342.966 547.347 347.268 550.24 358.835Z" fill="#F4F857"/>
<path id="Vector_74" d="M531.282 336.808C527.449 348.245 529.5 368.621 534.916 374.692C536.479 370.914 533.424 359.44 537.87 340.006C537.996 339.03 531.669 335.753 531.282 336.808Z" fill="#7C25FF"/>
<path id="Vector_75" d="M520.942 332.936C515.405 338.951 508.204 363.379 508.029 364.491C508.275 344.966 514.622 333.633 515.863 331.362C516.69 330.813 521.05 332.346 520.942 332.936Z" fill="#7C25FF"/>
<path id="Vector_76" d="M520.955 328.358C521.201 331.886 520.194 334.796 519.618 335.942C519.618 335.942 523.225 339.477 529.247 337.418C528.939 334.277 529.261 330.73 530.167 326.806L520.955 328.358Z" fill="#F7A491"/>
<path id="Vector_77" d="M520.696 332.526C520.958 331.153 521.045 329.753 520.955 328.358L530.167 326.813C529.941 327.797 529.75 328.758 529.596 329.697C526.701 331.815 523.461 332.931 520.696 332.526Z" fill="#F47458"/>
<path id="Vector_78" d="M520.45 310.076C517.126 313.138 512.424 323.443 516.358 328.218C521.349 334.272 530.224 330.371 535.613 322.528C541.002 314.686 525.581 305.35 520.45 310.076Z" fill="#F7A491"/>
<path id="Vector_79" d="M530.577 314.103C530.577 314.103 534.443 314.218 532.921 317.847C531.4 321.475 528.645 322.705 530.11 324.167C531.117 325.173 530.265 327.328 529.807 328.513C529.561 329.128 530.629 327.829 532.087 327.702C535.632 327.397 538.241 326.331 539.315 322.171C539.315 322.171 542.481 317.817 541.681 312.742C541.092 309.013 538.069 308.452 538.069 308.452C538.069 308.452 537.227 306.752 533.271 304.853C527.68 302.167 519.302 300.334 519.302 305.493C519.302 308.703 517.925 313.416 530.577 314.103Z" fill="#F7CC7F"/>
<path id="Vector_80" d="M535.039 310.823C540.52 302.496 551.362 306.354 552.458 312.299C553.391 317.374 557.583 319.679 564.556 319.975C574.002 320.363 570.895 333.81 565.39 334.585C571.501 344.902 550.646 351.273 551.264 341.123C543.632 339.743 540.003 335.542 541.556 330.034C543.11 324.526 543.895 310.381 538.639 312.929C533.181 314.649 535.039 310.823 535.039 310.823Z" fill="#F7CC7F"/>
<path id="Vector_81" d="M529.49 321.34C529.763 321.2 533.488 319.564 534.633 321.539C535.566 323.153 533.774 326.595 530.977 326.595C528.18 326.595 525.977 323.138 529.49 321.34Z" fill="#F7A491"/>
<path id="Vector_82" d="M521.732 452.35C521.732 452.35 521.818 450.827 521.782 449.039C519.401 450.067 506.35 449.902 501.606 449.806C501.193 450.756 501.114 451.686 501.446 452.35H521.732Z" fill="#EFFDFA"/>
<path id="Vector_83" d="M544.633 453.452C551.076 452.982 550.091 452.276 550.091 452.276C550.091 452.276 549.986 450.751 549.757 448.94C545.271 452.94 538.267 450.908 535.202 449.708C534.613 451.69 534.835 452.431 534.835 452.431C534.835 452.431 538.188 453.922 544.633 453.452Z" fill="#EFFDFA"/>
</g>
<g id="boy">
<path id="Vector_84" d="M191.343 322.122C191.343 322.122 197.049 321.596 200.57 327.758C204.091 333.92 209.16 349.209 211.097 350.425C213.035 351.64 224.684 359.281 226.378 358.523C228.072 357.765 231.147 349.834 232.378 349.502C233.609 349.17 233.781 350.415 233.346 351.244C232.91 352.073 232.361 353.044 232.836 353.34L233.306 353.635C233.306 353.635 237.174 351.254 238.255 351.586C239.335 351.918 236.494 356.223 236.679 357.349C236.864 358.476 234.852 360.695 234.51 361.342C234.168 361.989 233.963 363.047 227.796 363.773C221.629 364.498 211.681 361.883 206.277 357.684C198.982 352.011 190.944 330.678 190.461 328.41C189.245 322.663 191.343 322.122 191.343 322.122Z" fill="#F48C7F"/>
<path id="Vector_85" d="M201.427 326.528C197.771 320.4 191.178 322.454 191.178 322.454C191.178 322.454 188.632 322.828 189.827 328.582C190.102 329.903 193.148 338.334 197.04 345.684C199.33 342.769 203.857 339.603 207.252 338.011C205.541 334.071 203.596 330.236 201.427 326.528Z" fill="#F47458"/>
<path id="Vector_86" d="M214.407 426.99C214.407 426.99 218.1 442.02 220.845 444.382C223.59 446.743 232.558 451.255 230.212 451.742C227.866 452.229 210.495 452.64 210.987 449.737C211.479 446.834 211.972 444.999 211.972 444.999L207.378 434.264L214.407 426.99Z" fill="#F7A491"/>
<path id="Vector_87" d="M231.378 452.357C227.144 452.778 214.782 453.223 211.19 452.763C211.19 452.763 210.513 452.63 210.988 449.737C211.107 449.029 211.235 448.384 211.336 447.816C214.603 448.672 221.717 446.847 224.534 446.473C227.597 447.949 231.048 450.126 232.166 450.308C233.764 450.574 233.761 452.121 231.378 452.357Z" fill="#D3DEF1"/>
<path id="Vector_88" d="M174.491 437.565C174.491 437.565 175.175 443.654 175.175 445.329C175.175 447.004 173.614 451.725 174.338 452.463C175.062 453.201 195.739 453.098 195.739 452.416C195.739 451.735 192.086 449.673 187.123 448.256C182.16 446.839 183.386 440.876 182.755 437.575L174.491 437.565Z" fill="#F7A491"/>
<path id="Vector_89" d="M196.072 452.957C196.072 451.366 192.682 449.873 188.29 448.529C183.612 450.109 177.11 448.805 174.675 448.34C173.937 450.288 173.621 452.938 174.146 453.073C174.766 453.235 196.072 453.248 196.072 452.957Z" fill="#D3DEF1"/>
<path id="Vector_90" d="M202.493 364.164L220.096 436.768L208.955 439.263L182.384 368.324L202.493 364.164Z" fill="#466EB6"/>
<path id="Vector_91" d="M198.384 367.593L192.643 384.464L185.383 440.306L174.304 439.585C174.304 439.585 170.562 383.937 171.842 368.771L198.384 367.593Z" fill="#86B1F2"/>
<path id="Vector_92" d="M206.781 367.863C204.423 358.948 201.336 346.877 200.491 341.657C199.073 332.892 194.3 322.194 194.3 322.194C194.3 322.194 189.048 321.365 185.141 321.581C177.595 322.002 166.677 324.435 166.677 324.435L170.517 373.123C182.428 372.862 195.491 371.824 206.781 367.863Z" fill="#FCF3F1"/>
<path id="Vector_93" d="M168.122 298.027C168.041 302.585 169.538 304.568 172.381 308.142C175.225 311.716 180.242 315.938 180.242 315.938L194.347 306.954C194.347 306.954 194.248 305.025 193.741 299.313C191.666 275.983 168.186 294.499 168.122 298.027Z" fill="#F7CC7F"/>
<path id="Vector_94" d="M171.689 307.601C172.258 309.384 173.698 310.516 174.904 310.132C176.111 309.748 176.628 307.99 176.057 306.196C175.485 304.403 174.045 303.281 172.839 303.665C171.633 304.049 171.118 305.817 171.689 307.601Z" fill="#F7A491"/>
<path id="Vector_95" d="M191.059 304.336C190.525 306.132 191.079 307.876 192.29 308.236C193.501 308.595 194.919 307.434 195.451 305.638C195.983 303.842 195.431 302.098 194.22 301.739C193.009 301.38 191.591 302.543 191.059 304.336Z" fill="#F7A491"/>
<path id="Vector_96" d="M178.243 313.129L177.719 322.656C177.719 322.656 178.873 325.881 184.105 325.891C187.963 325.891 187.517 317.301 187.517 317.301L187.212 313.119L178.243 313.129Z" fill="#F7A491"/>
<path id="Vector_97" d="M187.352 320.307H187.431C187.527 319.308 187.557 318.304 187.519 317.301L187.214 313.119H178.243L178.174 314.393C179.289 316.314 182.591 320.307 187.352 320.307Z" fill="#F27A6A"/>
<path id="Vector_98" d="M182.057 291.33C179.037 291.776 176.828 293.913 175.223 296.523C172.042 301.689 174.627 309.315 175.501 311.06C176.375 312.804 179.869 317.291 185.046 317.291C190.223 317.291 193.306 311.266 193.742 306.654C194.325 300.477 193.207 294.071 187.326 291.923C185.644 291.302 183.836 291.098 182.057 291.33Z" fill="#F7A491"/>
<path id="Vector_99" d="M173.708 303.645C173.708 303.645 175.185 295.402 179.863 293.559C184.54 291.717 191.468 292.191 193.593 300.228C193.593 300.228 192.278 290.553 189.733 288.012C187.187 285.471 182.027 285.185 182.027 285.185L183.73 286.88C182.221 286.452 180.658 286.245 179.09 286.265C176.315 286.265 175.801 286.932 175.801 286.932C175.801 286.932 177.704 287.239 177.704 287.857C177.704 288.474 172.664 288.679 172.664 288.679C172.664 288.679 172.26 292.784 170.626 294.418C168.991 296.051 173.708 303.645 173.708 303.645Z" fill="#F7CC7F"/>
<path id="Vector_100" d="M246.797 343.126C244.968 342.021 241.171 340.299 238.872 340.454C238.639 340.468 238.407 340.417 238.202 340.305C237.997 340.194 237.827 340.027 237.712 339.824L233.318 332.149C233.2 331.944 233.141 331.71 233.146 331.474C233.15 331.237 233.219 331.007 233.345 330.806C234.605 328.838 234.992 324.604 234.943 322.442L225.381 316.811C223.551 317.879 220.235 320.383 219.226 322.511C219.128 322.721 218.972 322.9 218.777 323.025C218.582 323.151 218.355 323.219 218.123 323.222H209.506C209.272 323.221 209.044 323.154 208.846 323.029C208.648 322.904 208.49 322.726 208.388 322.516C207.345 320.388 203.974 317.893 202.12 316.833L192.684 322.491C192.684 324.663 193.161 328.887 194.464 330.855C194.594 331.052 194.668 331.281 194.678 331.518C194.688 331.754 194.634 331.988 194.52 332.196L190.306 339.886C190.195 340.089 190.029 340.257 189.827 340.37C189.625 340.482 189.394 340.534 189.163 340.521C186.859 340.368 183.102 342.1 181.285 343.212L181.408 354.493C183.237 355.6 187.031 357.322 189.333 357.165C189.566 357.15 189.799 357.201 190.004 357.313C190.208 357.425 190.377 357.593 190.49 357.797L194.887 365.472C195.005 365.678 195.064 365.911 195.059 366.148C195.055 366.384 194.986 366.615 194.86 366.816C193.6 368.784 193.213 373.017 193.262 375.18L202.824 380.811C204.654 379.743 207.97 377.239 208.979 375.111C209.076 374.9 209.23 374.72 209.425 374.594C209.62 374.468 209.848 374.401 210.08 374.4H218.696C218.93 374.402 219.158 374.469 219.356 374.594C219.553 374.72 219.711 374.898 219.812 375.108C220.858 377.234 224.228 379.731 226.082 380.791L235.519 375.133C235.519 372.961 235.041 368.737 233.739 366.769C233.608 366.572 233.534 366.343 233.524 366.107C233.513 365.871 233.567 365.636 233.68 365.428L237.907 357.741C238.019 357.538 238.185 357.371 238.388 357.259C238.59 357.146 238.82 357.093 239.052 357.106C241.356 357.256 245.113 355.524 246.93 354.415L246.797 343.126ZM214.105 364.461C211.007 364.461 207.979 363.543 205.403 361.824C202.828 360.104 200.82 357.66 199.635 354.8C198.449 351.94 198.139 348.793 198.743 345.757C199.348 342.722 200.839 339.933 203.03 337.744C205.22 335.555 208.011 334.065 211.049 333.461C214.088 332.857 217.237 333.167 220.099 334.352C222.961 335.536 225.407 337.542 227.128 340.116C228.849 342.69 229.768 345.715 229.768 348.811C229.763 352.96 228.111 356.938 225.175 359.872C222.239 362.806 218.258 364.457 214.105 364.461Z" fill="#B584FF"/>
<path id="Vector_101" d="M187.844 354.464C190.06 356.737 199.499 361.78 202.17 363.458C202.446 363.44 204.056 363.404 206.341 364.732C207.953 365.672 211.334 366.07 210.548 366.946C209.763 367.822 206.875 366.341 207.005 367.192C207.136 368.043 212.951 371.539 212.24 372.338C211.528 373.138 206.264 369.497 206.383 370.262C206.501 371.027 211.678 373.851 210.671 374.98C209.664 376.109 204.905 371.133 204.364 371.738C203.822 372.343 206.912 375.411 206.102 376.321C205.292 377.231 202.096 371.947 202.163 372.385C202.229 372.823 202.884 376.055 202.224 376.176C201.486 376.314 198.881 368.272 197.404 367.455C193.381 365.836 183.925 361.091 181.704 358.744C178.218 355.054 172.406 348.08 170.394 344.336C166.701 337.475 169.163 335.453 169.163 335.453C169.163 335.453 171.999 330.412 175.675 335.665C178.91 340.314 185.22 351.78 187.844 354.464Z" fill="#F7A491"/>
<path id="Vector_102" d="M165.236 324.836C163.927 325.328 162.381 327.972 162.826 331.561C163.439 336.518 167.191 344.749 170.111 348.602C170.111 348.602 178.235 345.864 181.293 341.93C180.958 341.022 176.098 331.574 172.283 327.547C168.888 323.967 167.002 324.171 165.236 324.836Z" fill="#F47458"/>
</g>
</g>
</svg>
