<svg xmlns="http://www.w3.org/2000/svg" width="29.219" height="45.09" viewBox="0 0 29.219 45.09">
  <defs>
    <style>
      .cls-1 {
        fill: #fff;
        fill-rule: evenodd;
      }
    </style>
  </defs>
  <path id="Rounded_Rectangle_4_copy_2" data-name="Rounded Rectangle 4 copy 2" class="cls-1" d="M586.9,2777.22l-13.647,7.46a2.411,2.411,0,0,1-1.156.3l0.042,0.02c-1.172.34-3.592-.48-4-2l-9.172-39.31c-0.249-.93.322-2.53,1.172-2.69,0.372,0,17.455-1.01,17.455-1.01a2.662,2.662,0,0,1,2.463,2.12l7.986,31.95A2.908,2.908,0,0,1,586.9,2777.22Zm-9.194,1.2,0.211,0.84a0.623,0.623,0,0,0,.92.47l2.725-1.43a1.042,1.042,0,0,0,.454-1.14l-0.2-.81a0.6,0.6,0,0,0-.859-0.47l-2.746,1.34A1.091,1.091,0,0,0,577.7,2778.42Zm8.745-6.31L579,2743.07a1.359,1.359,0,0,0-.931-1l-16,1.53a0.769,0.769,0,0,0-.691.99l8.649,34.61a0.734,0.734,0,0,0,1.065.51l14.43-6.6C585.834,2772.96,586.55,2772.52,586.447,2772.11ZM566.135,2757l15,1,1,3-15-1Zm-3-11,16,3,1,4-16-2Z" transform="translate(-558.906 -2740)"/>
</svg>
