<svg width="36" height="35" viewBox="0 0 36 35" fill="none" xmlns="http://www.w3.org/2000/svg">
<path d="M5.625 5.19531C9.04688 1.77344 13.1719 0.0625 18 0.0625C22.8281 0.0625 26.9297 1.77344 30.3047 5.19531C33.7266 8.57031 35.4375 12.6719 35.4375 17.5C35.4375 22.3281 33.7266 26.4531 30.3047 29.875C26.9297 33.25 22.8281 34.9375 18 34.9375C13.1719 34.9375 9.04688 33.25 5.625 29.875C2.25 26.4531 0.5625 22.3281 0.5625 17.5C0.5625 12.6719 2.25 8.57031 5.625 5.19531ZM9.84375 20.5938H18V25.5859C18 25.9609 18.1641 26.2188 18.4922 26.3594C18.8672 26.5 19.1719 26.4297 19.4062 26.1484L27.4922 18.0625C27.8672 17.6875 27.8672 17.3125 27.4922 16.9375L19.4062 8.85156C19.1719 8.57031 18.8672 8.5 18.4922 8.64062C18.1641 8.78125 18 9.03906 18 9.41406V14.4062H9.84375C9.28125 14.4062 9 14.6875 9 15.25V19.75C9 20.3125 9.28125 20.5938 9.84375 20.5938Z" fill="#6600FF"/>
</svg>
